<svg width="24" height="24" viewBox="0 0 24 24" fill="none" xmlns="http://www.w3.org/2000/svg">
<g clip-path="url(#clip0_2437_2948)">
<path d="M17.5338 2.21142L16.3848 1.06237C15.4322 0.111796 13.8902 0.111796 12.9376 1.06237L11.7886 2.21142C10.838 3.16396 10.838 4.70603 11.7886 5.65856L13.5122 7.38214L7.76691 13.1274L6.04334 11.4038C5.0908 10.4532 3.54873 10.4532 2.59619 11.4038L1.44715 12.5529C0.496572 13.5054 0.496572 15.0475 1.44715 16L2.59619 17.149C1.64562 18.1016 1.64562 19.6437 2.59619 20.5962L3.74524 21.7452C4.69778 22.6958 6.23985 22.6958 7.19239 21.7452L8.34144 22.8943C9.29397 23.8449 10.836 23.8449 11.7886 22.8943L12.9376 21.7452C13.8882 20.7927 13.8882 19.2506 12.9376 18.2981L11.2141 16.5745L16.9593 10.8293L18.6829 12.5529C19.6354 13.5034 21.1775 13.5034 22.13 12.5529L23.2791 11.4038C24.2296 10.4513 24.2296 8.9092 23.2791 7.95666L22.13 6.80761C23.0806 5.85507 23.0806 4.313 22.13 3.36047L20.981 2.21142C20.0284 1.26084 18.4864 1.26084 17.5338 2.21142ZM4.89429 20.5962L3.74524 19.4471C3.42796 19.1299 3.42796 18.6154 3.74524 18.2981L6.04334 20.5962C5.72606 20.9135 5.21157 20.9135 4.89429 20.5962ZM11.7886 19.4471C12.1059 19.7644 12.1059 20.2789 11.7886 20.5962L10.6395 21.7452C10.3223 22.0625 9.80776 22.0625 9.49048 21.7452L2.59619 14.851C2.27892 14.5337 2.27892 14.0192 2.59619 13.7019L3.74524 12.5529C4.06252 12.2356 4.57701 12.2356 4.89429 12.5529L11.7886 19.4471ZM10.065 15.4255L8.91596 14.2764L14.6612 8.53118L15.8103 9.68023L10.065 15.4255ZM22.13 9.10571C22.4473 9.42299 22.4473 9.93748 22.13 10.2548L20.981 11.4038C20.6637 11.7211 20.1492 11.7211 19.8319 11.4038L12.9376 4.50952C12.6204 4.19224 12.6204 3.67775 12.9376 3.36047L14.0867 2.21142C14.404 1.89414 14.9184 1.89414 15.2357 2.21142L22.13 9.10571ZM20.981 4.50952C21.2982 4.82679 21.2982 5.34128 20.981 5.65856L18.6829 3.36047C19.0002 3.04319 19.5146 3.04319 19.8319 3.36047L20.981 4.50952Z" fill="#9B8164"/>
</g>
<defs>
<clipPath id="clip0_2437_2948">
<rect width="24" height="24" fill="white"/>
</clipPath>
</defs>
</svg>
