<svg width="24" height="24" viewBox="0 0 24 24" fill="none" xmlns="http://www.w3.org/2000/svg">
<g clip-path="url(#clip0_2437_2976)">
<path d="M9.375 16.0313C10.6173 16.0313 11.8317 15.6629 12.8647 14.9727C13.8976 14.2825 14.7027 13.3015 15.1781 12.1537C15.6535 11.006 15.7779 9.74303 15.5356 8.52459C15.2932 7.30615 14.695 6.18694 13.8165 5.30849C12.9381 4.43004 11.8189 3.83181 10.6004 3.58945C9.38197 3.34708 8.11902 3.47147 6.97127 3.94688C5.82352 4.4223 4.84252 5.22738 4.15233 6.26033C3.46214 7.29327 3.09375 8.50769 3.09375 9.75C3.09564 11.4153 3.75801 13.0119 4.93557 14.1894C6.11312 15.367 7.70969 16.0294 9.375 16.0313ZM9.375 4.78125C10.3577 4.78125 11.3184 5.07266 12.1355 5.61864C12.9526 6.16461 13.5895 6.94062 13.9655 7.84855C14.3416 8.75646 14.44 9.75552 14.2483 10.7194C14.0566 11.6832 13.5833 12.5685 12.8884 13.2634C12.1935 13.9583 11.3082 14.4316 10.3444 14.6233C9.38051 14.815 8.38146 14.7166 7.47354 14.3405C6.56562 13.9645 5.78961 13.3276 5.24364 12.5105C4.69766 11.6934 4.40625 10.7327 4.40625 9.75C4.40774 8.43267 4.93171 7.16971 5.86321 6.23821C6.79471 5.30671 8.05766 4.78274 9.375 4.78125Z" fill="#9B8164"/>
<path d="M7.68741 10.4063H9.94041L8.80304 12.4283C8.71773 12.5799 8.69615 12.7593 8.74306 12.9269C8.78996 13.0945 8.90151 13.2365 9.05316 13.3219C9.12825 13.3642 9.21094 13.3913 9.2965 13.4016C9.38206 13.4119 9.46882 13.4053 9.55181 13.382C9.6348 13.3588 9.7124 13.3194 9.78018 13.2662C9.84795 13.213 9.90456 13.1469 9.94679 13.0718L11.6343 10.0718C11.6905 9.97191 11.7195 9.8591 11.7186 9.74453C11.7176 9.62997 11.6867 9.51766 11.6288 9.41876C11.571 9.31986 11.4883 9.23782 11.3889 9.1808C11.2895 9.12379 11.177 9.09378 11.0624 9.09376H8.80941L9.94679 7.07176C10.029 6.92032 10.0483 6.74261 10.0006 6.57703C9.9529 6.41145 9.84198 6.27128 9.6918 6.18679C9.54162 6.10229 9.36423 6.08026 9.19794 6.12544C9.03166 6.17062 8.88981 6.27939 8.80304 6.42826L7.11554 9.42826C7.05937 9.52812 7.03032 9.64093 7.03127 9.7555C7.03223 9.87006 7.06316 9.98237 7.12099 10.0813C7.17882 10.1802 7.26154 10.2622 7.36091 10.3192C7.46028 10.3762 7.57285 10.4062 7.68741 10.4063Z" fill="#9B8164"/>
<path d="M20.625 21.2812C20.9874 21.2812 21.2812 20.9874 21.2812 20.625C21.2812 20.2626 20.9874 19.9688 20.625 19.9688C20.2626 19.9688 19.9688 20.2626 19.9688 20.625C19.9688 20.9874 20.2626 21.2812 20.625 21.2812Z" fill="#9B8164"/>
<path d="M3.375 21.2812C3.73744 21.2812 4.03125 20.9874 4.03125 20.625C4.03125 20.2626 3.73744 19.9688 3.375 19.9688C3.01256 19.9688 2.71875 20.2626 2.71875 20.625C2.71875 20.9874 3.01256 21.2812 3.375 21.2812Z" fill="#9B8164"/>
<path d="M20.7934 17.3524L19.6823 9.99304C19.8071 10.0177 19.9339 10.0303 20.0611 10.0305H21.3736C21.5474 10.0304 21.7142 9.96137 21.8372 9.83849C21.9603 9.7156 22.0295 9.54893 22.0298 9.37504V6.75004C22.0297 6.57602 21.9605 6.40916 21.8375 6.28611C21.7144 6.16306 21.5476 6.09389 21.3736 6.09379H20.0611C19.7354 6.09616 19.4155 6.18023 19.1307 6.33829L18.5611 2.56617C18.4609 1.8768 18.1149 1.24687 17.5869 0.79251C17.0589 0.338151 16.3844 0.0899957 15.6878 0.0937929H13.8736C13.6995 0.0937929 13.5326 0.162933 13.4095 0.286004C13.2865 0.409075 13.2173 0.575995 13.2173 0.750043C13.2173 0.924091 13.2865 1.09101 13.4095 1.21408C13.5326 1.33715 13.6995 1.40629 13.8736 1.40629H15.6878C16.0697 1.40449 16.4394 1.54071 16.7288 1.78988C17.0182 2.03904 17.2078 2.38438 17.2628 2.76229L18.8333 13.1625L15.4141 15.1875C15.2752 15.27 15.1715 15.4007 15.1227 15.5547L14.1424 18.6563H5.99219C5.57898 18.1054 5.0029 17.6984 4.34555 17.493C3.6882 17.2877 2.9829 17.2944 2.32957 17.5122C1.67623 17.73 1.10798 18.1478 0.705299 18.7065C0.302623 19.2651 0.0859375 19.9364 0.0859375 20.625C0.0859375 21.3137 0.302623 21.9849 0.705299 22.5436C1.10798 23.1023 1.67623 23.5201 2.32957 23.7379C2.9829 23.9557 3.6882 23.9624 4.34555 23.757C5.0029 23.5517 5.57898 23.1447 5.99219 22.5938H18.0049C18.3361 23.0349 18.7732 23.3854 19.2758 23.6127C19.7784 23.84 20.3302 23.9368 20.8802 23.8941C21.4301 23.8514 21.9604 23.6706 22.4219 23.3684C22.8834 23.0663 23.2612 22.6526 23.5203 22.1656C23.7794 21.6786 23.9114 21.1341 23.904 20.5826C23.8967 20.031 23.7503 19.4902 23.4784 19.0103C23.2065 18.5303 22.8179 18.1268 22.3486 17.837C21.8792 17.5472 21.3443 17.3805 20.7934 17.3524ZM3.37356 22.5938C2.98418 22.5938 2.60354 22.4783 2.27978 22.262C1.95602 22.0457 1.70368 21.7382 1.55467 21.3784C1.40566 21.0187 1.36668 20.6229 1.44264 20.241C1.51861 19.8591 1.70611 19.5083 1.98145 19.2329C2.25678 18.9576 2.60758 18.7701 2.98948 18.6941C3.37138 18.6182 3.76723 18.6571 4.12697 18.8062C4.48671 18.9552 4.79419 19.2075 5.01052 19.5313C5.22685 19.855 5.34231 20.2357 5.34231 20.625C5.34172 21.147 5.1341 21.6474 4.76502 22.0165C4.39594 22.3856 3.89552 22.5932 3.37356 22.5938ZM20.0611 7.40629H20.7173V8.71879H20.0611C19.887 8.71879 19.7201 8.64965 19.597 8.52658C19.4739 8.40351 19.4048 8.23659 19.4048 8.06254C19.4048 7.88849 19.4739 7.72157 19.597 7.5985C19.7201 7.47543 19.887 7.40629 20.0611 7.40629ZM17.4083 21.2813H6.58881C6.67681 20.8482 6.67681 20.4019 6.58881 19.9688H17.4083C17.3203 20.4019 17.3203 20.8482 17.4083 21.2813ZM18.0049 18.6563H15.5191L16.2987 16.1869L19.0444 14.5609L19.4944 17.5455C18.9019 17.7657 18.3849 18.1512 18.0049 18.6563ZM20.6236 22.5938C20.2342 22.5938 19.8535 22.4783 19.5298 22.262C19.206 22.0457 18.9537 21.7382 18.8047 21.3784C18.6557 21.0187 18.6167 20.6229 18.6926 20.241C18.7686 19.8591 18.9561 19.5083 19.2314 19.2329C19.5068 18.9576 19.8576 18.7701 20.2395 18.6941C20.6214 18.6182 21.0172 18.6571 21.377 18.8062C21.7367 18.9552 22.0442 19.2075 22.2605 19.5313C22.4768 19.855 22.5923 20.2357 22.5923 20.625C22.5917 21.147 22.3841 21.6474 22.015 22.0165C21.6459 22.3856 21.1455 22.5932 20.6236 22.5938Z" fill="#9B8164"/>
</g>
<defs>
<clipPath id="clip0_2437_2976">
<rect width="24" height="24" fill="white"/>
</clipPath>
</defs>
</svg>
