<svg width="24" height="24" viewBox="0 0 24 24" fill="none" xmlns="http://www.w3.org/2000/svg">
<path d="M18.0052 1.94926H17.6482V1.50001C17.6482 1.12726 17.346 0.825012 16.9732 0.825012C16.6005 0.825012 16.2982 1.12726 16.2982 1.50001V1.94926H7.70247V1.50001C7.70247 1.12726 7.40022 0.825012 7.02747 0.825012C6.65472 0.825012 6.35247 1.12726 6.35247 1.50001V1.94926H5.99472C3.45372 1.94926 1.38672 4.01626 1.38672 6.55726V18.5678C1.38672 21.1088 3.45372 23.1758 5.99472 23.1758H18.0052C20.5462 23.1758 22.6132 21.1088 22.6132 18.5678V6.55726C22.6125 4.01626 20.5462 1.94926 18.0052 1.94926ZM5.99472 3.29926H6.35172V3.74851C6.35172 4.12126 6.65397 4.42351 7.02672 4.42351C7.39947 4.42351 7.70172 4.12126 7.70172 3.74851V3.29926H16.2975V3.74851C16.2975 4.12126 16.5997 4.42351 16.9725 4.42351C17.3452 4.42351 17.6475 4.12126 17.6475 3.74851V3.29926H18.0045C19.8007 3.29926 21.2617 4.76101 21.2617 6.55726V8.13526H2.73747V6.55726C2.73747 4.76101 4.19922 3.29926 5.99472 3.29926ZM18.0052 21.825H5.99472C4.19847 21.825 2.73747 20.3633 2.73747 18.567V9.48526H21.2625V18.567C21.2625 20.3633 19.8007 21.825 18.0052 21.825Z" fill="#9B8164"/>
<path d="M16.8377 14.322C16.6697 12.9953 15.895 11.9858 14.7647 11.6205C13.834 11.319 12.82 11.5118 11.9995 12.1208C11.1782 11.5133 10.168 11.319 9.23347 11.6205C8.10397 11.9858 7.32922 12.9953 7.16122 14.3228C6.80872 17.1195 9.81547 19.1655 11.794 19.7978C11.8615 19.8188 11.9305 19.8293 11.9995 19.8293C12.0685 19.8293 12.1382 19.8188 12.2042 19.7978C14.1842 19.1663 17.1925 17.1218 16.8377 14.322ZM11.9995 18.441C10.387 17.8538 8.27572 16.2735 8.49997 14.4908C8.60197 13.686 9.02047 13.1078 9.64822 12.9045C9.80122 12.855 9.95947 12.831 10.1185 12.831C10.6097 12.831 11.1122 13.0605 11.506 13.482C11.7632 13.7558 12.238 13.7543 12.493 13.482C13.0127 12.924 13.7275 12.7035 14.35 12.9038C14.9785 13.107 15.397 13.6853 15.499 14.4908C15.7247 16.2758 13.6135 17.8553 11.9995 18.441Z" fill="#9B8164"/>
</svg>
