<svg width="22" height="22" viewBox="0 0 22 22" fill="none" xmlns="http://www.w3.org/2000/svg">
<path fill-rule="evenodd" clip-rule="evenodd" d="M11 22C4.92486 22 0 17.0751 0 11C0 4.92486 4.92486 0 11 0C17.0751 0 22 4.92486 22 11C22 17.0751 17.0751 22 11 22ZM11 20.7059C16.3604 20.7059 20.7059 16.3604 20.7059 11C20.7059 5.63961 16.3604 1.29413 11 1.29413C5.63961 1.29413 1.29413 5.63961 1.29413 11C1.29413 16.3604 5.63961 20.7059 11 20.7059ZM8.10434 10.6765C8.07202 11 8.08831 11.3275 8.15323 11.6471H11.6471C12.0044 11.6471 12.2941 11.9368 12.2941 12.2941C12.2941 12.6515 12.0044 12.9412 11.6471 12.9412H8.73477C8.82557 13.0619 8.9259 13.1778 9.03581 13.2877C10.2993 14.5512 12.3478 14.5512 13.6112 13.2877C13.8639 13.035 14.2736 13.035 14.5263 13.2877C14.779 13.5404 14.779 13.9501 14.5263 14.2028C12.7574 15.9717 9.88956 15.9717 8.12071 14.2028C7.74314 13.8252 7.44614 13.3976 7.22975 12.9412H6.47054C6.11316 12.9412 5.82347 12.6515 5.82347 12.2941C5.82347 11.9368 6.11316 11.6471 6.47054 11.6471H6.84024C6.79409 11.3255 6.78253 11 6.80556 10.6765H6.47054C6.11316 10.6765 5.82347 10.3868 5.82347 10.0294C5.82347 9.67205 6.11316 9.38236 6.47054 9.38236H7.09156C7.31204 8.80455 7.6551 8.2628 8.12066 7.79724C9.88952 6.02839 12.7574 6.02839 14.5262 7.79724C14.7789 8.04994 14.7789 8.45964 14.5262 8.7123C14.2735 8.965 13.8638 8.965 13.6112 8.7123C12.3477 7.44885 10.2992 7.44885 9.03577 8.7123C8.83085 8.91722 8.65915 9.1428 8.5207 9.38236H11.647C12.0044 9.38236 12.2941 9.67205 12.2941 10.0294C12.2941 10.3868 12.0044 10.6765 11.647 10.6765H8.10434Z" fill="#9B8164"/>
</svg>
