<svg width="24" height="24" viewBox="0 0 24 24" fill="none" xmlns="http://www.w3.org/2000/svg">
<g clip-path="url(#clip0_2581_3927)">
<path d="M15.2345 17.7656L12.7032 15.8672V13.4062C12.7032 13.0179 12.3885 12.7031 12.0001 12.7031C11.6117 12.7031 11.297 13.0179 11.297 13.4062V15.8672L8.76573 17.7656C8.455 17.9987 8.39201 18.4393 8.6251 18.75C8.8582 19.0607 9.29875 19.1235 9.60948 18.8906L12.0001 17.0977L14.3907 18.8906C14.7015 19.1237 15.1422 19.0607 15.3751 18.75C15.6082 18.4393 15.5452 17.9987 15.2345 17.7656Z" fill="#9B8164"/>
<path d="M14.8125 2.8125C14.8125 1.2616 13.5509 0 12 0C10.4491 0 9.1875 1.2616 9.1875 2.8125C9.1875 4.3634 10.4491 5.625 12 5.625C13.5509 5.625 14.8125 4.3634 14.8125 2.8125ZM12 4.21875C11.2245 4.21875 10.5938 3.58795 10.5938 2.8125C10.5938 2.03705 11.2245 1.40625 12 1.40625C12.7755 1.40625 13.4062 2.03705 13.4062 2.8125C13.4062 3.58795 12.7755 4.21875 12 4.21875Z" fill="#9B8164"/>
<path d="M16.2188 10.5469V9.84375C16.2188 7.51758 14.3262 5.625 12 5.625C9.67383 5.625 7.78125 7.51758 7.78125 9.84375V10.5469C7.78125 10.9352 8.09601 11.25 8.48438 11.25H15.5156C15.904 11.25 16.2188 10.9352 16.2188 10.5469ZM9.1875 9.84375C9.1875 8.29285 10.4491 7.03125 12 7.03125C13.5509 7.03125 14.8125 8.29285 14.8125 9.84375H9.1875Z" fill="#9B8164"/>
<path d="M22.5938 15.5625C22.5938 14.0116 21.3322 12.75 19.7812 12.75C18.2303 12.75 16.9688 14.0116 16.9688 15.5625C16.9688 17.1134 18.2303 18.375 19.7812 18.375C21.3322 18.375 22.5938 17.1134 22.5938 15.5625ZM19.7812 16.9688C19.0058 16.9688 18.375 16.338 18.375 15.5625C18.375 14.787 19.0058 14.1562 19.7812 14.1562C20.5567 14.1562 21.1875 14.787 21.1875 15.5625C21.1875 16.338 20.5567 16.9688 19.7812 16.9688Z" fill="#9B8164"/>
<path d="M19.7812 18.375C17.4551 18.375 15.5625 20.2676 15.5625 22.5938V23.2969C15.5625 23.6852 15.8773 24 16.2656 24H23.2969C23.6852 24 24 23.6852 24 23.2969V22.5938C24 20.2676 22.1074 18.375 19.7812 18.375ZM16.9688 22.5938C16.9688 21.0428 18.2303 19.7812 19.7812 19.7812C21.3322 19.7812 22.5938 21.0428 22.5938 22.5938H16.9688Z" fill="#9B8164"/>
<path d="M7.03125 15.5625C7.03125 14.0116 5.76965 12.75 4.21875 12.75C2.66785 12.75 1.40625 14.0116 1.40625 15.5625C1.40625 17.1134 2.66785 18.375 4.21875 18.375C5.76965 18.375 7.03125 17.1134 7.03125 15.5625ZM4.21875 16.9688C3.4433 16.9688 2.8125 16.338 2.8125 15.5625C2.8125 14.787 3.4433 14.1562 4.21875 14.1562C4.9942 14.1562 5.625 14.787 5.625 15.5625C5.625 16.338 4.9942 16.9688 4.21875 16.9688Z" fill="#9B8164"/>
<path d="M4.21875 18.375C1.89258 18.375 0 20.2676 0 22.5938V23.2969C0 23.6852 0.314758 24 0.703125 24H7.73438C8.12274 24 8.4375 23.6852 8.4375 23.2969V22.5938C8.4375 20.2676 6.54492 18.375 4.21875 18.375ZM1.40625 22.5938C1.40625 21.0428 2.66785 19.7812 4.21875 19.7812C5.76965 19.7812 7.03125 21.0428 7.03125 22.5938H1.40625Z" fill="#9B8164"/>
</g>
<defs>
<clipPath id="clip0_2581_3927">
<rect width="24" height="24" fill="white"/>
</clipPath>
</defs>
</svg>
