<svg width="24" height="24" viewBox="0 0 24 24" fill="none" xmlns="http://www.w3.org/2000/svg">
<path d="M23.1463 17.3827V10.5658L23.3409 10.4525C23.7538 10.2128 24 9.78518 24 9.30829C24 8.83139 23.7538 8.40292 23.3409 8.16324L13.3622 2.3666C12.5225 1.87739 11.4775 1.87821 10.6378 2.3666L0.658299 8.16406C0.246246 8.40374 0 8.83139 0 9.30829C0 9.78518 0.246246 10.2128 0.658299 10.4533L3.68385 12.2115V16.2984C3.68385 17.2473 4.1944 18.1297 5.01522 18.6033L9.18007 21.0042C10.0493 21.5049 11.0245 21.756 11.9996 21.756C12.9747 21.756 13.949 21.5057 14.8191 21.0042L18.9831 18.6033C19.8048 18.1305 20.3153 17.2473 20.3153 16.2984V12.2107L21.6689 11.4244V17.3827C21.3217 17.6191 21.0935 18.0172 21.0935 18.4695C21.0935 19.1951 21.682 19.7836 22.4076 19.7836C23.1332 19.7836 23.7217 19.1951 23.7217 18.4695C23.7217 18.018 23.4936 17.6199 23.1463 17.3827ZM18.8387 16.2976H18.8379C18.8379 16.7195 18.6121 17.1118 18.246 17.322L14.082 19.7229C12.7982 20.4624 11.2018 20.4624 9.91881 19.7229L5.75396 17.322C5.38869 17.1118 5.16215 16.7195 5.16215 16.2976V13.0693L10.6378 16.2508C11.0581 16.4946 11.5293 16.6169 12.0004 16.6169C12.4716 16.6169 12.9427 16.4954 13.363 16.2508L18.8387 13.0693V16.2976ZM12.6201 14.9736C12.2376 15.196 11.7624 15.196 11.3799 14.9736L1.62933 9.30829L11.379 3.64298C11.7616 3.42053 12.2368 3.42053 12.6193 3.64298L22.3698 9.30747L12.6201 14.9736Z" fill="#9B8164"/>
</svg>
