<svg width="16" height="16" viewBox="0 0 16 16" fill="none" xmlns="http://www.w3.org/2000/svg">
<g clip-path="url(#clip0_8972_341)">
<path d="M14 0.666748H2C1.46957 0.666748 0.960859 0.877462 0.585786 1.25253C0.210714 1.62761 0 2.13632 0 2.66675L0 15.3334H16V2.66675C16 2.13632 15.7893 1.62761 15.4142 1.25253C15.0391 0.877462 14.5304 0.666748 14 0.666748ZM2 2.00008H14C14.1768 2.00008 14.3464 2.07032 14.4714 2.19534C14.5964 2.32037 14.6667 2.48994 14.6667 2.66675V3.11141L9.41467 8.36408C9.03895 8.73829 8.53028 8.94839 8 8.94839C7.46972 8.94839 6.96105 8.73829 6.58533 8.36408L1.33333 3.11141V2.66675C1.33333 2.48994 1.40357 2.32037 1.5286 2.19534C1.65362 2.07032 1.82319 2.00008 2 2.00008ZM1.33333 14.0001V5.00008L5.64267 9.30675C6.26842 9.93092 7.11617 10.2814 8 10.2814C8.88383 10.2814 9.73158 9.93092 10.3573 9.30675L14.6667 5.00008V14.0001H1.33333Z" fill="white"/>
</g>
<defs>
<clipPath id="clip0_8972_341">
<rect width="16" height="16" fill="white"/>
</clipPath>
</defs>
</svg>
