<svg width="98" height="98" viewBox="0 0 98 98" fill="none" xmlns="http://www.w3.org/2000/svg">
<g clip-path="url(#clip0_8972_245)">
<path d="M49.23 97.46C75.8667 97.46 97.46 75.8667 97.46 49.23C97.46 22.5933 75.8667 1 49.23 1C22.5933 1 1 22.5933 1 49.23C1 75.8667 22.5933 97.46 49.23 97.46Z" fill="#132A3E" stroke="white" stroke-miterlimit="10"/>
<path d="M73.4203 42.5093C72.2052 42.581 71.0031 42.2274 70.0203 41.5093C69.605 41.1839 69.272 40.7656 69.0479 40.288C68.8239 39.8103 68.7151 39.2866 68.7303 38.7593C68.7168 38.2522 68.8167 37.7485 69.0225 37.2849C69.2284 36.8213 69.5351 36.4094 69.9203 36.0793C70.9815 35.3192 72.28 34.9644 73.5803 35.0793H77.4903V34.3793C77.5203 33.9447 77.4613 33.5086 77.3169 33.0977C77.1725 32.6867 76.9456 32.3096 76.6503 31.9894C75.9508 31.4034 75.0505 31.1128 74.1403 31.1793C73.3788 31.1755 72.623 31.3111 71.9103 31.5793C71.2523 31.8216 70.6453 32.1845 70.1203 32.6493L69.8803 32.8694L68.9703 31.5493L69.1503 31.3893C69.8242 30.7996 70.605 30.3448 71.4503 30.0493C72.347 29.7357 73.2904 29.5767 74.2403 29.5793C75.5818 29.4966 76.9025 29.9416 77.9203 30.8193C78.3741 31.299 78.7239 31.8673 78.9476 32.4885C79.1713 33.1098 79.2641 33.7705 79.2203 34.4293V42.4293H77.5303V40.8793C77.1646 41.2881 76.7274 41.627 76.2403 41.8793C75.3646 42.3128 74.3973 42.5289 73.4203 42.5093ZM73.6003 36.5093C72.7477 36.4369 71.8948 36.6441 71.1703 37.0994C70.9381 37.2918 70.7539 37.5356 70.6324 37.8116C70.5109 38.0876 70.4554 38.3881 70.4703 38.6893C70.4585 39.0082 70.5231 39.3252 70.6588 39.614C70.7945 39.9028 70.9973 40.155 71.2503 40.3494C71.936 40.8111 72.7554 41.0326 73.5803 40.9794C74.438 41.0062 75.2841 40.7763 76.0103 40.3193C76.677 39.864 77.1924 39.2198 77.4903 38.4694V36.4694L73.6003 36.5093ZM15.3103 42.5093C14.0985 42.5794 12.9 42.2259 11.9203 41.5093C11.505 41.1839 11.172 40.7656 10.9479 40.288C10.7239 39.8103 10.6151 39.2866 10.6303 38.7593C10.617 38.2532 10.7159 37.7505 10.9199 37.2871C11.124 36.8237 11.428 36.4113 11.8103 36.0793C12.8762 35.3209 14.1771 34.9665 15.4803 35.0793H19.3803V34.3793C19.4117 33.9454 19.3543 33.5098 19.2115 33.0989C19.0688 32.6879 18.8438 32.3104 18.5503 31.9894C17.8508 31.4034 16.9505 31.1128 16.0403 31.1793C15.2786 31.1736 14.5225 31.3093 13.8103 31.5793C13.1523 31.8216 12.5453 32.1845 12.0203 32.6493L11.7803 32.8694L10.8603 31.5493L11.0503 31.3893C11.7223 30.7969 12.5036 30.3418 13.3503 30.0493C14.2437 29.7366 15.1837 29.5777 16.1303 29.5793C17.475 29.4951 18.7994 29.9401 19.8203 30.8193C20.2741 31.299 20.6239 31.8673 20.8476 32.4885C21.0713 33.1098 21.1641 33.7705 21.1203 34.4293V42.4293H19.4303V40.8793C19.0646 41.2881 18.6274 41.627 18.1403 41.8793C17.2615 42.314 16.2906 42.5302 15.3103 42.5093ZM15.5003 36.5093C14.6476 36.4354 13.7942 36.6427 13.0703 37.0994C12.8381 37.2918 12.6539 37.5356 12.5324 37.8116C12.4109 38.0876 12.3554 38.3881 12.3703 38.6893C12.3585 39.0082 12.4231 39.3252 12.5588 39.614C12.6945 39.9028 12.8973 40.155 13.1503 40.3494C13.836 40.8111 14.6554 41.0326 15.4803 40.9794C16.338 41.0062 17.1841 40.7763 17.9103 40.3193C18.5754 39.8648 19.0878 39.22 19.3803 38.4694V36.4694L15.5003 36.5093ZM83.5003 42.4093V29.6194H85.2403V42.4093H83.5003ZM66.0203 42.4093L60.9303 36.0093L58.0403 38.6893V42.4694H56.3003V24.5293H58.0403V36.4594L65.4603 29.6793H67.7903L62.1903 34.9393L68.1903 42.4694L66.0203 42.4093ZM44.3103 42.4093V35.0793C44.3874 34.0165 44.0546 32.9645 43.3803 32.1393C43.0448 31.7948 42.6387 31.527 42.1899 31.3544C41.7411 31.1817 41.2602 31.1084 40.7803 31.1393C40.2144 31.1111 39.6489 31.2036 39.1214 31.4105C38.5938 31.6174 38.1163 31.934 37.7203 32.3394C36.9334 33.2413 36.5282 34.414 36.5903 35.6094V42.3993H34.8303V35.0693C34.9074 34.0065 34.5746 32.9544 33.9003 32.1293C33.5648 31.7847 33.1587 31.517 32.7099 31.3444C32.2611 31.1717 31.7802 31.0983 31.3003 31.1293C30.7344 31.1011 30.1689 31.1936 29.6414 31.4005C29.1138 31.6074 28.6363 31.924 28.2403 32.3293C27.4534 33.2313 27.0482 34.404 27.1103 35.5994V42.3893H25.3803V29.5994H27.0703V31.4894C27.4501 30.9937 27.9221 30.576 28.4603 30.2593C29.374 29.7424 30.4109 29.4832 31.4603 29.5093C32.5175 29.4723 33.5619 29.7509 34.4603 30.3093C35.1273 30.7385 35.6581 31.3491 35.9903 32.0693C36.4161 31.362 37.0105 30.7711 37.7203 30.3494C38.6801 29.7756 39.7824 29.4844 40.9003 29.5093C41.5925 29.4752 42.2842 29.5837 42.9327 29.828C43.5812 30.0723 44.1726 30.4471 44.6703 30.9293C45.6395 32.0287 46.1355 33.4662 46.0503 34.9293V42.3494L44.3103 42.4093ZM84.3703 27.2194C84.0422 27.2237 83.7258 27.0979 83.4903 26.8694C83.372 26.7577 83.2781 26.6227 83.2144 26.473C83.1507 26.3233 83.1187 26.1621 83.1203 25.9994C83.1243 25.7556 83.199 25.5182 83.3352 25.316C83.4714 25.1139 83.6634 24.9555 83.8878 24.8602C84.1122 24.765 84.3594 24.7369 84.5995 24.7793C84.8396 24.8217 85.0622 24.9329 85.2403 25.0994C85.3609 25.2114 85.4562 25.3478 85.52 25.4995C85.5838 25.6512 85.6146 25.8148 85.6103 25.9794C85.6121 26.1412 85.5811 26.3017 85.5192 26.4512C85.4573 26.6007 85.3659 26.7361 85.2503 26.8494C85.1361 26.9733 84.9967 27.0713 84.8415 27.1368C84.6862 27.2024 84.5188 27.234 84.3503 27.2294L84.3703 27.2194Z" fill="#BD9F7C"/>
<path d="M52.1796 37.7407C51.7604 37.4669 51.2857 37.2892 50.7896 37.2207C50.6107 37.2555 50.4448 37.3385 50.3096 37.4607L50.0996 37.6107L50.2196 37.8307C50.3096 38.0107 50.4096 38.1907 50.5296 38.2307C51.3737 38.4802 52.1526 38.9122 52.8111 39.4963C53.4695 40.0805 53.9913 40.8024 54.3396 41.6107V39.8007C53.7279 39.0088 52.9996 38.3143 52.1796 37.7407Z" fill="white"/>
<path d="M42.2996 38.9707V37.9707C42.126 38.1246 41.9905 38.3167 41.9038 38.5319C41.817 38.747 41.7813 38.9794 41.7996 39.2107L42.2996 38.9707Z" fill="white"/>
<path d="M41.7005 39.3794H41.6405C41.5942 39.3709 41.5467 39.3709 41.5005 39.3794C41.3205 39.3794 41.1305 39.4993 40.9505 39.5693H40.8105L40.9405 39.7193C41.0439 39.8677 41.1856 39.9851 41.3505 40.0593H41.4905C41.5199 40.0618 41.5495 40.0577 41.5772 40.0473C41.6049 40.037 41.6299 40.0206 41.6505 39.9994C41.7505 39.8994 41.7405 39.6794 41.7305 39.4894C41.732 39.4505 41.7215 39.4121 41.7005 39.3794Z" fill="white"/>
<path d="M52.0702 31.8503C52.1069 31.7331 52.116 31.6089 52.097 31.4875C52.0779 31.3662 52.0311 31.2508 51.9602 31.1504C51.9091 31.075 51.8407 31.0129 51.7606 30.9694C51.6806 30.9259 51.5913 30.9023 51.5002 30.9004C51.348 30.9182 51.2014 30.9684 51.0702 31.0477C50.9391 31.1271 50.8266 31.2337 50.7402 31.3604C50.8547 31.5284 51.0026 31.6711 51.1746 31.7795C51.3467 31.8879 51.5392 31.9597 51.7402 31.9904C51.8026 31.9969 51.8656 31.9875 51.9233 31.963C51.981 31.9385 52.0316 31.8997 52.0702 31.8503Z" fill="white"/>
<path d="M51.9395 47.1608C51.9395 47.2908 51.8695 47.4308 51.8295 47.5608L52.0195 47.7208L52.2295 47.5908C52.3995 47.4908 52.5695 47.3809 52.5895 47.2609C52.7974 46.2379 52.9377 45.2022 53.0095 44.1608C53.0118 43.6809 52.8802 43.21 52.6295 42.8008C52.1547 41.9799 51.5804 41.2209 50.9195 40.5408C50.0723 39.8905 49.075 39.4641 48.0195 39.3008V40.1608H48.2295L48.7595 40.2408H48.8295C48.9325 40.2538 49.0366 40.2538 49.1395 40.2408H49.3595C49.4601 40.5839 49.6601 40.8896 49.9341 41.1191C50.2082 41.3487 50.5441 41.492 50.8995 41.5309C51.0104 41.5746 51.1111 41.6407 51.1954 41.725C51.2797 41.8093 51.3458 41.91 51.3895 42.0209C51.5595 42.5809 51.7295 43.1408 51.8895 43.6908C52.0495 44.2408 52.2095 44.8208 52.3895 45.3708C52.4662 45.5337 52.4929 45.7156 52.4662 45.8936C52.4395 46.0716 52.3606 46.2377 52.2395 46.3708C52.0924 46.6138 51.9908 46.8814 51.9395 47.1608Z" fill="white"/>
<path d="M47.0687 30.3809H46.7188C46.9588 30.7224 47.1633 31.0876 47.3288 31.4708L49.9588 31.3508C49.5788 30.7408 48.5087 30.3809 47.0687 30.3809Z" fill="white"/>
<path d="M47.6399 50.8802H47.9299C49.202 50.7942 50.3932 50.2254 51.2599 49.2902C51.3735 49.1583 51.4526 49.0002 51.4899 48.8302C51.5121 48.752 51.5388 48.6753 51.5699 48.6002L51.3899 48.4102C51.2497 48.4658 51.106 48.5126 50.9599 48.5502C50.6396 48.6319 50.3353 48.7672 50.0599 48.9502C49.3648 49.4883 48.5089 49.7771 47.6299 49.7703C46.9264 49.7488 46.2294 49.6275 45.5599 49.4102C44.8953 49.2606 44.2953 48.9042 43.846 48.3921C43.3968 47.88 43.1216 47.2386 43.0599 46.5602C42.8797 45.6524 42.8797 44.718 43.0599 43.8102C42.8283 43.6014 42.6421 43.3472 42.5131 43.0634C42.3841 42.7795 42.3149 42.4719 42.3099 42.1602C41.9037 42.7798 41.647 43.4855 41.5602 44.2213C41.4735 44.9572 41.5589 45.7031 41.8099 46.4003C42.1578 47.682 42.9164 48.8141 43.9694 49.6233C45.0225 50.4325 46.3119 50.8741 47.6399 50.8802Z" fill="white"/>
<path d="M48.63 37.7105L48.89 37.7904C48.98 37.7104 49.09 37.6404 49.2 37.5604C49.31 37.4804 49.69 37.2104 49.7 37.0404C49.7102 36.9675 49.7047 36.8932 49.6841 36.8225C49.6634 36.7518 49.6279 36.6864 49.58 36.6305C49.4837 36.5502 49.3717 36.491 49.2511 36.4565C49.1306 36.4221 49.0042 36.4132 48.88 36.4304H48.37C48.242 36.4263 48.1149 36.4539 48 36.5105V37.4104C48.1879 37.5514 48.4021 37.6535 48.63 37.7105Z" fill="white"/>
<path d="M49.0695 33.6596C48.7695 33.6596 48.4595 33.7396 48.0695 33.7896H47.9395V34.0197C48.8586 34.5314 49.888 34.8127 50.9395 34.8396C51.2004 34.8429 51.4612 34.8261 51.7195 34.7896V34.8396C51.7476 35.1658 51.9006 35.4687 52.1465 35.6848C52.3925 35.901 52.7124 36.0137 53.0395 35.9996C53.1895 35.9996 53.3295 36.1596 53.4495 36.2896L53.5395 36.3797L53.7195 36.6096C53.7995 36.7396 53.8995 36.8697 53.9895 36.8797H54.0695H54.2195V35.9696L53.6795 35.5696C53.2341 35.1094 52.6376 34.8254 51.9995 34.7697H51.8195C51.7662 34.7589 51.7157 34.7374 51.671 34.7064C51.6263 34.6755 51.5884 34.6357 51.5595 34.5896C51.3272 34.2566 51.0126 33.9894 50.6463 33.8141C50.28 33.6388 49.8746 33.5615 49.4695 33.5896L49.0695 33.6596Z" fill="white"/>
<path d="M60.0111 39.5V39.6899C60.9647 41.908 61.3017 44.3425 60.9867 46.7362C60.6716 49.1299 59.7162 51.3941 58.2211 53.2899C57.0061 54.919 55.4282 56.2426 53.6125 57.1556C51.7969 58.0687 49.7934 58.546 47.7611 58.5499C46.7536 58.5408 45.7492 58.4371 44.7611 58.24C39.2111 57.12 35.5712 53.76 34.2312 48.51C33.8448 47.0089 33.6863 45.4581 33.7611 43.9099C33.4302 43.6503 33.1776 43.3042 33.0312 42.9099C32.5651 46.018 33.0752 49.1942 34.4911 52C35.5515 54.0467 37.12 55.7866 39.0462 57.0526C40.9725 58.3187 43.1918 59.0684 45.4911 59.23C46.185 59.3087 46.8828 59.3487 47.5811 59.35C50.2814 59.3915 52.9424 58.7003 55.2812 57.35C57.1856 56.2644 58.7863 54.7173 59.9362 52.851C61.086 50.9846 61.748 48.8591 61.8611 46.6699C62.1376 44.079 61.7772 41.4598 60.8112 39.0399L60.7111 38.9199L60.0111 39.5Z" fill="white"/>
<path d="M64.1798 44.0195L63.0098 51.6794C63.9782 50.6835 64.6114 49.4101 64.8212 48.0369C65.0309 46.6636 64.8067 45.2592 64.1798 44.0195Z" fill="white"/>
<path d="M33.4801 55.8705C35.3689 58.3141 37.8701 60.215 40.7301 61.3805C42.8018 62.3282 45.052 62.8225 47.3301 62.8304C49.9645 62.7693 52.5544 62.1379 54.9212 60.9795C57.2881 59.8211 59.3757 58.1634 61.0401 56.1205C61.9726 55.0291 62.5238 53.6634 62.6101 52.2305L61.9101 53.1005C61.3701 53.7705 60.8502 54.4105 60.3102 55.0305C57.5402 58.1905 54.7701 60.0305 51.5901 60.8505C50.136 61.2242 48.6416 61.419 47.1402 61.4304C43.3299 61.419 39.6595 59.9936 36.8401 57.4304C35.8603 56.5439 34.9383 55.5953 34.0801 54.5905L32.9101 53.2904C32.7901 53.1704 32.6801 53.0305 32.5401 52.8705C32.4896 52.7957 32.4327 52.7254 32.3701 52.6604C32.3465 53.8284 32.7401 54.9666 33.4801 55.8705Z" fill="white"/>
<path d="M27.9488 51.2104C29.17 54.8556 31.2721 58.1429 34.0687 60.7805C36.9675 63.3248 40.5761 64.9196 44.4088 65.3505C45.4403 65.4808 46.479 65.5476 47.5188 65.5504C51.977 65.5795 56.3267 64.1774 59.9287 61.5504C62.9287 59.4104 65.0588 56.2704 66.5187 51.9404C66.5667 51.6929 66.5461 51.437 66.4588 51.2004C66.4588 51.0904 66.4588 50.9805 66.3888 50.8705H66.2088L65.6587 52.0504C65.2587 52.9204 64.8487 53.8204 64.3687 54.6604C63.0048 57.2709 61.0093 59.4987 58.564 61.1405C56.1187 62.7824 53.3014 63.7862 50.3688 64.0604C49.144 64.2051 47.9121 64.2818 46.6788 64.2904C44.2108 64.3378 41.7596 63.8748 39.4788 62.9304C36.7508 61.8056 34.3369 60.0347 32.4451 57.7701C30.5533 55.5055 29.2403 52.8151 28.6188 49.9304L28.5488 49.6505L28.4888 49.3605C28.4888 49.3605 28.4888 49.2805 28.4388 49.2305C28.1604 49.4679 27.9634 49.7866 27.8755 50.1417C27.7876 50.4969 27.8133 50.8706 27.9488 51.2104Z" fill="white"/>
<path d="M42.3003 35.8199V35.08C42.3059 34.97 42.3059 34.8599 42.3003 34.75C41.5696 35.0713 40.8756 35.4702 40.2303 35.9399C39.6204 36.4038 39.0637 36.9338 38.5703 37.52V39.22C38.8843 38.7311 39.2389 38.2694 39.6303 37.84C40.3997 37.0205 41.3025 36.3375 42.3003 35.8199Z" fill="white"/>
<path d="M29.9912 47.8302C30.2912 49.2502 30.6912 50.6502 30.9912 51.7202C31.0526 51.8253 31.1364 51.9157 31.2366 51.9849C31.3369 52.054 31.4511 52.1002 31.5712 52.1202C31.7512 52.0702 31.9412 51.8402 32.1112 51.4602C32.1612 51.3602 32.1112 51.1703 32.0112 51.0103V50.9502C31.1521 49.0695 30.7347 47.0171 30.7912 44.9502C30.7975 44.9071 30.7975 44.8633 30.7912 44.8202V44.7402C30.4452 45.1684 30.1948 45.6657 30.0568 46.1986C29.9188 46.7316 29.8965 47.2879 29.9912 47.8302Z" fill="white"/>
<path d="M54.861 43.5996C55.0843 44.9753 54.9443 46.3854 54.455 47.6904C53.9656 48.9954 53.1438 50.1499 52.071 51.0396C51.862 51.222 51.6772 51.4303 51.521 51.6595L51.271 51.9796L50.351 52.1096C49.661 52.2096 48.941 52.3096 48.231 52.3496H47.641C46.9424 52.3453 46.2447 52.3019 45.551 52.2196C45.011 52.2196 44.481 52.0696 43.911 51.9596L43.071 51.8096C43.141 50.7496 42.391 50.3997 41.601 50.0197C41.2489 49.8687 40.9137 49.6809 40.601 49.4596C40.5811 50.0765 40.7831 50.6801 41.1702 51.1608C41.5574 51.6415 42.104 51.9675 42.711 52.0796C43.0157 52.1687 43.2961 52.3259 43.531 52.5396C44.6816 53.4076 46.0898 53.8654 47.531 53.8396C48.4947 53.8632 49.4484 53.6394 50.301 53.1896C50.4254 53.1178 50.5427 53.034 50.651 52.9396C50.771 52.8496 50.891 52.7596 51.021 52.6796C51.151 52.5996 51.581 52.3997 51.851 52.2697L52.201 52.0996L52.531 51.9596C52.7603 51.8988 52.9725 51.7859 53.151 51.6296C54.1314 50.6949 54.905 49.5648 55.4217 48.3126C55.9384 47.0604 56.1869 45.7138 56.151 44.3596C55.6474 44.2595 55.1926 43.9915 54.861 43.5996Z" fill="white"/>
<path d="M39.3405 33.741C39.5705 33.551 39.8105 33.3809 40.0505 33.2109C39.7015 33.2698 39.3817 33.442 39.1405 33.7009C39.0057 33.8424 38.8943 34.0044 38.8105 34.1809L39.3405 33.741Z" fill="white"/>
<path d="M40.5893 40.8191L40.6792 40.5391C40.1754 40.7646 39.7436 41.1249 39.4313 41.5801C39.119 42.0353 38.9383 42.5679 38.9092 43.1191C38.7946 44.2288 38.7778 45.3465 38.8592 46.4591C38.9555 47.0836 39.1693 47.6842 39.4892 48.2291V48.3291C39.6064 48.4601 39.7594 48.554 39.9292 48.5991L40.1492 48.6991C40.1798 48.6132 40.2166 48.5297 40.2592 48.4491C40.3794 48.2755 40.4455 48.0702 40.4493 47.8591C40.383 47.5502 40.2858 47.2486 40.1592 46.9591C40.0529 46.7153 39.9627 46.4648 39.8893 46.2091C39.5965 44.5858 39.7628 42.9131 40.3693 41.3792C40.4593 41.1992 40.5193 41.0291 40.5893 40.8191Z" fill="white"/>
<path d="M64.96 93.8694C64.5066 94.3068 63.9708 94.6496 63.3836 94.8779C62.7965 95.1063 62.1698 95.2155 61.54 95.1993C61.2054 95.2014 60.8711 95.178 60.54 95.1294H60.11H59.51H59.1H58.91C58.837 95.1392 58.763 95.1392 58.69 95.1294H58.58C58.1936 95.0165 57.7925 94.9625 57.39 94.9694C56.9686 94.9745 56.5479 95.0045 56.13 95.0593C55.72 95.0593 55.29 95.1494 54.86 95.1494C54.585 95.1527 54.3104 95.1292 54.04 95.0793C53.8807 95.0347 53.7313 94.96 53.6 94.8594L53.41 94.7294H53.35H53.4L53.54 94.5894C53.6459 94.4782 53.7596 94.3747 53.88 94.2794L54.18 94.1094C54.3409 94.0526 54.4829 93.9522 54.59 93.8193C54.807 93.5217 55.0818 93.2709 55.398 93.0819C55.7141 92.8929 56.0651 92.7696 56.43 92.7194C56.6367 92.6511 56.8524 92.614 57.07 92.6094C57.1559 92.6029 57.2422 92.6147 57.3232 92.644C57.4042 92.6733 57.4781 92.7195 57.54 92.7794C57.7 92.9594 57.74 93.2694 57.68 93.7794C57.6741 93.8793 57.6741 93.9794 57.68 94.0793C57.68 94.1293 57.68 94.1794 57.68 94.2394L58.22 93.7794C59.1241 93.2026 59.8238 92.3559 60.22 91.3594L59.63 91.6294C59.0579 91.9109 58.4623 92.1417 57.85 92.3193H57.58C57.343 92.3121 57.1078 92.2752 56.88 92.2094C56.6931 92.1583 56.5025 92.1215 56.31 92.0994C55.68 92.0494 54.95 91.9794 54.23 91.9794H54.07C54.01 91.9794 53.92 92.1693 53.84 92.3193L53.72 92.5493L54.72 92.8293L54.64 92.8894C54.3464 93.1414 54.0691 93.4119 53.81 93.6993C53.3019 94.3713 52.578 94.8479 51.76 95.0493C51.486 95.0984 51.2084 95.1252 50.93 95.1294C50.4091 95.1266 49.8946 95.0141 49.42 94.7993C49.2038 94.7138 48.9725 94.6729 48.74 94.6793C48.2623 94.6973 47.7887 94.7745 47.33 94.9093C47.25 94.9093 47.21 95.3594 47.19 95.6194C47.17 95.8794 47.19 95.9293 47.19 96.0593L47.47 96.1593L47.4 96.2194L46.93 96.5294C46.6056 96.7357 46.2949 96.9627 46 97.2094H46.9H47.07L47.2 97.0593C47.4362 96.7581 47.6971 96.4771 47.98 96.2194C48.3541 95.9174 48.8314 95.7738 49.31 95.8193H49.75H50.22H50.46C50.5252 95.8112 50.5913 95.8177 50.6536 95.8385C50.7159 95.8593 50.7728 95.8937 50.82 95.9393C50.91 96.0593 50.89 96.2394 50.82 96.5094H50.87C51.4548 96.4772 52.0297 96.3453 52.57 96.1194C53.0975 95.8987 53.659 95.7702 54.23 95.7394C54.4988 95.7378 54.7659 95.7818 55.02 95.8694H55.08C54.7939 96.3123 54.4395 96.7071 54.03 97.0393L54.87 96.9293L55.41 96.8594C55.8464 96.4391 56.4158 96.1845 57.02 96.1394C57.3199 96.1449 57.6143 96.2202 57.88 96.3594H57.94V96.4093C60.5202 95.9503 63.0586 95.2814 65.53 94.4093C65.6163 94.0648 65.7369 93.7298 65.89 93.4093L65.67 93.4694C65.4026 93.5388 65.1579 93.6766 64.96 93.8694Z" fill="white"/>
<path d="M68.3598 93.4504L68.5998 93.3304H68.6898C68.567 93.3267 68.4457 93.3579 68.3398 93.4203L68.3598 93.4504Z" fill="white"/>
<path d="M40.8205 26.4902C41.8205 26.2702 42.8205 26.0502 43.8205 25.8702C44.4505 25.7602 45.0905 25.7002 45.7105 25.6302C46.1305 25.6302 46.5705 25.5502 47.0005 25.4902C47.1763 25.4482 47.3472 25.3878 47.5105 25.3102L47.6905 25.2202L47.5805 24.9802C47.4905 24.7702 47.3905 24.5602 47.2505 24.5002C46.7655 24.3297 46.2545 24.2451 45.7405 24.2502C43.8629 24.2801 42.0335 24.8495 40.4705 25.8902C40.2356 26.0547 40.0178 26.2422 39.8205 26.4502L39.5605 26.6902V26.7602L40.8205 26.4902Z" fill="white"/>
<path d="M47.2806 47.7097C48.0156 47.6677 48.7122 47.3679 49.2481 46.8632C49.784 46.3584 50.1248 45.6809 50.2106 44.9497C50.1857 44.3121 49.913 43.7094 49.4506 43.2698C49.0381 42.8667 48.5282 42.5772 47.9706 42.4297C47.9458 42.659 47.8815 42.8823 47.7806 43.0897C47.9806 43.1438 48.1664 43.2406 48.3252 43.3735C48.4841 43.5065 48.6122 43.6724 48.7006 43.8597L48.7506 43.9497L47.2506 43.7997C46.8375 44.1763 46.2996 44.3866 45.7406 44.3898H44.7406C44.6806 44.608 44.6504 44.8333 44.6506 45.0597C44.6466 45.4071 44.7118 45.7519 44.8423 46.0739C44.9728 46.3959 45.166 46.6887 45.4108 46.9353C45.6555 47.1819 45.9469 47.3774 46.2679 47.5104C46.5889 47.6433 46.9331 47.7111 47.2806 47.7097ZM46.1306 45.5797V45.5098H46.2006C46.6142 45.7914 47.1003 45.9476 47.6006 45.9597C47.9547 45.9602 48.3017 45.8596 48.6006 45.6697L48.6806 45.5997V45.7097C48.6669 45.8782 48.6195 46.0422 48.5412 46.192C48.4628 46.3418 48.3551 46.4744 48.2245 46.5817C48.0938 46.689 47.9429 46.7689 47.7808 46.8167C47.6186 46.8644 47.4485 46.8791 47.2806 46.8597C47.1111 46.8704 46.9414 46.8447 46.7827 46.7843C46.624 46.7239 46.4801 46.6304 46.3606 46.5098C46.1761 46.2368 46.0946 45.9072 46.1306 45.5797Z" fill="white"/>
<path d="M25.6196 90.4994L25.1996 90.7494L25.0996 90.8193L25.2996 90.9393L25.5696 91.0994L25.9596 90.4594L25.8296 90.3594L25.6196 90.4994Z" fill="white"/>
<path d="M52.0702 92.0703C51.7902 92.0703 51.5102 92.2803 51.2402 92.7003H52.9302C52.6702 92.2803 52.3802 92.0703 52.0702 92.0703Z" fill="white"/>
<path d="M56.9103 86.59L56.8203 86.7L56.9803 86.84C57.0946 86.9675 57.2443 87.058 57.4103 87.1C57.8203 87.1 58.2703 86.4999 58.3203 85.9199L57.9903 86.02C57.7109 86.0985 57.437 86.1953 57.1703 86.3099C57.0674 86.3867 56.9793 86.4817 56.9103 86.59Z" fill="white"/>
<path d="M82.3095 83.2605L82.0795 83.1704C81.8931 83.0788 81.6944 83.0148 81.4895 82.9805H81.2795C81.0595 82.9805 80.8995 82.9805 80.8595 83.0905C80.8147 83.1495 80.7841 83.2181 80.7702 83.291C80.7563 83.3639 80.7595 83.4391 80.7795 83.5105C80.8232 83.5952 80.8854 83.6688 80.9616 83.726C81.0378 83.7831 81.126 83.8223 81.2195 83.8405L81.9795 84.0704L82.3595 84.1804L82.6495 83.9204C82.7495 83.8304 82.8695 83.7305 82.9695 83.6205L82.8595 83.5604C82.6842 83.4464 82.5003 83.3462 82.3095 83.2605Z" fill="white"/>
<path d="M79.1386 82.2891H79.0686C78.9682 82.3026 78.8722 82.3383 78.7874 82.3937C78.7026 82.449 78.6313 82.5227 78.5786 82.6091C78.5676 82.6999 78.5772 82.7919 78.6067 82.8784C78.6361 82.965 78.6846 83.0439 78.7486 83.1091C78.991 83.3319 79.3094 83.4535 79.6386 83.4491C79.9254 83.4412 80.209 83.3872 80.4786 83.2891C80.1186 82.7391 79.7686 82.2891 79.1386 82.2891Z" fill="white"/>
<path d="M78.411 85.7806C77.8412 85.6408 77.2802 85.4671 76.731 85.2606C76.393 85.1115 76.105 84.8685 75.901 84.5605C75.4907 84.6542 75.0718 84.7045 74.651 84.7106C73.9788 84.7207 73.3218 84.51 72.781 84.1106H72.731H72.791C73.0571 83.9558 73.3641 83.8859 73.671 83.9105H74.071C74.2922 83.9416 74.5178 83.9093 74.7214 83.8173C74.9249 83.7252 75.0982 83.5773 75.221 83.3906C74.6898 83.1069 74.0929 82.9688 73.491 82.9906C73.0729 82.9953 72.6555 83.0254 72.241 83.0806C71.821 83.0806 71.401 83.1705 70.981 83.1705C70.7746 83.1861 70.5674 83.1861 70.361 83.1705H70.301V83.1106C70.771 82.1106 71.351 81.6705 72.121 81.6705C72.5309 81.6865 72.9343 81.778 73.311 81.9406C74.8268 82.5161 76.4401 82.7912 78.061 82.7506L78.121 82.5806L77.221 82.2006C76.471 81.8806 75.691 81.5606 74.951 81.2006C74.5704 80.9954 74.2147 80.7471 73.891 80.4606L73.391 80.0706H73.341C73.4981 79.8889 73.696 79.7471 73.9185 79.6567C74.141 79.5664 74.3817 79.5299 74.621 79.5505H75.301C75.4993 79.5536 75.6973 79.5335 75.891 79.4906L74.891 78.9606C74.9218 78.8876 74.9586 78.8174 75.001 78.7506C75.171 78.4906 75.231 78.2906 75.171 78.1406C75.111 77.9906 74.931 77.8906 74.641 77.8406L73.381 77.5806L72.601 77.4205V77.3506L72.831 77.0405C72.9978 76.8475 73.142 76.6362 73.261 76.4105C73.3171 76.2605 73.3409 76.1004 73.331 75.9406V75.7706H73.171C72.9829 75.7909 72.796 75.8209 72.611 75.8606C72.611 75.8606 72.501 75.9606 72.461 76.0306C72.1738 76.5467 71.753 76.9758 71.2427 77.2732C70.7325 77.5706 70.1516 77.7251 69.561 77.7206H69.171V77.9006L70.171 78.3306L70.111 78.7106C70.2238 78.7258 70.3382 78.7258 70.451 78.7106C70.7202 78.6994 70.9864 78.6488 71.241 78.5605C71.5071 78.4769 71.7825 78.4265 72.061 78.4105C72.2563 78.4029 72.4504 78.4447 72.6252 78.5321C72.8 78.6195 72.9499 78.7497 73.061 78.9105C72.8077 79.3656 72.4403 79.7469 71.995 80.017C71.5496 80.287 71.0416 80.4364 70.521 80.4506C70.2676 80.4518 70.0152 80.4182 69.771 80.3506C69.5969 80.2808 69.4375 80.179 69.301 80.0505L69.221 79.9806C69.1079 79.8755 68.9643 79.8089 68.811 79.7905C68.681 79.7905 68.571 79.8806 68.451 80.0706C68.3978 80.154 68.3258 80.2237 68.2406 80.274C68.1555 80.3244 68.0597 80.3541 67.961 80.3606C67.661 80.3606 67.341 80.3606 66.961 80.3606H65.641V80.2806C66.3179 79.2411 67.2289 78.3746 68.301 77.7506L68.511 77.6106C68.14 77.5294 67.7607 77.4925 67.381 77.5006C67.091 77.5006 66.791 77.5006 66.511 77.5006H65.651C64.9247 77.5368 64.204 77.3557 63.581 76.9806C63.581 77.7206 63.861 78.0705 64.421 78.1605C64.7855 78.2141 65.1528 78.2476 65.521 78.2606H66.011H66.071C65.831 79.5706 64.721 80.2606 62.761 80.2606C62.2627 80.2592 61.765 80.2257 61.271 80.1605H61.191L63.001 77.8105C62.878 77.6682 62.7237 77.5563 62.5502 77.4834C62.3767 77.4105 62.1888 77.3788 62.001 77.3906H61.541C61.3778 77.4006 61.2142 77.4006 61.051 77.3906C60.8914 77.4075 60.7305 77.4075 60.571 77.3906H60.511V77.3306C60.8248 76.6795 61.3058 76.1236 61.9049 75.7195C62.5041 75.3154 63.1998 75.0777 63.921 75.0306C64.531 75.0306 65.171 74.9706 65.921 74.9706H67.491H69.101L69.221 75.2706L68.591 76.3406L68.871 76.1906C69.9519 75.4791 71.1921 75.0462 72.481 74.9305H72.991L72.901 74.1406C72.8389 73.439 72.7387 72.7413 72.601 72.0505C72.551 71.8005 72.181 71.5406 71.841 71.3906C71.7322 71.3674 71.6198 71.3674 71.511 71.3906H71.211H70.741H70.631L70.701 71.3105L71.001 70.9706C71.1353 70.7965 71.2823 70.6328 71.441 70.4806C71.6957 70.3021 71.8852 70.0453 71.9808 69.7494C72.0765 69.4534 72.073 69.1344 71.971 68.8406C71.731 68.1806 71.261 68.0505 70.621 68.0505H70.341L70.631 67.7306C70.781 67.5506 70.941 67.3806 71.101 67.2006C71.3028 67.0341 71.4457 66.8072 71.5088 66.5533C71.5718 66.2995 71.5515 66.032 71.451 65.7905C71.3875 65.6311 71.2718 65.4979 71.1229 65.4126C70.974 65.3273 70.8007 65.2948 70.631 65.3206H70.231C70.0407 65.3124 69.8524 65.2788 69.671 65.2206L69.431 65.1506H69.361V65.0906C69.408 65.0195 69.4514 64.9461 69.491 64.8706C69.5798 64.694 69.6907 64.5294 69.821 64.3806C69.9506 64.2497 70.0875 64.1261 70.231 64.0106C70.4164 63.8751 70.5843 63.7172 70.731 63.5405C70.901 63.3305 71.051 62.9405 70.971 62.8005C70.8885 62.6639 70.7782 62.5461 70.6473 62.4548C70.5164 62.3635 70.3677 62.3008 70.211 62.2706H70.021C69.7716 62.2793 69.5237 62.3128 69.281 62.3706L68.871 62.4406L68.691 62.2306L68.921 61.9305C69.101 61.7105 69.281 61.4806 69.481 61.2706C69.5674 61.1829 69.6611 61.1027 69.761 61.0306C69.9008 60.9439 70.0202 60.8278 70.111 60.6906C70.2712 60.4233 70.3347 60.1091 70.291 59.8005C70.2278 59.6723 70.135 59.561 70.0202 59.4758C69.9054 59.3906 69.772 59.3339 69.631 59.3105H69.321C68.801 59.3105 68.321 59.3106 67.721 59.3806L66.981 59.4305L67.361 60.1906C67.361 60.3406 67.271 60.4806 67.231 60.6206C67.1307 60.8987 67.0472 61.1825 66.981 61.4706C66.821 62.2706 66.571 62.5306 65.981 62.5306H65.611C65.401 62.5306 65.191 62.5306 64.981 62.5306C64.7142 62.5136 64.4482 62.5733 64.2143 62.7026C63.9804 62.832 63.7884 63.0256 63.661 63.2606L64.661 63.5505L64.881 63.8005H64.821H64.681L64.421 63.9006C60.3215 66.2338 55.957 68.0668 51.421 69.3606C49.8673 69.7899 48.2629 70.0085 46.651 70.0106C43.4724 69.9561 40.3448 69.2014 37.491 67.8005C35.881 67.0505 34.311 66.1306 32.781 65.2506C32.061 64.8306 31.321 64.3906 30.581 63.9806C30.321 63.8406 30.061 63.7206 29.791 63.5906L29.441 63.4305C29.343 63.6512 29.3183 63.8976 29.3705 64.1333C29.4227 64.369 29.549 64.5819 29.731 64.7406C29.8166 64.8464 29.8967 64.9565 29.971 65.0706V65.1306L29.121 65.2406L27.011 65.5006H26.891C26.7311 65.4983 26.5726 65.4713 26.421 65.4205C26.2583 65.3669 26.12 65.257 26.031 65.1106C26.031 65.0106 26.091 64.8906 26.181 64.7706L26.231 64.7006C26.2835 64.6407 26.3483 64.5929 26.421 64.5605C26.721 64.4105 27.061 64.2406 27.131 63.9706C27.1443 63.862 27.1352 63.7519 27.1042 63.647C27.0732 63.5421 27.0211 63.4446 26.951 63.3606C26.772 63.0961 26.5365 62.8746 26.2615 62.712C25.9866 62.5495 25.679 62.4499 25.361 62.4205C25.1982 62.4178 25.0383 62.463 24.901 62.5505C24.8193 62.6208 24.7545 62.7085 24.7112 62.8071C24.668 62.9058 24.6474 63.0129 24.651 63.1206C24.651 63.1206 24.811 63.2806 25.181 63.3706L25.481 63.4406C25.7182 63.4842 25.9497 63.5548 26.171 63.6506H26.231H26.181C25.901 63.9306 25.591 64.1906 25.291 64.4506C24.1461 65.2139 23.3262 66.376 22.991 67.7106L23.661 67.1605C24.2245 66.519 25.0037 66.1063 25.851 66.0006C26.2893 66.0138 26.7152 66.1489 27.081 66.3906H27.141H27.091L26.621 66.8906C26.271 67.2606 25.941 67.6106 25.621 67.8906C25.2717 68.2188 24.8103 68.4013 24.331 68.4006C24.0797 68.3975 23.8304 68.357 23.591 68.2806C23.475 68.2632 23.357 68.2632 23.241 68.2806H22.911H22.621L22.561 68.6106L22.801 68.6906C22.987 68.7773 23.1866 68.8315 23.391 68.8506C23.731 68.8506 23.941 68.9306 24.011 69.0806C24.081 69.2306 24.011 69.3806 23.851 69.6006C23.5537 69.9502 23.2183 70.2654 22.851 70.5405L22.541 70.7905C22.2682 70.9666 22.0559 71.222 21.9325 71.5223C21.8092 71.8227 21.7807 72.1536 21.851 72.4706C22.5687 71.8594 23.4889 71.5384 24.431 71.5706C24.8363 71.5735 25.2407 71.6069 25.641 71.6705H26.021C26.49 71.6545 26.9494 71.533 27.365 71.3148C27.7805 71.0967 28.1415 70.7875 28.421 70.4105C28.6328 70.0606 28.9244 69.7658 29.272 69.5503C29.6197 69.3348 30.0134 69.2046 30.421 69.1705C30.7911 69.1788 31.1555 69.2639 31.491 69.4205C31.1651 69.964 30.7075 70.4167 30.1604 70.7366C29.6133 71.0564 28.9945 71.2332 28.361 71.2506C28.961 72.0206 28.911 72.2506 28.131 72.8906C27.3913 73.5991 26.4235 74.0209 25.401 74.0806C24.9573 74.0777 24.5186 73.9858 24.111 73.8105C24.0219 73.7925 23.9301 73.7925 23.841 73.8105H23.571H23.481H23.151C22.7478 73.8302 22.3466 73.8804 21.951 73.9606C21.7568 74.0288 21.5795 74.138 21.431 74.2806L21.241 74.4305L22.011 75.1206H21.911C21.131 75.2506 20.911 75.9405 20.631 76.6805H20.701C21.0021 76.6846 21.2961 76.5887 21.5368 76.4077C21.7775 76.2267 21.9513 75.971 22.031 75.6805C22.1037 75.5196 22.2087 75.3754 22.3394 75.2567C22.4701 75.138 22.6238 75.0475 22.791 74.9906C23.7303 74.8316 24.679 74.7347 25.631 74.7006H27.241H29.801L29.011 76.3506L29.081 76.4506L29.621 76.0806L30.851 75.2506C31.2186 74.9621 31.6647 74.7913 32.131 74.7606C32.5941 74.7921 33.0368 74.9629 33.401 75.2506C33.211 75.4106 33.041 75.5906 32.861 75.7506C32.4894 76.1408 32.0653 76.4773 31.601 76.7506C31.1322 76.9569 30.6317 77.082 30.121 77.1206L29.371 77.2506L30.881 78.2506C31.1805 78.1997 31.4749 78.1228 31.761 78.0206C32.2661 77.84 32.7952 77.7355 33.331 77.7106C33.6523 77.7068 33.9714 77.7645 34.271 77.8806H34.331C33.9665 78.4463 33.4836 78.9261 32.9155 79.287C32.3475 79.6478 31.708 79.881 31.041 79.9706H30.961C30.6279 79.9281 30.3094 79.8083 30.031 79.6206C29.871 79.5306 29.691 79.4306 29.511 79.3506C28.9913 79.7639 28.3323 79.9609 27.671 79.9006H27.221C27.051 79.9006 26.681 79.7806 26.641 79.6206C26.627 79.5012 26.6395 79.3802 26.6775 79.2661C26.7155 79.1521 26.7782 79.0477 26.861 78.9606C27.311 78.5206 27.771 78.1106 28.311 77.6406L28.871 77.1406H28.161C27.551 77.1406 26.981 77.1405 26.401 77.0505C25.821 76.9605 25.401 76.9506 24.871 76.8806L24.201 76.7905C24.1598 76.8978 24.1437 77.0131 24.1541 77.1276C24.1645 77.242 24.2011 77.3525 24.261 77.4506C24.3613 77.5748 24.4899 77.6733 24.636 77.7377C24.7822 77.802 24.9416 77.8304 25.101 77.8206H26.891V77.8906C26.5943 78.5553 26.0977 79.1109 25.4703 79.4801C24.843 79.8493 24.1162 80.0138 23.391 79.9506C22.8394 79.9421 22.2899 79.8785 21.751 79.7606H21.671L23.731 77.2206H20.611C20.731 77.5706 21.021 77.6906 21.381 77.8506C21.6847 77.9628 21.9709 78.1176 22.231 78.3105H22.281H22.221L21.861 78.5505C21.591 78.7405 21.301 78.9306 21.031 79.1406C20.7842 79.3263 20.5711 79.5528 20.401 79.8105C20.3415 79.9013 20.305 80.0052 20.2946 80.1132C20.2841 80.2212 20.3 80.3301 20.341 80.4305C20.4029 80.5224 20.4862 80.5977 20.5838 80.65C20.6814 80.7023 20.7903 80.73 20.901 80.7306H21.161C21.4352 80.7263 21.709 80.7062 21.981 80.6705C22.1961 80.6364 22.4132 80.6164 22.631 80.6106C23.201 80.6106 23.311 80.8705 23.561 81.6605L24.071 81.3606C24.481 81.1306 24.911 80.8906 25.311 80.6106C25.5377 80.4377 25.8159 80.3461 26.101 80.3506C26.4016 80.3671 26.6981 80.4278 26.981 80.5306L27.201 80.5906C27.457 80.6704 27.7229 80.7141 27.991 80.7206H28.191L28.551 80.6605C28.9406 80.5899 29.3351 80.5498 29.731 80.5405C30.1779 80.534 30.621 80.6226 31.031 80.8005H31.101H31.041L30.511 81.2806C30.141 81.6206 29.791 81.9406 29.421 82.2806C28.425 82.9806 27.5813 83.8752 26.941 84.9105C26.6791 85.3378 26.2583 85.6436 25.771 85.7606C25.1596 85.865 24.5411 85.9218 23.921 85.9305H23.041H22.951V85.8606C23.2261 85.3517 23.6041 84.9055 24.061 84.5505C24.3832 84.3374 24.6543 84.0557 24.8548 83.7255C25.0554 83.3953 25.1804 83.0248 25.221 82.6406H24.691H24.341C24.031 82.6406 23.721 82.5506 23.421 82.4906L22.651 82.3706C22.4613 82.3564 22.2707 82.3564 22.081 82.3706C21.43 82.3497 20.7937 82.5665 20.291 82.9806C20.0497 83.2005 19.8841 83.491 19.8176 83.8107C19.7512 84.1303 19.7874 84.4628 19.921 84.7606C20.7094 84.2805 21.5758 83.942 22.481 83.7606C22.7707 83.7826 23.0482 83.8866 23.281 84.0605C22.531 85.0605 21.821 85.9406 20.661 85.9406C20.4102 85.9418 20.1606 85.9047 19.921 85.8306C19.9088 85.8852 19.8921 85.9388 19.871 85.9906C19.878 86.0134 19.878 86.0377 19.871 86.0605C20.03 86.1831 20.1484 86.3508 20.2109 86.5416C20.2733 86.7325 20.2768 86.9377 20.221 87.1306L20.911 87.6406C21.2282 87.2408 21.633 86.9192 22.0942 86.7007C22.5554 86.4822 23.0607 86.3728 23.571 86.3806C23.8693 86.3837 24.1669 86.4104 24.461 86.4606H24.521C24.1648 87.2543 23.6104 87.9431 22.911 88.4606L22.531 88.7905L23.051 89.1106L23.481 89.3606C24.1807 88.8875 24.7819 88.2829 25.251 87.5806C25.4345 87.239 25.7011 86.9491 26.0262 86.7377C26.3513 86.5262 26.7243 86.4 27.111 86.3706C27.6664 86.3999 28.1969 86.6106 28.621 86.9706C28.296 87.3114 27.9412 87.6227 27.561 87.9006C27.0556 88.2535 26.6042 88.6778 26.221 89.1605L29.361 89.3806V89.4506C29.1238 89.9164 28.7881 90.3249 28.3771 90.6478C27.9661 90.9708 27.4897 91.2003 26.981 91.3206C27.431 91.5606 27.901 91.7806 28.351 91.9906L28.791 92.1906H29.071C29.5577 92.1938 30.0418 92.2611 30.511 92.3906H30.581V92.4506L30.331 92.7106L30.201 92.8406L30.961 93.1605L31.831 92.1605H34.631V92.2306C34.275 92.9209 33.7569 93.5146 33.121 93.9606L34.201 94.3406C35.201 92.9706 35.881 92.3406 36.711 92.3406C37.1346 92.3593 37.547 92.483 37.911 92.7006H37.961L36.561 94.4105H34.171C36.0168 95.0365 37.9006 95.5442 39.811 95.9305C39.9531 95.7401 40.1392 95.587 40.3534 95.4843C40.5676 95.3815 40.8036 95.3322 41.041 95.3406C41.5334 95.365 42.0176 95.4767 42.471 95.6705H42.531C42.4941 95.7229 42.454 95.773 42.411 95.8206C42.3261 95.9128 42.2613 96.0219 42.221 96.1406V96.2206L42.601 96.2905L43.311 96.3906C43.3923 96.2675 43.4825 96.1504 43.581 96.0405C44.2502 95.4601 45.0879 95.1096 45.971 95.0405H46.151L46.431 94.9806H46.521C46.191 93.9106 46.181 93.2506 46.521 92.8306C46.861 92.4106 47.521 92.2106 48.691 92.2106H50.011C50.1068 92.2017 50.1998 92.1732 50.2841 92.1267C50.3685 92.0803 50.4423 92.0168 50.501 91.9406L48.941 91.5006C49.2799 90.8108 49.7894 90.2192 50.4212 89.7816C51.053 89.3441 51.7861 89.0752 52.551 89.0006C53.1775 88.9993 53.7812 89.235 54.241 89.6605L54.661 89.5106C54.9798 89.3754 55.3167 89.2878 55.661 89.2506H55.801C56.0911 89.2604 56.3793 89.3006 56.661 89.3706L57.041 89.4406C57.0894 89.3678 57.1215 89.2855 57.1353 89.1992C57.1491 89.113 57.1442 89.0248 57.121 88.9406C57.061 88.7906 56.881 88.7305 56.691 88.6705C56.5098 88.6264 56.346 88.529 56.221 88.3906C56.3201 88.2144 56.4659 88.0689 56.6423 87.9701C56.8187 87.8713 57.0189 87.823 57.221 87.8306C57.3907 87.8158 57.5613 87.8158 57.731 87.8306C57.8942 87.8406 58.0578 87.8406 58.221 87.8306C58.3502 87.8326 58.4787 87.8124 58.601 87.7706L58.741 88.0405L58.471 88.2406C58.2573 88.3702 58.0651 88.5321 57.901 88.7206C57.7059 88.9923 57.5822 89.3087 57.541 89.6406C58.0566 89.3824 58.6244 89.2456 59.201 89.2406C59.9752 89.2606 60.7292 89.4923 61.381 89.9105C61.4631 89.9309 61.5489 89.9309 61.631 89.9105C61.8331 89.9191 62.0317 89.8553 62.191 89.7306C62.2949 89.5868 62.4317 89.4699 62.5901 89.3899C62.7484 89.3099 62.9236 89.269 63.101 89.2706C63.3155 89.2733 63.5283 89.3104 63.731 89.3806H63.931H64.091C63.751 88.3806 64.391 87.8606 65.001 87.3806L65.221 87.2006C65.5653 86.8878 65.8499 86.5151 66.061 86.1006C66.061 86.0306 65.861 85.6606 65.811 85.6306H65.641C65.3098 85.6605 64.9974 85.7974 64.751 86.0206C64.5455 86.3446 64.2575 86.6079 63.9166 86.7837C63.5756 86.9594 63.194 87.0412 62.811 87.0206C62.5847 87.0387 62.3573 87.0387 62.131 87.0206H61.131L61.201 86.9406L61.821 86.2306C62.241 85.7506 62.631 85.3006 63.041 84.8706C63.451 84.4406 63.841 84.0406 64.311 83.5706L64.931 82.9606L64.491 82.8906L63.701 82.7506L62.841 82.5306L62.111 82.3406H61.921H61.731L59.111 82.5906L58.191 82.6906V82.6206C58.43 81.9388 58.8887 81.3558 59.4951 80.963C60.1014 80.5702 60.8211 80.3899 61.541 80.4506C62.037 80.4516 62.531 80.5155 63.011 80.6406H63.061L62.831 81.3706L63.291 81.2106C63.5813 81.1362 63.8535 81.0035 64.091 80.8206C64.3256 80.5857 64.6049 80.4001 64.9123 80.2748C65.2197 80.1494 65.549 80.0868 65.881 80.0906C66.3737 80.105 66.8619 80.1892 67.331 80.3406C67.4322 80.3702 67.536 80.3903 67.641 80.4006H67.731C68.0229 80.1966 68.3756 80.0978 68.731 80.1206C68.9341 80.1057 69.1379 80.1057 69.341 80.1206C69.541 80.1206 69.741 80.1206 69.941 80.1206H70.071C70.2319 80.144 70.3837 80.2095 70.511 80.3105C70.6034 80.3772 70.7003 80.4374 70.801 80.4906H70.861L67.781 83.4205L67.401 83.7806C67.101 84.0506 66.801 84.3406 66.511 84.6306C66.4222 84.7277 66.3572 84.8441 66.321 84.9706C66.4198 85.0859 66.553 85.1665 66.701 85.2006C67.0086 85.0993 67.2938 84.9398 67.541 84.7306L67.961 84.3306C68.398 83.7813 69.0137 83.4028 69.701 83.2606C69.8274 83.2499 69.9545 83.2499 70.081 83.2606C70.2 83.2388 70.322 83.2388 70.441 83.2606C70.5482 83.2883 70.6475 83.3408 70.7308 83.4137C70.8142 83.4866 70.8793 83.5779 70.921 83.6805C70.9338 83.78 70.9223 83.8812 70.8875 83.9752C70.8527 84.0693 70.7955 84.1535 70.721 84.2206C70.4006 84.6568 69.9862 85.0154 69.5084 85.2699C69.0307 85.5244 68.5018 85.6681 67.961 85.6906H67.481H67.431C67.3176 85.7004 67.2063 85.7275 67.101 85.7706H66.951V85.9105L68.101 86.1106L65.921 88.9906C65.9163 89.0017 65.9139 89.0136 65.9139 89.0256C65.9139 89.0377 65.9163 89.0495 65.921 89.0605C65.921 89.0605 66.071 89.1805 66.461 89.1805H66.721H67.051C67.2175 89.1701 67.3845 89.1701 67.551 89.1805C67.7437 89.1758 67.9349 89.217 68.1087 89.3004C68.2825 89.3839 68.4341 89.5072 68.551 89.6605L68.601 89.7306L67.211 89.8206V89.9105L68.161 90.2506C67.917 90.6791 67.5586 91.0313 67.126 91.2679C66.6933 91.5046 66.2034 91.6163 65.711 91.5906C65.2692 91.628 64.8331 91.7152 64.411 91.8506H64.541C64.731 91.9206 64.941 91.9805 65.131 92.0605L65.811 92.3606L66.191 92.5306C66.8093 92.154 67.5283 91.976 68.251 92.0206C68.701 92.0206 69.171 92.0206 69.671 92.1006L70.061 91.9205C70.431 91.7505 70.811 91.5706 71.181 91.3806H71.061C70.9063 91.327 70.7446 91.2966 70.581 91.2905C70.4198 91.2872 70.2626 91.3405 70.1366 91.4409C70.0106 91.5414 69.9237 91.6827 69.891 91.8406L69.611 91.7606C69.4406 91.7115 69.2736 91.6513 69.111 91.5806C68.995 91.526 68.8872 91.4553 68.791 91.3706L68.651 91.2606L68.761 91.1006C68.841 90.9606 68.921 90.8206 69.051 90.7806H69.131C69.4719 90.6581 69.8292 90.5873 70.191 90.5706H70.401C70.8051 90.6486 71.1981 90.7762 71.571 90.9506L71.951 91.1006C72.551 90.7706 73.141 90.4106 73.711 90.1006L74.201 89.8005L74.251 89.7306C74.3396 89.6101 74.4478 89.5053 74.571 89.4205C74.7198 89.3464 74.8779 89.2927 75.041 89.2606H75.111C75.761 88.8406 76.421 88.3905 77.111 87.9305L73.531 86.7806L73.601 86.7206C73.8418 86.5419 74.1082 86.4003 74.391 86.3005C74.951 86.0705 75.471 85.8505 75.531 85.0405V84.9706H75.601L76.101 85.1705C76.501 85.3205 76.871 85.4706 77.231 85.6306C77.3212 85.6697 77.4013 85.7286 77.4654 85.8031C77.5295 85.8776 77.5758 85.9656 77.601 86.0605C77.601 86.4705 77.601 86.9006 77.601 87.3506V87.5306L77.961 87.2606V87.1805C77.961 86.4405 78.191 86.1106 78.711 86.1106C78.8701 86.1128 79.0282 86.1363 79.181 86.1805H79.351L79.601 85.9806L80.081 85.5906L78.681 85.2306L78.411 85.7806ZM61.161 75.2406C60.7965 75.7873 60.3183 76.249 59.7592 76.5941C59.2001 76.9393 58.5731 77.1598 57.921 77.2406C57.5584 77.2363 57.2072 77.1134 56.921 76.8906H56.871L58.031 75.8206L57.871 75.5306C57.7409 75.4645 57.5969 75.4301 57.451 75.4305C57.0998 75.4611 56.7738 75.6259 56.541 75.8906C56.401 76.0206 56.271 76.1605 56.141 76.3005C55.9084 76.5549 55.6577 76.7923 55.391 77.0106C55.0768 77.2686 54.6961 77.4327 54.2928 77.484C53.8894 77.5353 53.4798 77.4717 53.111 77.3005H53.061C53.3802 76.545 53.9414 75.9171 54.6564 75.5153C55.3714 75.1134 56.1997 74.9605 57.011 75.0806C57.841 75.1706 58.711 75.1806 59.541 75.2006C59.931 75.2006 60.331 75.2006 60.721 75.2006H61.001H61.161H61.241L61.161 75.2406ZM49.071 82.9006L49.021 82.9606L48.221 83.7706C47.611 84.3906 47.041 84.9705 46.491 85.5605C46.2616 85.8266 45.9777 86.0402 45.6585 86.1869C45.3393 86.3335 44.9923 86.4097 44.641 86.4105H43.091L43.011 86.5405L43.841 87.1506C43.7367 87.7166 43.4455 88.2312 43.0139 88.6119C42.5824 88.9927 42.0355 89.2176 41.461 89.2506C40.9071 89.2328 40.3669 89.0744 39.891 88.7905H39.821H39.881C42.0936 86.8769 44.147 84.7867 46.021 82.5405C45.7857 82.6028 45.5578 82.69 45.341 82.8005L45.201 82.8706C44.7339 83.0878 44.2261 83.2037 43.711 83.2106C43.3355 83.2081 42.9633 83.1405 42.611 83.0106C42.4037 82.9304 42.1832 82.8897 41.961 82.8906C41.8445 82.8804 41.7274 82.8804 41.611 82.8906C40.991 83.036 40.3576 83.1165 39.721 83.1306C39.2615 83.1334 38.8039 83.0728 38.361 82.9506H38.281L38.331 82.8906C39.481 81.4706 40.331 80.9506 41.331 80.9506C41.8968 80.9699 42.4564 81.0744 42.991 81.2606L43.041 82.2606L43.581 81.9105L44.781 81.1506C45.1043 80.9446 45.4777 80.8304 45.861 80.8206C46.2639 80.8265 46.6525 80.9713 46.961 81.2306C47.0735 81.3336 47.2186 81.3938 47.371 81.4006C47.5273 81.393 47.679 81.3448 47.811 81.2606C48.2248 81.046 48.6849 80.936 49.151 80.9406C49.6258 80.9467 50.0961 81.0346 50.541 81.2006H50.601C50.4576 81.507 50.2343 81.769 49.9544 81.9591C49.6746 82.1492 49.3487 82.2603 49.011 82.2806C48.9213 82.2905 48.8307 82.2905 48.741 82.2806H48.671C48.4932 82.2986 48.3202 82.3493 48.161 82.4305L47.901 82.5306L49.071 82.9006ZM50.541 83.9006C50.9536 83.9074 51.3624 83.9817 51.751 84.1206H51.831L51.771 84.1805L51.321 84.5806C50.371 85.4706 49.471 86.3105 48.171 86.3105C47.8565 86.3102 47.5435 86.2664 47.241 86.1805H47.181C47.4876 85.5291 47.9644 84.9725 48.5611 84.5695C49.1577 84.1665 49.8521 83.9319 50.571 83.8906L50.541 83.9006ZM35.631 83.2606C35.421 83.1906 35.221 83.1305 35.021 83.0505L34.391 82.8105L33.921 82.6206L34.021 82.5706C34.231 82.4606 34.421 82.3805 34.591 82.3005C34.8747 82.2005 35.1386 82.0516 35.371 81.8606C35.635 81.6031 35.9482 81.4014 36.2917 81.2673C36.6353 81.1333 37.0024 81.0698 37.371 81.0806C37.8757 81.0902 38.3769 81.1675 38.861 81.3105H38.931V81.3706C38.615 81.7594 38.2405 82.0967 37.821 82.3706C36.6903 83.112 35.7182 84.0705 34.961 85.1906C34.7673 85.4768 34.5043 85.7093 34.1966 85.8667C33.8889 86.024 33.5464 86.1011 33.201 86.0906C32.6632 86.0724 32.1366 85.9322 31.661 85.6805C32.151 84.3005 33.261 84.1105 34.341 83.9205C34.8608 83.8539 35.3689 83.716 35.851 83.5106L35.921 83.3206L35.631 83.2606ZM37.951 80.0706C38.611 78.5706 39.281 77.9105 40.131 77.9105C40.6692 77.9438 41.1864 78.1313 41.621 78.4506C41.368 78.9784 40.9827 79.4318 40.5025 79.7665C40.0224 80.1012 39.4637 80.3059 38.881 80.3606C38.5478 80.3671 38.2215 80.2653 37.951 80.0706ZM32.611 88.5206C32.781 88.3806 32.951 88.2105 33.111 88.0505C33.3915 87.7081 33.7521 87.4403 34.161 87.2706C34.7946 87.1329 35.3751 86.8152 35.8327 86.3558C36.2903 85.8964 36.6057 85.3147 36.741 84.6805C36.8437 84.4607 36.9984 84.2694 37.1919 84.123C37.3853 83.9767 37.6116 83.8797 37.851 83.8406H38.071C38.4691 83.8565 38.8645 83.9135 39.251 84.0106L39.961 84.1406H40.061L39.411 84.7406L38.271 85.7406L38.121 85.9006C37.991 86.0506 37.861 86.2006 37.711 86.2006H37.621C37.4806 86.1514 37.3279 86.1503 37.1869 86.1975C37.0458 86.2447 36.9245 86.3377 36.842 86.4613C36.7595 86.5851 36.7205 86.7326 36.7312 86.881C36.7419 87.0293 36.8016 87.17 36.901 87.2806C36.1255 88.1314 35.0499 88.6476 33.901 88.7206C33.4641 88.7195 33.0309 88.6416 32.621 88.4906H32.541L32.611 88.5206ZM36.891 88.2206L38.261 86.9806C38.3233 86.9251 38.3902 86.8749 38.461 86.8306C38.5934 86.7533 38.7037 86.6431 38.781 86.5106C39.1569 85.7473 39.7664 85.1238 40.521 84.7306L40.921 84.4606C41.2117 84.2475 41.5607 84.1289 41.921 84.1206C42.3321 84.1303 42.7301 84.2665 43.061 84.5106C42.7706 85.0358 42.3528 85.4795 41.846 85.801C41.3393 86.1225 40.7599 86.3115 40.161 86.3506C39.9612 86.3646 39.7608 86.3646 39.561 86.3506C39.611 86.4806 39.681 86.6106 39.741 86.7306C39.891 87.0506 40.021 87.3206 39.941 87.5206C39.7787 87.811 39.5489 88.0579 39.271 88.2406L38.951 88.5006C38.8092 88.6336 38.6589 88.7572 38.501 88.8706C38.1927 89.1236 37.8096 89.2678 37.411 89.2806C36.9818 89.2588 36.5697 89.1051 36.231 88.8406H36.181L36.891 88.2206ZM49.391 79.5605C48.777 80.0496 48.016 80.3174 47.231 80.3206C46.9381 80.3213 46.6461 80.2878 46.361 80.2206C46.4188 79.8401 46.5658 79.4786 46.79 79.1658C47.0142 78.8529 47.3092 78.5976 47.651 78.4205C48.033 78.1754 48.371 77.8678 48.651 77.5106C48.3652 77.4272 48.0687 77.3867 47.771 77.3906C47.451 77.3906 47.121 77.3906 46.771 77.4606C46.4395 77.5055 46.1055 77.5289 45.771 77.5306C45.4462 77.5482 45.1214 77.4966 44.818 77.3794C44.5147 77.2622 44.2396 77.0819 44.011 76.8506C43.9357 77.0065 43.8966 77.1774 43.8966 77.3506C43.8966 77.5237 43.9357 77.6947 44.011 77.8506C44.1102 77.9767 44.2384 78.077 44.3846 78.1432C44.5308 78.2093 44.6908 78.2393 44.851 78.2306H45.441H46.571V78.3005C46.2745 78.925 45.8071 79.4528 45.2231 79.8226C44.6391 80.1925 43.9623 80.3895 43.271 80.3906C42.7007 80.3869 42.1368 80.2713 41.611 80.0505H41.551L43.621 77.4506H40.891L40.941 77.3806C41.5732 76.5624 42.3929 75.9081 43.331 75.473C44.269 75.0379 45.298 74.8348 46.331 74.8806C47.3846 74.8825 48.4288 75.0791 49.411 75.4606L48.851 76.5605L48.961 76.6705L49.151 76.5906C49.3101 76.526 49.4639 76.4491 49.611 76.3606C49.831 76.2106 50.051 76.0406 50.261 75.8806L50.911 75.4105C51.202 75.1981 51.5508 75.0795 51.911 75.0706C52.3845 75.096 52.8385 75.2671 53.211 75.5605L52.451 76.1906C51.881 76.6706 51.331 77.1206 50.751 77.5306C50.351 77.8206 50.191 78.0706 50.411 78.5906L50.911 78.4506C51.3122 78.3295 51.7194 78.2294 52.131 78.1506C52.531 78.0806 52.951 78.0506 53.351 78.0206H53.881L53.971 78.3206L53.611 78.7306C53.3567 79.0382 53.0756 79.3226 52.771 79.5806C52.2727 80.037 51.635 80.3119 50.961 80.3606C50.6609 80.3454 50.3677 80.2651 50.1018 80.1252C49.8358 79.9854 49.6035 79.7892 49.421 79.5505L49.391 79.5605ZM56.071 73.9706C56.3414 73.3112 56.81 72.7522 57.4119 72.3706C58.0138 71.989 58.7193 71.8038 59.431 71.8406C59.7828 71.8424 60.134 71.8725 60.481 71.9305H60.551V71.9906C60.2599 72.6406 59.8006 73.2011 59.2205 73.6143C58.6404 74.0274 57.9604 74.2781 57.251 74.3406C56.8482 74.3455 56.4524 74.2344 56.111 74.0206L56.071 73.9706ZM70.741 72.1006C71.1867 72.102 71.6292 72.1763 72.051 72.3206H72.111C71.8529 72.8772 71.4408 73.3483 70.9232 73.678C70.4057 74.0076 69.8046 74.182 69.191 74.1805C68.7572 74.1819 68.3268 74.104 67.921 73.9506H67.871C68.1116 73.386 68.5196 72.9088 69.04 72.5834C69.5604 72.2579 70.168 72.0999 70.781 72.1306L70.741 72.1006ZM69.391 66.1006C69.872 66.1053 70.3463 66.2144 70.781 66.4205C69.203 67.4227 67.8427 68.7321 66.781 70.2706C66.6779 70.4488 66.5329 70.5992 66.3587 70.709C66.1845 70.8187 65.9863 70.8846 65.781 70.9006C65.6648 70.9148 65.5472 70.9148 65.431 70.9006C65.3178 70.8914 65.2041 70.8914 65.091 70.9006C64.9919 70.8932 64.8924 70.9071 64.7992 70.9417C64.706 70.9762 64.6214 71.0304 64.5511 71.1007C64.4809 71.171 64.4266 71.2556 64.3921 71.3488C64.3575 71.4419 64.3435 71.5415 64.351 71.6406C64.6601 71.729 64.9795 71.7761 65.301 71.7806C65.8562 71.7323 66.3948 71.5664 66.881 71.2939C67.3672 71.0215 67.7898 70.6488 68.121 70.2006C68.3358 69.907 68.6132 69.6649 68.9332 69.4919C69.2532 69.319 69.6077 69.2195 69.971 69.2006C70.3138 69.2048 70.6529 69.2727 70.971 69.4006H71.021C70.6968 70.0202 70.1982 70.5312 69.5869 70.8706C68.9756 71.21 68.2783 71.3629 67.581 71.3105V71.4806L68.481 71.8005C68.2141 72.4584 67.7581 73.0223 67.1707 73.421C66.5833 73.8197 65.8909 74.0353 65.181 74.0405H64.871C64.361 74.0405 63.871 74.0405 63.161 74.0405H61.781H60.161L60.241 73.9606C60.491 73.6906 60.731 73.4205 60.951 73.1605C61.525 72.3291 62.3373 71.6912 63.281 71.3306C63.387 71.2721 63.4712 71.1809 63.521 71.0706L63.601 70.9506C63.741 70.7606 63.881 70.5606 64.011 70.3606C64.2853 69.9394 64.5894 69.5383 64.921 69.1605C65.211 68.8205 65.551 68.5105 65.871 68.1605C66.191 67.8105 66.531 67.5506 66.871 67.2206C67.2014 66.8753 67.599 66.6014 68.0392 66.4156C68.4795 66.2299 68.9532 66.1364 69.431 66.1406L69.391 66.1006ZM65.691 65.1006C66.471 63.8606 67.221 63.3306 68.211 63.3306C68.6686 63.3455 69.121 63.4333 69.551 63.5906H69.611C69.3114 64.0829 68.898 64.496 68.4055 64.7953C67.9131 65.0946 67.3559 65.2713 66.781 65.3105C66.437 65.3076 66.0971 65.2363 65.781 65.1006H65.721H65.691ZM62.541 67.9706C62.8039 67.4407 63.2004 66.9886 63.6915 66.6589C64.1825 66.3292 64.7511 66.1333 65.341 66.0906C65.8196 66.0986 66.2906 66.2112 66.721 66.4205H66.791L64.261 68.7905L64.001 68.6006C63.8396 68.47 63.6653 68.3561 63.481 68.2606C63.291 68.185 63.0931 68.1313 62.891 68.1006L62.601 68.0405H62.531L62.541 67.9706ZM62.541 68.9006C62.9626 68.9008 63.3802 68.9823 63.771 69.1406H63.831C63.522 69.6731 63.0867 70.1213 62.5635 70.4457C62.0403 70.7701 61.4453 70.9606 60.831 71.0006C60.3269 70.9912 59.8301 70.8789 59.371 70.6705H59.321C59.689 70.1591 60.1701 69.7396 60.7269 69.4447C61.2837 69.1498 61.9011 68.9875 62.531 68.9706L62.541 68.9006ZM55.881 70.4406C56.2483 70.0449 56.6942 69.7302 57.1901 69.5167C57.6861 69.3032 58.2211 69.1955 58.761 69.2006C58.9895 69.1904 59.2177 69.2278 59.431 69.3105C59.1604 69.8513 58.7408 70.3034 58.2216 70.6135C57.7024 70.9236 57.1054 71.0787 56.501 71.0605H56.291C56.021 71.0605 55.861 70.9706 55.791 70.8506C55.7783 70.7851 55.7789 70.7177 55.7926 70.6525C55.8063 70.5872 55.833 70.5254 55.871 70.4706L55.881 70.4406ZM52.791 71.1805C52.7957 71.1307 52.7957 71.0805 52.791 71.0306C52.791 70.9006 52.791 70.7706 52.911 70.7206C53.0334 70.6411 53.1751 70.5962 53.321 70.5906C53.591 70.5906 53.791 70.8106 53.921 71.2406V71.3105L52.741 71.2406L52.791 71.1805ZM52.641 74.0206C53.241 72.7806 53.971 72.2106 54.921 72.2106C55.261 72.216 55.5983 72.2734 55.921 72.3806H55.991L55.861 72.5306C55.201 73.3306 54.511 74.1705 53.391 74.1705C53.1398 74.1674 52.8904 74.1269 52.651 74.0505H52.591L52.641 74.0206ZM50.761 72.1306C51.2983 72.1491 51.826 72.2785 52.311 72.5106H52.361V72.5605C52.0967 73.0936 51.6799 73.5361 51.1635 73.8317C50.6471 74.1273 50.0545 74.2627 49.461 74.2206C49.0512 74.2143 48.6429 74.1708 48.241 74.0906H48.181V74.0306C48.3912 73.5095 48.7436 73.0579 49.198 72.7273C49.6524 72.3967 50.1905 72.2002 50.751 72.1605L50.761 72.1306ZM44.561 71.8406C45.421 71.8406 46.291 71.8405 47.141 71.9105L48.751 71.9706L48.811 72.2306L48.331 72.6705C48.001 72.9705 47.681 73.2806 47.331 73.5706C46.8864 73.9935 46.2946 74.2267 45.681 74.2206C45.5478 74.2303 45.4142 74.2303 45.281 74.2206C44.9495 74.1767 44.6153 74.1566 44.281 74.1605H40.391V74.0906C40.6135 73.488 41.0002 72.9597 41.5074 72.5656C42.0147 72.1714 42.6221 71.9273 43.261 71.8606C43.731 71.8706 44.131 71.8706 44.551 71.8706L44.561 71.8406ZM37.861 74.2006C37.3902 74.1866 36.9246 74.0989 36.481 73.9406H36.431C36.7036 73.3194 37.1583 72.7956 37.7351 72.4385C38.3118 72.0814 38.9834 71.9077 39.661 71.9406C39.997 71.9466 40.3317 71.9835 40.661 72.0505H40.731V72.1106C39.741 73.4706 38.981 74.2306 37.851 74.2306L37.861 74.2006ZM38.861 70.2706L39.311 70.3206L40.311 70.4305C40.621 70.4305 40.931 70.5306 41.221 70.5806L41.621 70.6506C41 70.8171 40.3631 70.9176 39.721 70.9506C39.111 70.9506 38.861 70.7406 38.851 70.2306V70.1705L38.861 70.2706ZM36.031 70.5706C36.401 69.8606 36.671 69.5206 37.171 69.5206C37.499 69.5393 37.8208 69.6172 38.121 69.7506L38.411 69.8206L38.661 69.8806H38.721C38.6783 69.9749 38.6416 70.0717 38.611 70.1705C38.551 70.3905 38.491 70.5806 38.351 70.6406C37.7974 70.8945 37.2171 71.0856 36.621 71.2106H36.511C36.4233 71.2122 36.3369 71.1897 36.2611 71.1456C36.1853 71.1016 36.123 71.0375 36.081 70.9606C36.0557 70.9042 36.0419 70.8434 36.0401 70.7816C36.0384 70.7198 36.0489 70.6583 36.071 70.6006L36.031 70.5706ZM35.601 69.2905C35.071 70.5305 34.461 71.3606 33.211 71.3606C32.6609 71.3384 32.1177 71.2303 31.601 71.0405H31.541V70.9906C31.8496 70.4457 32.2818 69.9808 32.8029 69.6334C33.3239 69.286 33.9193 69.0659 34.541 68.9906C34.9125 69.014 35.2729 69.1272 35.591 69.3206L35.601 69.2905ZM29.731 67.8706C29.541 68.0506 29.331 68.2206 29.131 68.3906C28.6278 68.7703 28.183 69.2217 27.811 69.7306C27.371 70.4506 26.891 71.0906 25.961 71.0906C25.8412 71.1005 25.7208 71.1005 25.601 71.0906H25.551C25.435 71.0905 25.3224 71.1292 25.231 71.2006C25.1108 71.3053 24.96 71.3685 24.801 71.3806C24.601 71.3806 24.411 71.2606 24.211 70.9806L24.541 70.5405C24.761 70.2505 24.981 69.9605 25.191 69.6605C25.2908 69.4752 25.4338 69.3166 25.6078 69.1982C25.7819 69.0799 25.9819 69.0053 26.191 68.9806C26.3414 68.9797 26.4906 69.0068 26.631 69.0605C26.7103 69.075 26.7916 69.075 26.871 69.0605C26.9387 69.0665 27.0067 69.056 27.0695 69.0299C27.1322 69.0038 27.1876 68.9628 27.231 68.9105C27.266 68.8461 27.2843 68.7739 27.2843 68.7006C27.2843 68.6272 27.266 68.5551 27.231 68.4906C26.971 67.8006 27.351 67.4906 27.711 67.1506C28.4659 66.4843 29.4444 66.1272 30.451 66.1506C30.7862 66.1536 31.1206 66.1837 31.451 66.2406H31.551L30.861 66.8706C30.441 67.2406 30.071 67.5606 29.721 67.9006L29.731 67.8706ZM31.021 68.2706H30.931L30.981 68.2006C31.461 67.3706 31.871 66.9906 32.311 66.9906C32.6711 67.0328 33.0026 67.2075 33.241 67.4806C33.351 67.5806 33.491 67.8006 33.451 67.9406C33.4136 68.0231 33.3568 68.0954 33.2854 68.1511C33.214 68.2069 33.1301 68.2444 33.041 68.2606H32.141H31.021V68.2706ZM32.701 72.4305C32.4204 72.9858 31.9916 73.4525 31.4621 73.7791C30.9326 74.1056 30.3231 74.2792 29.701 74.2806C29.2768 74.2839 28.8558 74.2057 28.461 74.0505C28.6854 73.4894 29.0778 73.0115 29.5844 72.6821C30.091 72.3527 30.6871 72.188 31.291 72.2106C31.7651 72.216 32.2362 72.2867 32.691 72.4205H32.751L32.701 72.4305ZM32.801 74.0605H32.741C32.9419 73.5845 33.265 73.1701 33.6777 72.8593C34.0904 72.5484 34.578 72.3522 35.091 72.2905C35.3965 72.2924 35.6975 72.3643 35.971 72.5006C35.817 72.985 35.5174 73.4101 35.1129 73.7179C34.7085 74.0257 34.2189 74.2012 33.711 74.2206C33.3996 74.2227 33.0896 74.1789 32.791 74.0906L32.801 74.0605ZM33.271 77.0605C33.5718 76.4569 34.0357 75.9496 34.6101 75.5961C35.1846 75.2426 35.8465 75.057 36.521 75.0605C37.591 75.0605 38.691 75.0606 39.741 75.1506L41.051 75.2006H41.331H41.581L41.521 75.2706C41.1593 75.828 40.6727 76.2934 40.1 76.6301C39.5272 76.9669 38.8839 77.1655 38.221 77.2106C37.7441 77.2058 37.2725 77.1107 36.831 76.9305H36.751L38.221 75.7806L37.981 75.4606L37.631 75.5906C37.3365 75.6905 37.0519 75.8178 36.781 75.9706C36.5635 76.1264 36.3654 76.3077 36.191 76.5106L35.831 76.8706C35.4798 77.2564 34.9917 77.4896 34.471 77.5206C34.0387 77.4645 33.6249 77.3105 33.261 77.0706L33.271 77.0605ZM33.941 80.0605L34.311 79.6106C34.5485 79.304 34.8022 79.0102 35.071 78.7306C35.23 78.519 35.4295 78.3412 35.6578 78.2073C35.8861 78.0734 36.1387 77.9861 36.401 77.9506C36.6668 77.9836 36.9232 78.0696 37.1551 78.2036C37.387 78.3376 37.5897 78.5168 37.751 78.7306C36.961 79.9206 36.231 80.4506 35.361 80.4506C34.8722 80.4277 34.3943 80.298 33.961 80.0706H33.901L33.941 80.0605ZM30.891 82.8506C31.2067 82.3486 31.6331 81.9254 32.1375 81.6134C32.6418 81.3014 33.2108 81.1089 33.801 81.0505C34.2438 81.0631 34.678 81.176 35.071 81.3806L34.471 81.8606C34.0666 82.2076 33.6352 82.5219 33.181 82.8005C32.8412 83.0002 32.455 83.1071 32.061 83.1106C31.662 83.1012 31.2697 83.0057 30.911 82.8306H30.851L30.891 82.8506ZM28.501 86.3406C28.1604 86.3411 27.8223 86.2835 27.501 86.1705H27.421L27.481 86.1106C27.731 85.9007 27.961 85.6606 28.181 85.4406C28.4884 85.0233 28.8791 84.6746 29.3284 84.4164C29.7777 84.1582 30.2758 83.9961 30.791 83.9406C31.0797 83.9446 31.3662 83.9918 31.641 84.0806H31.711V84.1306C30.571 85.6506 29.591 86.3306 28.491 86.3306L28.501 86.3406ZM28.701 88.7806C28.8839 88.2826 29.203 87.846 29.6221 87.5206C30.0411 87.1953 30.5432 86.9943 31.071 86.9406C31.5645 86.947 32.0382 87.1358 32.401 87.4706C32.0888 87.9055 31.6908 88.2718 31.2316 88.547C30.7724 88.8222 30.2617 89.0003 29.731 89.0706C29.3624 89.0747 29.0007 88.9704 28.691 88.7706L28.701 88.7806ZM31.411 92.5006L29.411 91.8906V91.8306C29.7283 91.2742 30.1746 90.8021 30.7123 90.4541C31.25 90.1061 31.8634 89.8922 32.501 89.8306C32.939 89.8284 33.3688 89.9496 33.741 90.1805H33.801L31.411 92.5006ZM37.671 92.1705H36.971C36.251 92.1705 35.531 92.1706 34.821 92.1006H34.261C33.941 92.1006 33.621 92.0306 33.261 91.9906L32.821 91.9305H32.711L32.801 91.8606L33.321 91.4506C33.671 91.1906 33.991 90.9405 34.321 90.6705C34.8054 90.1874 35.4484 89.8962 36.131 89.8506C36.4895 89.8602 36.8372 89.9749 37.131 90.1805L36.491 91.4105L36.591 91.5006C36.9167 91.3023 37.2305 91.0853 37.531 90.8506C38.1593 90.2525 38.9682 89.8797 39.831 89.7905C40.3216 89.8069 40.8 89.9481 41.221 90.2006C41.021 90.3606 40.831 90.5306 40.651 90.6906C40.2677 91.0718 39.8415 91.4074 39.381 91.6906C38.8475 91.9674 38.2612 92.1275 37.661 92.1605L37.671 92.1705ZM45.961 92.8806C45.491 93.9406 43.451 95.1306 41.431 95.1306H41.161L44.011 92.5806L46.011 92.8306L45.961 92.8806ZM49.601 89.8806C48.601 90.9906 47.521 92.0706 45.931 92.0706C45.5553 92.0696 45.1816 92.0157 44.821 91.9105H44.771V91.8606C44.8442 91.6756 44.9608 91.511 45.111 91.3806C45.351 91.1306 45.581 90.8906 45.391 90.4506L45.051 90.7006C43.5315 91.68 42.1806 92.8991 41.051 94.3105C40.8607 94.6002 40.5985 94.8354 40.29 94.9932C39.9814 95.1509 39.6372 95.2259 39.291 95.2106H39.211C38.8265 95.1536 38.4458 95.0734 38.071 94.9706L37.391 94.8706H37.291L38.761 93.5806L41.361 91.3005L42.501 90.3005C43.501 89.4505 44.501 88.5606 45.501 87.6506C46.0672 87.0696 46.8398 86.7353 47.651 86.7206C47.9919 86.7261 48.3296 86.7869 48.651 86.9006H48.721L45.981 89.4706C46.2864 89.6504 46.628 89.7596 46.981 89.7905C47.2237 89.789 47.4617 89.7235 47.671 89.6006C47.9064 89.4693 48.1715 89.4005 48.441 89.4006C48.8427 89.4167 49.2356 89.5226 49.591 89.7106H49.651L49.601 89.8806ZM61.851 87.8806C62.2501 87.884 62.6457 87.9549 63.021 88.0906H63.081V88.1506C62.621 88.8706 62.251 89.2606 61.551 89.2606C60.9701 89.2173 60.3997 89.0823 59.861 88.8606H59.791C60.0332 88.545 60.3431 88.2877 60.6979 88.1077C61.0526 87.9277 61.4433 87.8296 61.841 87.8206L61.851 87.8806ZM58.221 83.9906H59.871L58.811 85.5306L58.891 85.6506C59.246 85.4461 59.5809 85.2083 59.891 84.9406C60.4501 84.3742 61.1892 84.0206 61.981 83.9406C62.4684 83.9556 62.9424 84.1044 63.351 84.3706H63.411C63.191 84.5506 62.991 84.7405 62.801 84.9205C62.4258 85.3108 61.9984 85.6474 61.531 85.9205C61.0534 86.1444 60.544 86.2929 60.021 86.3606L59.441 86.4806L60.441 86.8105C60.2663 87.168 59.9923 87.4675 59.6517 87.6732C59.3112 87.8789 58.9187 87.9822 58.521 87.9706C58.1919 87.9792 57.8679 87.8886 57.591 87.7106C57.4084 87.5663 57.1837 87.4856 56.951 87.4806C56.7238 87.4901 56.5032 87.5591 56.311 87.6805C56.132 87.7776 55.9584 87.8845 55.791 88.0006C55.5081 88.2135 55.1945 88.3821 54.861 88.5006C54.6177 88.5736 54.365 88.6106 54.111 88.6106C53.8463 88.6121 53.583 88.5716 53.331 88.4906C53.2878 88.4746 53.2505 88.446 53.2238 88.4086C53.197 88.3711 53.1821 88.3266 53.181 88.2806C53.1948 88.0419 53.2633 87.8094 53.3812 87.6013C53.4991 87.3932 53.6632 87.2151 53.861 87.0806C54.1821 86.8437 54.5563 86.6892 54.951 86.6306C55.1598 86.6289 55.3613 86.5539 55.5203 86.4186C55.6794 86.2833 55.7858 86.0964 55.821 85.8906C55.9533 85.4422 56.1343 85.0095 56.361 84.6006C56.571 84.2806 56.891 83.9306 57.191 83.8906C57.491 83.8506 57.771 83.9706 58.211 83.9706L58.221 83.9906ZM58.391 81.4406C58.0402 82.2233 57.4034 82.8422 56.611 83.1705C56.1596 83.3601 55.8006 83.7191 55.611 84.1705C55.3957 84.7431 55.0254 85.2447 54.5416 85.619C54.0577 85.9934 53.4793 86.2259 52.871 86.2905C52.491 86.3505 52.101 86.3805 51.701 86.4105H51.191C51.1934 86.4623 51.2064 86.513 51.2292 86.5596C51.2519 86.6061 51.2839 86.6476 51.3233 86.6813C51.3626 86.715 51.4084 86.7403 51.4579 86.7556C51.5074 86.771 51.5595 86.7761 51.611 86.7706H51.821H52.071C52.1537 86.76 52.2378 86.7754 52.3113 86.8148C52.3848 86.8543 52.4441 86.9158 52.481 86.9906C51.481 88.3306 50.691 89.0605 49.681 89.0605C49.1246 89.0313 48.58 88.8884 48.081 88.6406H48.021L48.651 88.0505L49.921 86.8806C50.031 86.7806 50.161 86.6906 50.281 86.6006C50.5149 86.4534 50.7158 86.2594 50.871 86.0306C51.157 85.4942 51.5566 85.0265 52.042 84.6604C52.5273 84.2943 53.0866 84.0383 53.681 83.9105C54.101 83.7905 54.531 83.6806 54.991 83.5706L55.611 83.4105C55.3684 83.2393 55.0862 83.1327 54.791 83.1006C54.341 83.0106 53.871 82.9206 53.731 82.2606C53.5148 82.5374 53.2364 82.7594 52.9186 82.9088C52.6007 83.0582 52.2521 83.1308 51.901 83.1206C51.5458 83.1107 51.1917 83.0773 50.841 83.0206C50.631 83.0206 50.421 82.9505 50.201 82.9305H50.071L50.191 82.8506C50.401 82.7206 50.611 82.6106 50.811 82.5006C51.1879 82.3412 51.5282 82.1063 51.811 81.8105C52.0162 81.5449 52.2824 81.3326 52.587 81.1917C52.8916 81.0507 53.2257 80.9852 53.561 81.0006H54.071C54.1166 81.0145 54.1654 81.0145 54.211 81.0006C54.3305 80.889 54.4378 80.765 54.531 80.6306C54.5619 80.5855 54.5953 80.542 54.631 80.5006L54.531 80.4305C54.4308 80.3482 54.3237 80.2746 54.211 80.2106C54.128 80.2001 54.044 80.2001 53.961 80.2106H53.661H53.571L53.631 80.1506L54.181 79.5306C54.5234 79.1091 54.8978 78.7145 55.301 78.3506C55.5805 78.1136 55.9345 77.9826 56.301 77.9806C56.5881 77.9836 56.8712 78.0484 57.131 78.1705C57.2421 78.2477 57.3233 78.3607 57.361 78.4906C57.3956 78.5807 57.3956 78.6805 57.361 78.7706C57.361 78.8506 57.291 78.9206 57.261 78.9906C56.891 79.7406 56.501 80.5106 55.641 80.5106H55.461L54.331 82.1206C54.7585 82.0097 55.1714 81.8486 55.561 81.6406C56.0768 81.338 56.6547 81.1567 57.251 81.1106C57.6355 81.1146 58.0119 81.2216 58.341 81.4205L58.391 81.4406ZM58.721 80.3706C58.3356 80.3633 57.9566 80.2711 57.611 80.1006H57.561C58.651 78.5206 59.341 77.9105 60.011 77.9105C60.2885 77.9455 60.5557 78.0384 60.7951 78.1831C61.0345 78.3278 61.2409 78.5212 61.401 78.7506L61.051 79.0605C60.4612 79.7631 59.6229 80.2109 58.711 80.3105L58.721 80.3706ZM70.351 88.8406C70.0551 89.0383 69.7068 89.1428 69.351 89.1406C68.8832 89.1211 68.4256 88.9981 68.011 88.7806C68.011 88.7206 68.091 88.6606 68.131 88.6106C68.1904 88.5067 68.2608 88.4094 68.341 88.3206L68.611 88.0605C68.8471 87.7672 69.1439 87.5285 69.481 87.3606H69.541C69.671 87.3606 69.841 87.5206 70.031 87.7106C70.1504 87.8295 70.281 87.9368 70.421 88.0306C70.651 88.1706 70.761 88.3106 70.761 88.4606C70.761 88.6106 70.601 88.6206 70.341 88.7806L70.351 88.8406ZM73.471 89.9606C73.3564 90.1959 73.1769 90.3935 72.9536 90.5299C72.7303 90.6664 72.4726 90.736 72.211 90.7306C71.6374 90.7013 71.0879 90.4913 70.641 90.1306L70.561 90.0706H70.681C71.2551 89.8894 71.8498 89.7819 72.451 89.7506C72.7925 89.7493 73.1314 89.8103 73.451 89.9305L73.471 89.9606ZM73.741 88.9606L73.861 89.0505H71.691L71.771 88.9706C71.8777 88.8294 72.0112 88.7108 72.164 88.6216C72.3167 88.5323 72.4857 88.4742 72.661 88.4506C73.0554 88.4943 73.4279 88.6544 73.731 88.9105L73.741 88.9606ZM73.611 86.1006C73.3213 86.2201 73.0138 86.2911 72.701 86.3105L71.161 86.4105H70.511H70.441V86.3406C70.781 85.3406 71.441 84.8105 72.201 84.8105C72.5095 84.8152 72.8145 84.8762 73.101 84.9906H73.231C73.306 85.0162 73.3795 85.0462 73.451 85.0806L73.571 85.1406C73.741 85.2406 73.921 85.3306 73.921 85.4506C73.9203 85.569 73.8909 85.6856 73.8351 85.7902C73.7794 85.8947 73.699 85.984 73.601 86.0505L73.611 86.1006Z" fill="white"/>
<path d="M62.2596 93.7797C63.1196 92.9897 63.9896 92.1296 64.8496 91.2396C64.9196 91.1696 64.9196 91.0296 64.9196 90.8396C64.925 90.7597 64.925 90.6795 64.9196 90.5996C63.4592 91.5314 62.2367 92.7917 61.3496 94.2797L61.6396 94.1396C61.8604 94.0458 62.0687 93.9249 62.2596 93.7797Z" fill="white"/>
<path d="M53.4509 28.3807L52.9709 28.2407C52.2271 28.0102 51.4687 27.8298 50.7009 27.7007C49.6574 27.5513 48.6049 27.4745 47.5509 27.4707C46.1736 27.472 44.801 27.6331 43.4609 27.9507C43.9141 28.1001 44.35 28.2978 44.7609 28.5406C45.565 28.3851 46.3818 28.3047 47.2009 28.3007C48.8104 28.3135 50.4098 28.556 51.9509 29.0208L52.2209 29.1107C52.5198 29.2134 52.8279 29.287 53.1409 29.3307H53.2509C53.4709 29.3307 53.7309 29.2706 53.7909 29.1606C53.839 29.0915 53.8696 29.0117 53.8801 28.9281C53.8905 28.8445 53.8805 28.7595 53.8509 28.6807C53.8126 28.6026 53.7564 28.5348 53.6869 28.4827C53.6174 28.4305 53.5365 28.3956 53.4509 28.3807Z" fill="white"/>
<path d="M36.4108 48.8108C36.5257 49.0487 36.6932 49.2573 36.9008 49.4208L37.2008 49.7208C37.2772 49.7889 37.3356 49.8747 37.3708 49.9708C38.6408 53.6708 40.9508 55.7608 44.4208 56.3608C45.3683 56.529 46.3285 56.616 47.2908 56.6208C49.1829 56.6337 51.0555 56.238 52.7808 55.4608C55.6208 54.1608 57.5108 51.7408 58.5408 48.0608C58.9481 46.8991 58.9125 45.628 58.4408 44.4908C58.1493 44.6799 57.9121 44.9416 57.7525 45.2502C57.5929 45.5589 57.5165 45.9037 57.5308 46.2509C56.9008 51.8009 52.9308 55.3809 47.4308 55.3809C47.0608 55.3809 46.6708 55.3809 46.2808 55.3809C44.6526 55.2782 43.0767 54.766 41.6992 53.892C40.3217 53.0179 39.1871 51.8102 38.4008 50.3809C37.3122 48.5489 36.8163 46.4254 36.9808 44.3008C36.7498 44.3844 36.5064 44.4283 36.2608 44.4308H35.7608C35.6906 45.9192 35.9114 47.4069 36.4108 48.8108Z" fill="white"/>
<path d="M28.4901 62.4209L24.8501 56.9609C24.7187 58.154 25.0557 59.3515 25.7901 60.3009C26.0714 60.82 26.4561 61.276 26.9205 61.6406C27.3849 62.0053 27.9191 62.2708 28.4901 62.4209Z" fill="white"/>
<path d="M54.3012 32.9698V32.5099C53.9512 32.3599 53.5812 32.2098 53.2012 32.0898C53.5512 32.3398 53.9212 32.6198 54.3012 32.9698Z" fill="white"/>
<path d="M68.7204 57.47C68.8786 57.4906 69.0395 57.4761 69.1915 57.4277C69.3436 57.3794 69.4831 57.2982 69.6004 57.1899C69.7137 57.016 69.79 56.8206 69.8244 56.6158C69.8588 56.4111 69.8507 56.2014 69.8004 56L68.4004 57.45H68.7204V57.47Z" fill="white"/>
<path d="M35.3886 65.2509C39.1495 67.3294 43.3622 68.4556 47.6586 68.5309C50.6767 68.517 53.6629 67.9122 56.4486 66.7509C60.4486 65.1209 63.7786 62.2908 67.0686 57.8208C67.329 57.4866 67.4959 57.0892 67.5521 56.6692C67.6084 56.2492 67.5519 55.8218 67.3886 55.4308C62.3886 63.3708 55.7686 67.4308 47.6586 67.4308C47.1786 67.4308 46.6586 67.4308 46.1986 67.4308C37.0486 66.9208 30.3886 62.1909 26.3986 53.3809C26.1824 53.666 26.0587 54.0107 26.0444 54.3683C26.0301 54.7259 26.1258 55.0793 26.3186 55.3809C28.1731 59.5795 31.3613 63.0489 35.3886 65.2509Z" fill="white"/>
<path d="M52.9305 23.1108C53.1748 23.1003 53.4152 23.0461 53.6405 22.9508C53.5837 22.7658 53.47 22.6034 53.3156 22.4867C53.1612 22.37 52.974 22.3049 52.7805 22.3008C52.5036 22.3167 52.2322 22.3846 51.9805 22.5009C52.3105 22.9709 52.5805 23.1108 52.9305 23.1108Z" fill="white"/>
<path d="M54.2996 25.7698C52.5852 25.0245 50.712 24.7186 48.8496 24.8797C49.6896 25.5697 52.6596 26.2697 54.2996 26.5997V25.7698Z" fill="white"/>
<path d="M44.7704 22.7093C45.4786 22.7312 46.1765 22.5358 46.7704 22.1493C46.6087 21.9622 46.407 21.8138 46.1803 21.7151C45.9535 21.6165 45.7075 21.57 45.4604 21.5793C44.6269 21.6374 43.8265 21.9284 43.1504 22.4192C43.6609 22.6149 44.2036 22.7133 44.7504 22.7093H44.7704Z" fill="white"/>
</g>
<defs>
<clipPath id="clip0_8972_245">
<rect width="98" height="98" fill="white"/>
</clipPath>
</defs>
</svg>
