<svg width="20" height="20" viewBox="0 0 20 20" fill="none" xmlns="http://www.w3.org/2000/svg">
<path fill-rule="evenodd" clip-rule="evenodd" d="M0.207031 10.4191C0.207031 9.42355 1.00844 8.61633 1.99655 8.61633C2.98506 8.61633 3.78652 9.42355 3.78652 10.4191C3.78652 11.4151 2.98506 12.2223 1.99655 12.2223C1.00844 12.2223 0.207031 11.4155 0.207031 10.4191ZM12.7781 12.2223C11.7896 12.2223 10.9886 11.4151 10.9886 10.4191C10.9886 9.42355 11.7896 8.61633 12.7781 8.61633C13.7662 8.61633 14.5681 9.42355 14.5681 10.4191C14.5681 11.4151 13.7662 12.2223 12.7781 12.2223ZM12.7781 3.20752C8.82491 3.20752 5.6196 6.43645 5.6196 10.4191C5.6196 14.4026 8.82448 17.6312 12.7781 17.6312C16.7322 17.6312 19.9371 14.4026 19.9371 10.4191C19.9371 6.43686 16.7322 3.20752 12.7781 3.20752Z" fill="white"/>
</svg>
