<svg width="20" height="20" viewBox="0 0 20 20" fill="none" xmlns="http://www.w3.org/2000/svg">
<path d="M9.00915 19.9254C7.29131 19.776 5.83073 19.2366 4.52782 18.2905C2.74359 17.0042 1.58177 15.2864 1.20002 13.1038C0.469733 8.86313 3.24152 5.31956 6.41994 4.24902C6.41994 4.48139 6.42824 4.71375 6.41994 4.93782C6.37015 5.81749 6.27056 6.70546 6.26226 7.58512C6.23559 8.8135 6.54861 10.0254 7.16683 11.0872C7.75604 12.1245 8.33695 13.1702 8.62741 14.332C8.96766 15.6847 9.15853 17.0457 9.01745 18.4482C8.96766 18.9046 9.00915 19.3777 9.00915 19.9254Z" fill="white"/>
<path d="M10.6116 19.9254C10.6033 18.7801 10.5701 17.7179 10.595 16.6557C10.6614 14.5893 11.4332 12.7552 12.4789 11.0125C13.2257 9.76769 13.3834 8.39839 13.3087 6.9793C13.2672 6.12453 13.2174 5.26976 13.1677 4.41499V4.20752C14.3754 4.64705 15.4618 5.36658 16.3378 6.3071C17.9726 8.04984 18.6946 10.1494 18.4706 12.5229C18.2465 14.8963 17.1842 16.6142 15.4249 18.0249C14.0473 19.1287 12.4789 19.7511 10.6116 19.9254Z" fill="white"/>
<path d="M9.3833 4.02484C9.3833 2.82152 9.3916 1.6182 9.375 0.414877C9.375 0.099524 9.51608 0.0580302 9.76504 0.0746277C10.014 0.0912253 10.2381 0.00823767 10.2298 0.398279C10.2215 2.82981 10.2215 5.25305 10.2298 7.68459C10.2381 8.06633 10.014 8.00824 9.78164 8.02484C9.54927 8.04143 9.375 7.99164 9.375 7.66799C9.3916 6.45637 9.3833 5.23645 9.3833 4.02484Z" fill="white"/>
<path d="M8.3694 0.224055V7.85891C8.32791 7.86721 8.30301 7.88381 8.28642 7.87551C7.41505 7.70953 7.56443 7.83401 7.56443 7.04563C7.55613 5.00414 7.56443 2.97094 7.56443 0.929449C7.56443 0.224055 7.60592 0.182561 8.3694 0.224055Z" fill="white"/>
<path d="M11.2422 0.199219C11.4746 0.224115 11.682 0.224115 11.8812 0.290505C12.0804 0.356895 12.0389 0.464779 12.0389 0.564364C12.0638 1.0042 12.0555 1.44403 12.0555 1.88387V7.26146C12.0555 7.75109 12.0472 7.75109 11.5575 7.83407L11.2422 7.88387V0.199219Z" fill="white"/>
</svg>
