<svg width="20" height="20" viewBox="0 0 20 20" fill="none" xmlns="http://www.w3.org/2000/svg">
<path fill-rule="evenodd" clip-rule="evenodd" d="M20 10C20 15.5228 15.5228 20 10 20C4.47715 20 0 15.5228 0 10C0 4.47715 4.47715 0 10 0C15.5228 0 20 4.47715 20 10ZM17.3814 6.73712L16.1747 8.04998C16.9144 8.72373 17.3781 9.69579 17.377 10.7762C17.377 12.8131 15.7234 14.4645 13.6865 14.4645C12.7189 14.4645 11.8385 14.0924 11.1803 13.4824L9.99822 14.7684L8.8161 13.4813C8.15799 14.0913 7.27644 14.4645 6.30884 14.4645C4.27197 14.4645 2.62055 12.8131 2.62055 10.7762C2.62055 9.69691 3.08424 8.72482 3.82389 8.04998L2.61719 6.73712H5.29987C6.63731 5.82316 8.25069 5.28906 9.9982 5.28906C11.7479 5.28906 13.3658 5.82202 14.7055 6.73712H17.3814ZM3.81386 10.7762C3.81386 12.155 4.93115 13.2723 6.30993 13.2723C7.68869 13.2723 8.80601 12.155 8.80601 10.7762C8.80601 9.39745 7.68869 8.28014 6.30993 8.28014C4.93117 8.28014 3.81386 9.39745 3.81386 10.7762ZM7.22837 7.04885C8.80492 7.65109 9.99932 9.06114 9.99932 10.7036C9.99932 9.06116 11.1937 7.65222 12.7691 7.04885C11.9166 6.69241 10.9803 6.49465 9.9982 6.49465C9.01607 6.49465 8.08088 6.69241 7.22837 7.04885ZM11.1915 10.7762C11.1915 12.155 12.3088 13.2723 13.6876 13.2723C15.0664 13.2723 16.1837 12.155 16.1837 10.7762C16.1837 9.39745 15.0664 8.28014 13.6876 8.28014C12.3088 8.28014 11.1915 9.39745 11.1915 10.7762ZM12.3792 10.7751C12.3792 10.0522 12.9647 9.46672 13.6876 9.46672C14.4105 9.46672 14.996 10.0533 14.996 10.7751C14.996 11.498 14.4105 12.0835 13.6876 12.0835C12.9647 12.0835 12.3792 11.498 12.3792 10.7751ZM6.30993 12.0846C7.03283 12.0846 7.61831 11.4991 7.61831 10.7762C7.61831 10.0533 7.03283 9.46672 6.30993 9.46784C5.58704 9.46784 5.00156 10.0533 5.00156 10.7762C5.00156 11.4991 5.58704 12.0846 6.30993 12.0846Z" fill="white"/>
</svg>
