<svg width="19" height="13" viewBox="0 0 19 13" fill="none" xmlns="http://www.w3.org/2000/svg">
<path d="M17.2861 3.8387L18.7621 2.23286H15.489C13.8504 1.11355 11.8714 0.46167 9.73125 0.46167C7.59378 0.46167 5.62036 1.11496 3.98446 2.23286H0.703125L2.17912 3.8387C1.2744 4.66414 0.707239 5.85315 0.707239 7.17335C0.707239 9.66476 2.72718 11.6847 5.21859 11.6847C6.40212 11.6847 7.48039 11.2282 8.28536 10.482L9.73129 12.0564L11.1772 10.4834C11.9822 11.2296 13.0591 11.6847 14.2426 11.6847C16.734 11.6847 18.7567 9.66476 18.7567 7.17335C18.758 5.85178 18.1909 4.6628 17.2861 3.8387ZM5.21993 10.2264C3.53346 10.2264 2.16684 8.85982 2.16684 7.17335C2.16684 5.48687 3.53349 4.12022 5.21993 4.12022C6.90637 4.12022 8.27302 5.48687 8.27302 7.17335C8.27302 8.85982 6.90637 10.2264 5.21993 10.2264ZM9.73262 7.08451C9.73262 5.07551 8.27168 3.3508 6.34332 2.61416C7.38607 2.17818 8.52996 1.93629 9.73125 1.93629C10.9325 1.93629 12.0778 2.17818 13.1206 2.61416C11.1936 3.35217 9.73262 5.07554 9.73262 7.08451ZM14.244 10.2264C12.5575 10.2264 11.1909 8.85982 11.1909 7.17335C11.1909 5.48687 12.5575 4.12022 14.244 4.12022C15.9305 4.12022 17.2971 5.48687 17.2971 7.17335C17.2971 8.85982 15.9304 10.2264 14.244 10.2264ZM14.244 5.57159C13.3597 5.57159 12.6436 6.28773 12.6436 7.17198C12.6436 8.05618 13.3597 8.77232 14.244 8.77232C15.1282 8.77232 15.8443 8.05618 15.8443 7.17198C15.8443 6.2891 15.1282 5.57159 14.244 5.57159ZM6.82028 7.17335C6.82028 8.05756 6.10414 8.77369 5.21993 8.77369C4.33572 8.77369 3.61959 8.05756 3.61959 7.17335C3.61959 6.2891 4.33572 5.57297 5.21993 5.57297C6.10414 5.5716 6.82028 6.2891 6.82028 7.17335Z" fill="black"/>
</svg>
