<svg width="90" height="17" viewBox="0 0 90 17" fill="none" xmlns="http://www.w3.org/2000/svg">
<path d="M88.8532 12.3401C88.4965 12.3401 88.2068 12.6298 88.2068 12.9865C88.2068 13.3432 88.4965 13.633 88.8532 13.633C89.2099 13.633 89.4996 13.3432 89.4996 12.9865C89.4996 12.6298 89.2099 12.3401 88.8532 12.3401ZM88.8532 13.5304C88.5525 13.5304 88.3093 13.2858 88.3093 12.9865C88.3093 12.6858 88.5539 12.4426 88.8532 12.4426C89.1539 12.4426 89.3985 12.6872 89.3985 12.9865C89.3985 13.2858 89.1539 13.5304 88.8532 13.5304ZM89.0637 12.8758C89.0637 12.7583 88.9803 12.6886 88.8573 12.6886H88.6509V13.2776H88.752V13.0644H88.8627L88.9693 13.2776H89.0786L88.9611 13.0426C89.024 13.0139 89.0637 12.9564 89.0637 12.8758ZM88.8532 12.9728H88.7534V12.7775H88.8532C88.9215 12.7775 88.9625 12.8116 88.9625 12.8745C88.9625 12.9387 88.9202 12.9728 88.8532 12.9728ZM10.9633 5.7979V4.23444H8.56625V13.5359H10.9633V7.95862C10.9633 6.94865 11.6112 6.45252 12.6211 6.45252H13.9331V4.23448H12.8124C11.9351 4.23444 11.1725 4.69227 10.9633 5.7979ZM16.1785 0.55542C15.3585 0.55542 14.7299 1.20323 14.7299 2.02322C14.7299 2.82408 15.3585 3.47188 16.1785 3.47188C16.9985 3.47188 17.6272 2.82408 17.6272 2.02322C17.6272 1.20319 16.9985 0.55542 16.1785 0.55542ZM14.9827 13.5359H17.3744V4.23444H14.9827V13.5359ZM28.7668 8.88517C28.7668 11.5406 26.6143 13.6931 23.9589 13.6931C22.8874 13.6931 21.9157 13.3419 21.1367 12.7487V16.2665H18.7451V4.23444H21.1367V5.02162C21.9157 4.4285 22.8874 4.07727 23.9589 4.07727C26.6143 4.07727 28.7668 6.22977 28.7668 8.88517ZM26.3601 8.88517C26.3601 7.44336 25.1903 6.27348 23.7484 6.27348C22.3066 6.27348 21.1367 7.44336 21.1367 8.88517C21.1367 10.327 22.3066 11.4969 23.7484 11.4969C25.1903 11.4969 26.3601 10.3284 26.3601 8.88517ZM70.335 8.06929L68.9396 7.68662C68.0213 7.44744 67.6646 7.16592 67.6646 6.68077C67.6646 6.20789 68.1675 5.87717 68.8864 5.87717C69.5711 5.87717 70.1081 6.32542 70.1081 6.89941V6.95269H72.3126V6.89941C72.3126 5.21157 70.9364 4.07724 68.8864 4.07724C66.8569 4.07724 65.3823 5.21019 65.3823 6.77228C65.3823 7.98725 66.1872 8.90289 67.5921 9.28282L68.9287 9.64773C69.9441 9.92926 70.3213 10.2409 70.3213 10.7999C70.3213 11.3889 69.7761 11.7852 68.9642 11.7852C68.1182 11.7852 67.5484 11.2494 67.5484 10.4541V10.4008H65.2087V10.4541C65.2087 12.3619 66.7448 13.6958 68.9452 13.6958C71.0648 13.6958 72.6037 12.3934 72.6037 10.6003C72.6036 9.72018 72.21 8.5695 70.335 8.06929ZM37.251 4.23444H39.6426V13.5359H37.251V12.7487C36.472 13.3418 35.5003 13.6931 34.4288 13.6931C31.7735 13.6931 29.621 11.5406 29.621 8.88514C29.621 6.2297 31.7735 4.07724 34.4288 4.07724C35.5003 4.07724 36.472 4.42847 37.251 5.02159V4.23444ZM37.251 8.88517C37.251 7.44199 36.0811 6.27348 34.6393 6.27348C33.1975 6.27348 32.0276 7.44336 32.0276 8.88517C32.0276 10.327 33.1975 11.4969 34.6393 11.4969C36.0825 11.4969 37.251 10.3284 37.251 8.88517ZM48.2786 0.924409H50.6702V13.5373H48.2786V12.7501C47.4995 13.3432 46.5279 13.6944 45.4564 13.6944C42.801 13.6944 40.6485 11.5419 40.6485 8.88651C40.6485 6.23107 42.8009 4.07861 45.4564 4.07861C46.5279 4.07861 47.4995 4.42984 48.2786 5.02296V0.924409ZM48.2786 8.88517C48.2786 7.44336 47.1087 6.27348 45.6668 6.27348C44.2251 6.27348 43.0552 7.44336 43.0552 8.88517C43.0552 10.327 44.2236 11.4969 45.6668 11.4969C47.1087 11.4969 48.2786 10.3284 48.2786 8.88517ZM61.7743 13.5359H64.1659V4.23444H61.7743V13.5359ZM62.9701 0.55542C62.1501 0.55542 61.5214 1.20323 61.5214 2.02322C61.5214 2.82408 62.1501 3.47188 62.9701 3.47188C63.7901 3.47188 64.4187 2.82408 64.4187 2.02322C64.4187 1.20319 63.7901 0.55542 62.9701 0.55542ZM82.941 8.88517C82.941 11.5406 80.7886 13.6931 78.1331 13.6931C75.4777 13.6931 73.3252 11.5406 73.3252 8.88517C73.3252 6.22973 75.4777 4.07727 78.1331 4.07727C80.7886 4.07727 82.941 6.22977 82.941 8.88517ZM80.7449 8.88517C80.7449 7.44336 79.575 6.27348 78.1331 6.27348C76.6913 6.27348 75.5215 7.44336 75.5215 8.88517C75.5215 10.327 76.6899 11.4969 78.1331 11.4969C79.5749 11.4969 80.7449 10.3284 80.7449 8.88517ZM9.73881 0.924409H0.564453V3.05777H3.96061V13.5359H6.34406V3.05777H9.74022V0.924409H9.73881ZM56.1355 10.9885L54.0076 4.23448H51.4956L54.6868 13.5359H57.565L60.7752 4.23448H58.2633L56.1355 10.9885ZM86.4451 5.7979V4.23444H84.048V13.5359H86.4451V7.95862C86.4451 6.94865 87.093 6.45252 88.1029 6.45252H89.4149V4.23448H88.2942C87.4168 4.23444 86.6556 4.69227 86.4451 5.7979Z" fill="black"/>
</svg>
