<svg width="24" height="24" viewBox="0 0 24 24" fill="none" xmlns="http://www.w3.org/2000/svg">
<g id="free-icon-play-button-8647260 1">
<g id="Group">
<path id="Vector" d="M6 21.5C5.5 21.5 5 21.4 4.5 21.1C3.6 20.6 3 19.6 3 18.5V5.49999C3 4.39999 3.6 3.39999 4.5 2.89999C5.4 2.39999 6.6 2.39999 7.5 2.89999L18.6 9.39999C19.5 9.89999 20.1 10.9 20.1 12C20.1 13.1 19.5 14 18.6 14.6L7.5 21.1C7 21.4 6.5 21.5 6 21.5ZM6 4.49999C5.8 4.49999 5.6 4.59999 5.5 4.59999C5.4 4.69999 5 4.99999 5 5.49999V18.5C5 19 5.4 19.3 5.5 19.4C5.7 19.5 6.1 19.7 6.5 19.4L17.6 12.9C18 12.6 18.1 12.2 18.1 12C18.1 11.8 18.1 11.4 17.6 11.1L6.5 4.59999C6.3 4.49999 6.2 4.49999 6 4.49999Z" fill="white"/>
</g>
</g>
</svg>
