<svg width="24" height="24" viewBox="0 0 24 24" fill="none" xmlns="http://www.w3.org/2000/svg">
<g id="free-icon-pause-button-10279059 1">
<path id="Vector" d="M8.5 21H6.7C5.98416 20.9992 5.29786 20.7145 4.79168 20.2083C4.2855 19.7021 4.00079 19.0158 4 18.3V5.7C4.00079 4.98416 4.2855 4.29786 4.79168 3.79168C5.29786 3.2855 5.98416 3.00079 6.7 3H8.5C9.21584 3.00079 9.90214 3.2855 10.4083 3.79168C10.9145 4.29786 11.1992 4.98416 11.2 5.7V18.3C11.1992 19.0158 10.9145 19.7021 10.4083 20.2083C9.90214 20.7145 9.21584 20.9992 8.5 21ZM6.7 4.8C6.46137 4.80021 6.23258 4.8951 6.06384 5.06384C5.8951 5.23258 5.80021 5.46137 5.8 5.7V18.3C5.80021 18.5386 5.8951 18.7674 6.06384 18.9362C6.23258 19.1049 6.46137 19.1998 6.7 19.2H8.5C8.73863 19.1998 8.96742 19.1049 9.13616 18.9362C9.3049 18.7674 9.39979 18.5386 9.4 18.3V5.7C9.39979 5.46137 9.3049 5.23258 9.13616 5.06384C8.96742 4.8951 8.73863 4.80021 8.5 4.8H6.7ZM17.5 21H15.7C14.9842 20.9992 14.2979 20.7145 13.7917 20.2083C13.2855 19.7021 13.0008 19.0158 13 18.3V5.7C13.0008 4.98416 13.2855 4.29786 13.7917 3.79168C14.2979 3.2855 14.9842 3.00079 15.7 3H17.5C18.2158 3.00079 18.9021 3.2855 19.4083 3.79168C19.9145 4.29786 20.1992 4.98416 20.2 5.7V18.3C20.1992 19.0158 19.9145 19.7021 19.4083 20.2083C18.9021 20.7145 18.2158 20.9992 17.5 21ZM15.7 4.8C15.4613 4.80014 15.2325 4.89501 15.0638 5.06376C14.895 5.23251 14.8001 5.46135 14.8 5.7V18.3C14.8001 18.5387 14.895 18.7675 15.0638 18.9362C15.2325 19.105 15.4613 19.1999 15.7 19.2H17.5C17.7387 19.1999 17.9675 19.105 18.1362 18.9362C18.305 18.7675 18.3999 18.5387 18.4 18.3V5.7C18.3999 5.46135 18.305 5.23251 18.1362 5.06376C17.9675 4.89501 17.7387 4.80014 17.5 4.8H15.7Z" fill="white"/>
</g>
</svg>
