<svg width="30" height="12" viewBox="0 0 30 12" fill="none" xmlns="http://www.w3.org/2000/svg">
<path d="M0.691105 6.61058H29.3065C29.6469 6.61058 29.9219 6.33558 29.9219 5.99519C29.9219 5.65481 29.6469 5.37981 29.3065 5.37981H2.17764L5.91226 1.64519C6.15264 1.40481 6.15264 1.01442 5.91226 0.774038C5.67187 0.533654 5.28149 0.533654 5.0411 0.774038L0.254567 5.56058C0.0776441 5.7375 0.0257205 6.00096 0.121874 6.23173C0.218028 6.46058 0.443028 6.61058 0.691105 6.61058Z" fill="white"/>
<path d="M5.48275 11.4034C5.64044 11.4034 5.79814 11.3438 5.91737 11.2227C6.15775 10.9823 6.15775 10.5919 5.91737 10.3515L1.12506 5.55919C0.884675 5.31881 0.494291 5.31881 0.253907 5.55919C0.0135221 5.79958 0.0135221 6.18996 0.253907 6.43035L5.04621 11.2227C5.16737 11.3438 5.32506 11.4034 5.48275 11.4034Z" fill="white"/>
</svg>
