<svg width="24" height="24" viewBox="0 0 24 24" fill="none" xmlns="http://www.w3.org/2000/svg">
<path d="M14.2992 15.8419C11.9825 14.8608 10.1402 13.0142 9.16447 10.6953L11.8699 7.98509L6.88876 3L4.36558 5.52238C3.92795 5.96252 3.58193 6.48507 3.34756 7.05981C3.11319 7.63454 2.99511 8.25004 3.00016 8.87071C3.00016 14.638 10.362 21.9998 16.1293 21.9998C16.7498 22.0051 17.3653 21.8871 17.9399 21.6527C18.5146 21.4183 19.0369 21.0722 19.4768 20.6344L22 18.1112L17.0149 13.1261L14.2992 15.8419ZM18.3525 19.5093C18.0598 19.7988 17.7126 20.0273 17.331 20.1817C16.9494 20.336 16.5409 20.4131 16.1293 20.4084C11.1696 20.4084 4.59156 13.8303 4.59156 8.87071C4.58688 8.45919 4.66394 8.05085 4.81829 7.66935C4.97264 7.28785 5.2012 6.94079 5.49071 6.6483L6.88876 5.25025L9.6236 7.98509L7.2882 10.3205L7.48315 10.809C8.05705 12.3442 8.95422 13.7381 10.1139 14.8962C11.2735 16.0544 12.6686 16.9497 14.2045 17.5216L14.6867 17.7054L17.0149 15.3764L19.7497 18.1112L18.3525 19.5093Z" fill="#0C1921"/>
</svg>
