<svg width="24" height="24" viewBox="0 0 24 24" fill="none" xmlns="http://www.w3.org/2000/svg">
<g clip-path="url(#clip0_3295_13354)">
<path d="M10.8017 3.071C11.543 2.643 12.4564 2.643 13.1977 3.071L19.1334 6.498C19.8748 6.92601 20.3315 7.71699 20.3315 8.573V15.427C20.3315 16.283 19.8748 17.074 19.1334 17.502L13.1977 20.929C12.4564 21.357 11.543 21.357 10.8017 20.929L4.86597 17.502C4.12465 17.074 3.66797 16.283 3.66797 15.427V8.573C3.66797 7.71699 4.12465 6.92601 4.86597 6.498L10.8017 3.071Z" stroke="white" stroke-width="1.5"/>
<path d="M13.439 9.14896C14.8309 9.94436 15.5269 10.3421 15.787 10.8467C16.071 11.3978 16.071 12.0522 15.787 12.6033C15.5269 13.1079 14.8309 13.5056 13.439 14.3011C12.0655 15.0859 11.3788 15.4783 10.8157 15.4484C10.2007 15.4158 9.63879 15.0897 9.30534 14.572C9 14.0978 9 13.3069 9 11.725C9 10.1431 9 9.35218 9.30534 8.87806C9.63879 8.36028 10.2007 8.03421 10.8157 8.00159C11.3788 7.97171 12.0655 8.36413 13.439 9.14896Z" stroke="white" stroke-width="1.5"/>
</g>
<defs>
<clipPath id="clip0_3295_13354">
<rect width="24" height="24" fill="white"/>
</clipPath>
</defs>
</svg>
