<svg width="16" height="17" viewBox="0 0 16 17" fill="none" xmlns="http://www.w3.org/2000/svg">
<path d="M8 14.5C11.3137 14.5 14 11.8137 14 8.5C14 5.18629 11.3137 2.5 8 2.5C4.68629 2.5 2 5.18629 2 8.5C2 11.8137 4.68629 14.5 8 14.5Z" stroke="white" stroke-linecap="round" stroke-linejoin="round"/>
<path d="M8 12.5C8.41421 12.5 8.75 12.1642 8.75 11.75C8.75 11.3358 8.41421 11 8 11C7.58579 11 7.25 11.3358 7.25 11.75C7.25 12.1642 7.58579 12.5 8 12.5Z" fill="white"/>
<path d="M8 9.5V9C8.34612 9 8.68446 8.89736 8.97225 8.70507C9.26003 8.51278 9.48434 8.23947 9.61679 7.9197C9.74924 7.59993 9.7839 7.24806 9.71637 6.90859C9.64885 6.56913 9.48218 6.25731 9.23744 6.01256C8.9927 5.76782 8.68087 5.60115 8.34141 5.53363C8.00194 5.4661 7.65007 5.50076 7.3303 5.63321C7.01053 5.76566 6.73722 5.98997 6.54493 6.27775C6.35264 6.56554 6.25 6.90388 6.25 7.25" stroke="white" stroke-linecap="round" stroke-linejoin="round"/>
</svg>
