<svg width="32" height="32" viewBox="0 0 32 32" fill="none" xmlns="http://www.w3.org/2000/svg">
<g id="free-icon-carrot-766076">
<rect width="32" height="32" rx="16" fill="#FE9D12" fill-opacity="0.1"/>
<g id="Group 1026">
<g id="Group">
<g id="Group_2">
<path id="Vector" d="M21.5126 19.6391C21.374 19.5005 21.1492 19.5005 21.0106 19.6391L20.0473 20.6024C19.9087 20.741 19.9087 20.9658 20.0473 21.1044C20.186 21.2431 20.4107 21.2431 20.5494 21.1044L21.5126 20.1412C21.6513 20.0025 21.6513 19.7777 21.5126 19.6391Z" fill="#FE9D12"/>
</g>
</g>
<g id="Group_3">
<g id="Group_4">
<path id="Vector_2" d="M16.1881 13.604C16.0495 13.4653 15.8247 13.4653 15.6861 13.604L15.6829 13.6071L14.8452 14.4449C14.7065 14.5835 14.7065 14.8082 14.8452 14.9469C14.9838 15.0855 15.2086 15.0855 15.3472 14.9469L16.1881 14.106C16.3267 13.9674 16.3267 13.7426 16.1881 13.604Z" fill="#FE9D12"/>
</g>
</g>
<g id="Group_5">
<g id="Group_6">
<path id="Vector_3" d="M22.3162 18.0709C21.1944 16.3873 19.935 14.7994 18.5511 13.3237C17.8868 12.6559 16.9829 12.2819 16.041 12.2851C15.5676 12.2867 15.0994 12.3828 14.6636 12.5675L14.6102 12.5926L14.5004 12.6365L14.0706 12.2223C15.1183 11.4801 15.366 10.0289 14.6237 8.98118C13.9223 7.9911 12.5774 7.70687 11.5353 8.32855C10.316 7.92603 9.00125 8.58819 8.59873 9.80751C8.48911 10.1395 8.45581 10.492 8.50126 10.8387C7.72439 11.861 7.92343 13.3196 8.94583 14.0965C9.96822 14.8734 11.4268 14.6743 12.2037 13.6519C12.2252 13.6235 12.2462 13.5946 12.2664 13.5652L12.8939 14.1928C12.177 15.5707 12.4305 17.2538 13.5215 18.3595L13.7097 18.5415C14.9459 19.6962 19.985 23.9979 22.6018 23.9979C23.0298 24.0197 23.4481 23.8656 23.7595 23.5711C24.6506 22.6832 24.1768 20.8822 22.3162 18.0709ZM12.3951 12.6867C12.257 12.5479 12.0325 12.5472 11.8937 12.6853C11.8528 12.7259 11.8224 12.776 11.8052 12.831C11.534 13.6795 10.6264 14.1474 9.77796 13.8762C9.5317 13.7975 9.30799 13.6607 9.12565 13.4774C8.49315 12.8454 8.49279 11.8203 9.12483 11.1878C9.1251 11.1875 9.12538 11.1872 9.12565 11.1869C9.20751 11.1046 9.24382 10.9874 9.22292 10.8732C9.11189 10.3378 9.27959 9.78276 9.66846 9.39848C10.1374 8.93729 10.8368 8.80135 11.4444 9.05334C11.5604 9.10335 11.6943 9.08778 11.7958 9.01255C12.4414 8.54618 13.3285 8.60964 13.9011 9.16316C14.5321 9.79178 14.534 10.8129 13.9054 11.4439C13.7472 11.6027 13.5577 11.7267 13.3489 11.8082C13.166 11.8781 13.0744 12.0831 13.1443 12.266C13.1624 12.3133 13.1904 12.3562 13.2265 12.3918L13.8541 13.0193C13.6441 13.1842 13.4517 13.3703 13.2799 13.5747L12.3951 12.6867ZM23.2607 23.066C23.082 23.2249 22.8464 23.3042 22.608 23.2856C22.2509 23.2728 21.8982 23.2029 21.5632 23.0785L21.877 22.7648C22.0156 22.6261 22.0156 22.4014 21.877 22.2627C21.7383 22.1241 21.5136 22.1241 21.3749 22.2627L20.851 22.7867C19.8482 22.2987 18.8897 21.7244 17.9863 21.0705L18.6138 20.4429C18.7525 20.3043 18.7525 20.0795 18.6138 19.9409C18.4752 19.8023 18.2505 19.8023 18.1118 19.9409L17.4153 20.6375C16.223 19.7589 15.1468 18.8584 14.491 18.2623L15.5452 17.208C15.6839 17.0694 15.6839 16.8447 15.5452 16.706C15.4066 16.5674 15.1819 16.5674 15.0432 16.706L13.9764 17.7728C13.1008 16.8289 12.9634 15.4164 13.6407 14.3214C13.9589 13.8371 14.4098 13.4548 14.9397 13.2201C15.2886 13.0747 15.663 13 16.041 13.0005C16.7945 12.9986 17.5174 13.298 18.0491 13.8319C18.3189 14.1018 18.7895 14.6258 19.3449 15.2909L18.5793 16.0408C18.4407 16.1795 18.4407 16.4042 18.5793 16.5429C18.718 16.6815 18.9427 16.6815 19.0813 16.5429L19.7873 15.8369C20.4242 16.615 21.1145 17.5563 21.7169 18.4631C23.2858 20.81 23.8348 22.4887 23.2607 23.066Z" fill="#FE9D12"/>
</g>
</g>
</g>
</g>
</svg>
