<svg width="32" height="32" viewBox="0 0 32 32" fill="none" xmlns="http://www.w3.org/2000/svg">
<g id="vegan">
<rect width="32" height="32" rx="16" fill="#9FD356" fill-opacity="0.1"/>
<path id="Vector" d="M23.5621 8.36061C22.2574 8.06325 18.9827 7.51892 16.7745 8.89294C13.3729 11.007 14.3084 15.0619 14.7542 16.4473C14.4006 17.0018 14.1084 17.5932 13.8828 18.211C13.3204 16.3625 11.9697 13.163 9.83881 10.6425C9.77966 10.5714 9.7061 10.5137 9.62298 10.4732C9.53987 10.4327 9.4491 10.4103 9.35668 10.4075C9.24087 10.4069 9.12625 10.4309 9.02049 10.4781C8.91472 10.5253 8.82024 10.5945 8.74335 10.6811L8.19402 11.2471C8.07693 11.3697 8.00825 11.5306 8.0007 11.6999C7.99315 11.8693 8.04724 12.0357 8.15296 12.1682C10.3369 14.9216 12.402 19.8717 12.7569 23.203C12.7781 23.4111 12.8722 23.605 13.0225 23.7504C13.1728 23.8958 13.3696 23.9835 13.5782 23.9979C13.7869 24.0123 13.9939 23.9525 14.1627 23.829C14.3315 23.7056 14.4513 23.5265 14.5009 23.3233C15.0278 21.1236 15.9675 18.2827 16.7129 17.1914C17.2875 17.176 19.4478 17.0399 20.7688 15.8745C21.6488 15.0973 21.8766 14.2716 22.3286 12.6264C22.416 12.3082 22.5126 11.9573 22.6243 11.5676C22.9798 10.327 23.4755 9.65515 23.8307 9.30845C23.903 9.23803 23.9549 9.14938 23.981 9.05187C24.0071 8.95437 24.0063 8.85162 23.9788 8.75451C23.9513 8.6574 23.898 8.56953 23.8247 8.50019C23.7514 8.43085 23.6606 8.38263 23.5621 8.36061ZM23.4555 8.92841C22.8027 9.63147 22.3399 10.4893 22.1107 11.4209C21.9982 11.8127 21.9014 12.1653 21.8134 12.4851C21.376 14.0767 21.1766 14.8029 20.415 15.4747C19.0875 16.646 16.6726 16.6602 16.5782 16.6602H16.5747C16.5333 16.6602 16.4925 16.6698 16.4555 16.6883C16.4185 16.7068 16.3863 16.7337 16.3614 16.7668C15.5545 17.84 14.5537 20.8147 13.9822 23.2006C13.9633 23.2772 13.9192 23.3452 13.8568 23.3936C13.7945 23.442 13.7177 23.468 13.6388 23.4673C13.551 23.4668 13.4665 23.4338 13.4015 23.3748C13.3366 23.3157 13.2958 23.2346 13.287 23.1473C12.9233 19.7309 10.8071 14.6573 8.57082 11.8372C8.54483 11.8064 8.53109 11.7672 8.53222 11.7269C8.53335 11.6866 8.54928 11.6481 8.57695 11.6188L9.12575 11.0526C9.15176 11.0204 9.18411 10.9938 9.22081 10.9746C9.25751 10.9554 9.29776 10.9439 9.33908 10.9409C9.35705 10.9413 9.3747 10.9457 9.39078 10.9537C9.40687 10.9617 9.42099 10.9732 9.43214 10.9873C11.9252 13.9364 13.3193 17.8294 13.6041 19.2535C13.6164 19.3137 13.6491 19.3679 13.6967 19.4068C13.7444 19.4456 13.804 19.4669 13.8654 19.4669C13.9269 19.4669 13.9865 19.4456 14.0341 19.4068C14.0817 19.3679 14.1145 19.3137 14.1268 19.2535C14.3536 18.3208 14.7404 17.4344 15.27 16.6338V16.63C15.2716 16.6276 15.2737 16.626 15.275 16.6236C16.7542 14.367 18.6853 12.4418 20.9464 10.9697C21.0061 10.9317 21.0483 10.8716 21.0637 10.8026C21.0791 10.7335 21.0664 10.6612 21.0284 10.6015C20.9905 10.5418 20.9304 10.4996 20.8614 10.4843C20.7923 10.4689 20.72 10.4816 20.6603 10.5195C18.4901 11.9268 16.6137 13.7421 15.1353 15.8646C13.9796 11.7948 16.0686 9.95918 17.0553 9.34578C19.0963 8.07632 22.2027 8.59744 23.4411 8.87907C23.4468 8.87966 23.4522 8.88201 23.4565 8.88577C23.4609 8.88954 23.464 8.89456 23.4653 8.90014C23.4668 8.90519 23.4668 8.91057 23.4652 8.91561C23.4637 8.92064 23.4606 8.92509 23.4565 8.92841H23.4555Z" fill="#9FD356" stroke="white" stroke-width="0.2"/>
</g>
</svg>
