<svg width="30" height="30" viewBox="0 0 30 30" fill="none" xmlns="http://www.w3.org/2000/svg">
<g id="right-arrow 1">
<g id="Group">
<g id="Group_2">
<g id="Group_3">
<g id="Group_4">
<path id="Vector" d="M29.3089 15.6106H0.69351C0.353125 15.6106 0.078125 15.3356 0.078125 14.9952C0.078125 14.6548 0.353125 14.3798 0.69351 14.3798H27.8224L24.0877 10.6452C23.8474 10.4048 23.8474 10.0144 24.0877 9.77404C24.3281 9.53365 24.7185 9.53365 24.9589 9.77404L29.7454 14.5606C29.9224 14.7375 29.9743 15.001 29.8781 15.2317C29.782 15.4606 29.557 15.6106 29.3089 15.6106Z" fill="white"/>
</g>
<g id="Group_5">
<path id="Vector_2" d="M24.5212 20.4034C24.3635 20.4034 24.2058 20.3438 24.0865 20.2227C23.8462 19.9823 23.8462 19.5919 24.0865 19.3515L28.8788 14.5592C29.1192 14.3188 29.5096 14.3188 29.75 14.5592C29.9904 14.7996 29.9904 15.19 29.75 15.4303L24.9577 20.2227C24.8365 20.3438 24.6788 20.4034 24.5212 20.4034Z" fill="white"/>
</g>
</g>
</g>
</g>
</g>
</svg>
