<svg width="24" height="24" viewBox="0 0 24 24" fill="none" xmlns="http://www.w3.org/2000/svg">
<g clip-path="url(#clip0_7199_7992)">
<path d="M5.81147 14.4587L11.2829 17.4984C11.5077 17.6233 11.7544 17.6858 12.001 17.6858C12.2477 17.6858 12.4944 17.6233 12.7192 17.4984L18.1906 14.4587C18.6598 14.198 18.9512 13.7027 18.9512 13.166V6.79414C18.9512 6.25738 18.6598 5.76205 18.1906 5.50142L12.7192 2.46177C12.2695 2.21192 11.7325 2.21192 11.2828 2.46177L5.81147 5.50142C5.34225 5.76205 5.05078 6.25738 5.05078 6.79414V13.166C5.05083 13.7027 5.3423 14.198 5.81147 14.4587ZM18.2481 13.166C18.2481 13.4475 18.0952 13.7073 17.8491 13.844L12.3777 16.8837C12.1418 17.0148 11.8602 17.0148 11.6243 16.8837L6.15295 13.844C5.90686 13.7073 5.75395 13.4475 5.75395 13.166V6.79414C5.75395 6.77258 5.75513 6.7512 5.75691 6.72997L11.6495 10.0036V15.5929C11.6495 15.7871 11.8069 15.9445 12.001 15.9445C12.1952 15.9445 12.3526 15.7871 12.3526 15.5929V10.0036L18.2452 6.72997C18.2469 6.7512 18.2481 6.77258 18.2481 6.79414V13.166ZM11.6243 3.07639C11.7423 3.01086 11.8717 2.97809 12.001 2.97809C12.1304 2.97809 12.2598 3.01086 12.3777 3.07639L17.8491 6.11605C17.8579 6.12092 17.8662 6.12627 17.8747 6.13142L12.001 9.39463L6.12731 6.13147C6.13584 6.12631 6.14419 6.12092 6.15291 6.11609L11.6243 3.07639Z" fill="#9B8164"/>
<path d="M20.3915 10.563C20.2167 10.4783 20.0065 10.5515 19.9219 10.7263C19.8373 10.9011 19.9105 11.1113 20.0852 11.1959C22.1574 12.1985 23.2986 13.5016 23.2986 14.8649C23.2986 16.19 22.2273 17.2032 21.3286 17.8198C21.1684 17.9297 21.1277 18.1485 21.2376 18.3086C21.3057 18.4079 21.4158 18.4613 21.5278 18.4613C21.5963 18.4613 21.6656 18.4413 21.7264 18.3996C23.2149 17.3783 24.0017 16.156 24.0017 14.8649C24.0017 13.2173 22.7196 11.6895 20.3915 10.563Z" fill="#9B8164"/>
<path d="M19.9032 18.7489L16.2725 18.4109C16.0791 18.393 15.9079 18.5351 15.8899 18.7284C15.8719 18.9217 16.014 19.093 16.2073 19.111L18.1313 19.2901C16.3053 19.8534 14.2088 20.1497 12 20.1497C8.94056 20.1497 6.06975 19.5759 3.91645 18.5339C1.8443 17.5313 0.703125 16.2283 0.703125 14.8649C0.703125 13.5089 1.83384 12.211 3.88692 11.2102C4.06148 11.1251 4.134 10.9147 4.04892 10.7401C3.96384 10.5656 3.75328 10.4931 3.57886 10.5781C1.27097 11.7031 0 13.2255 0 14.8649C0 16.5126 1.28212 18.0404 3.61017 19.1669C5.85708 20.2541 8.83664 20.8528 12 20.8528C14.2046 20.8528 16.3063 20.566 18.1556 20.0183L16.8017 21.0993C16.65 21.2204 16.6252 21.4417 16.7463 21.5934C16.8158 21.6804 16.918 21.7257 17.0213 21.7257C17.0982 21.7257 17.1757 21.7005 17.2404 21.6488L20.09 19.3737C20.2021 19.2842 20.2485 19.1356 20.2075 18.9982C20.1664 18.8609 20.046 18.7622 19.9032 18.7489Z" fill="#9B8164"/>
</g>
<defs>
<clipPath id="clip0_7199_7992">
<rect width="24" height="24" fill="white"/>
</clipPath>
</defs>
</svg>
