<svg width="25" height="24" viewBox="0 0 25 24" fill="none" xmlns="http://www.w3.org/2000/svg">
<path d="M21.8844 11.3625L8.39375 3.1125C8.28018 3.04244 8.14998 3.00396 8.01658 3.00101C7.88318 2.99806 7.75141 3.03075 7.63486 3.09571C7.5183 3.16068 7.42119 3.25556 7.35354 3.37057C7.28589 3.48558 7.25015 3.61656 7.25 3.75V20.25C7.25015 20.3834 7.28589 20.5144 7.35354 20.6294C7.42119 20.7444 7.5183 20.8393 7.63486 20.9043C7.75141 20.9692 7.88318 21.0019 8.01658 20.999C8.14998 20.996 8.28018 20.9576 8.39375 20.8875L21.8844 12.6375C21.9952 12.572 22.0869 12.4787 22.1507 12.367C22.2145 12.2552 22.248 12.1287 22.248 12C22.248 11.8713 22.2145 11.7448 22.1507 11.633C22.0869 11.5213 21.9952 11.428 21.8844 11.3625V11.3625Z" stroke="white" stroke-linecap="round" stroke-linejoin="round"/>
</svg>
