<svg width="24" height="24" viewBox="0 0 24 24" fill="none" xmlns="http://www.w3.org/2000/svg">
<rect width="24" height="24" rx="12" fill="#16222A"/>
<path d="M17.6716 6.27046C16.693 6.04744 14.237 5.63919 12.5809 6.6697C10.0297 8.25527 10.7313 11.2964 11.0657 12.3355C10.8004 12.7514 10.5813 13.1949 10.4121 13.6582C9.99028 12.2719 8.97729 9.87224 7.37911 7.98184C7.33475 7.92853 7.27957 7.88526 7.21724 7.85488C7.1549 7.8245 7.08682 7.80771 7.01751 7.80562C6.93065 7.80514 6.84469 7.8232 6.76537 7.85859C6.68604 7.89398 6.61518 7.94588 6.55751 8.01084L6.14552 8.43529C6.0577 8.52724 6.00619 8.64792 6.00052 8.77495C5.99486 8.90198 6.03543 9.02676 6.11472 9.12616C7.7527 11.1912 9.30149 14.9038 9.56768 17.4022C9.5836 17.5583 9.65415 17.7037 9.76686 17.8128C9.87957 17.9219 10.0272 17.9876 10.1837 17.9984C10.3402 18.0092 10.4954 17.9644 10.622 17.8718C10.7487 17.7792 10.8385 17.6448 10.8757 17.4925C11.2709 15.8427 11.9757 13.7121 12.5347 12.8936C12.9657 12.882 14.5858 12.78 15.5766 11.9059C16.2366 11.323 16.4074 10.7037 16.7464 9.4698C16.812 9.23117 16.8844 8.96795 16.9682 8.67572C17.2348 7.74522 17.6066 7.24136 17.873 6.98134C17.9272 6.92852 17.9662 6.86204 17.9857 6.78891C18.0053 6.71577 18.0047 6.63872 17.9841 6.56588C17.9635 6.49305 17.9235 6.42715 17.8685 6.37514C17.8135 6.32314 17.7455 6.28697 17.6716 6.27046ZM17.5916 6.69631C17.102 7.2236 16.7549 7.86698 16.583 8.5657C16.4986 8.85954 16.426 9.12396 16.36 9.36379C16.032 10.5575 15.8824 11.1022 15.3112 11.606C14.3156 12.4845 12.5045 12.4951 12.4337 12.4951H12.4311C12.4 12.4951 12.3694 12.5024 12.3416 12.5162C12.3138 12.5301 12.2897 12.5503 12.2711 12.5751C11.6659 13.38 10.9153 15.6111 10.4867 17.4004C10.4725 17.4579 10.4394 17.5089 10.3926 17.5452C10.3459 17.5815 10.2883 17.601 10.2291 17.6005C10.1632 17.6001 10.0998 17.5754 10.0511 17.5311C10.0024 17.4867 9.97185 17.426 9.96528 17.3604C9.69248 14.7982 8.1053 10.993 6.42811 8.87794C6.40862 8.85484 6.39832 8.82537 6.39917 8.79515C6.40001 8.76494 6.41196 8.73609 6.43271 8.71412L6.84431 8.28947C6.86382 8.26529 6.88808 8.24537 6.91561 8.23095C6.94313 8.21654 6.97332 8.20793 7.00431 8.20567C7.01778 8.20599 7.03102 8.20927 7.04309 8.21529C7.05515 8.2213 7.06574 8.2299 7.07411 8.24047C8.94389 10.4523 9.98948 13.372 10.2031 14.4401C10.2123 14.4853 10.2368 14.5259 10.2726 14.5551C10.3083 14.5842 10.353 14.6002 10.3991 14.6001C10.4452 14.6002 10.4899 14.5842 10.5256 14.5551C10.5613 14.5259 10.5859 14.4853 10.5951 14.4401C10.7652 13.7406 11.0553 13.0758 11.4525 12.4753V12.4725C11.4537 12.4707 11.4553 12.4695 11.4563 12.4677C12.5656 10.7753 14.014 9.33135 15.7098 8.22727C15.7546 8.19881 15.7862 8.15373 15.7978 8.10194C15.8093 8.05016 15.7998 7.99591 15.7713 7.95114C15.7429 7.90637 15.6978 7.87473 15.646 7.8632C15.5942 7.85166 15.54 7.86117 15.4952 7.88963C13.8676 8.94509 12.4603 10.3066 11.3515 11.8985C10.4847 8.84613 12.0515 7.46939 12.7915 7.00934C14.3222 6.05724 16.652 6.44808 17.5808 6.6593C17.5851 6.65975 17.5891 6.6615 17.5924 6.66433C17.5957 6.66716 17.598 6.67092 17.599 6.6751C17.6001 6.67889 17.6001 6.68293 17.5989 6.6867C17.5977 6.69048 17.5955 6.69382 17.5924 6.69631H17.5916Z" fill="white" stroke="white" stroke-width="0.2"/>
</svg>
