<svg width="24" height="24" viewBox="0 0 24 24" fill="none" xmlns="http://www.w3.org/2000/svg">
<g clip-path="url(#clip0_2581_3935)">
<path d="M21.3219 10.6181L18.1782 7.64447L21.33 4.56647C21.5345 4.3667 21.5978 4.06293 21.49 3.79816C21.3821 3.53339 21.1247 3.36035 20.8387 3.36035H14.322V2.16724C14.322 1.77887 14.0072 1.46411 13.6188 1.46411H5.92383V0.703125C5.92383 0.314758 5.60889 0 5.2207 0C4.83234 0 4.51758 0.314758 4.51758 0.703125V18.4644C3.32227 18.7766 2.4375 19.8655 2.4375 21.1573V23.2969C2.4375 23.6852 2.75226 24 3.14063 24H7.30078C7.68897 24 8.00391 23.6852 8.00391 23.2969V21.1573C8.00391 19.8655 7.11914 18.7766 5.92383 18.4644V8.35565H8.14581V11.1288C8.14581 11.5172 8.46057 11.8319 8.84894 11.8319H20.8387C21.1267 11.8319 21.3856 11.6565 21.492 11.389C21.5986 11.1215 21.5312 10.8159 21.3219 10.6181ZM12.9157 2.87036V6.9494H5.92383V2.87036H12.9157ZM6.59766 21.1573V22.5938H3.84375V21.1573C3.84375 20.3981 4.46155 19.7803 5.2207 19.7803C5.97986 19.7803 6.59766 20.3981 6.59766 21.1573ZM11.4604 8.35565L9.55206 9.74634V8.35565H11.4604ZM11.0074 10.4258L14.0118 8.23572C14.0123 8.23535 14.0131 8.2348 14.0138 8.23425L14.016 8.2326C14.2007 8.1059 14.322 7.89349 14.322 7.65253V4.7666H19.1124L16.6721 7.14954C16.5353 7.2832 16.4588 7.46686 16.4603 7.6582C16.4619 7.84955 16.5414 8.03192 16.6802 8.16339L19.0721 10.4258H11.0074Z" fill="#9B8164"/>
</g>
<defs>
<clipPath id="clip0_2581_3935">
<rect width="24" height="24" fill="white"/>
</clipPath>
</defs>
</svg>
