<svg width="24" height="24" viewBox="0 0 24 24" fill="none" xmlns="http://www.w3.org/2000/svg">
<path d="M19.0781 1.40625C18.0316 1.40625 17.0164 1.73536 16.1804 2.32964C15.2991 0.905813 13.7204 0 12 0C10.2796 0 8.70089 0.905813 7.81964 2.32964C6.98358 1.73536 5.96836 1.40625 4.92188 1.40625C2.20795 1.40625 0 3.6142 0 6.32812C0 8.52267 1.46213 10.444 3.55505 11.0481L4.21875 17.7067V21.8906C4.21875 23.0537 5.16502 24 6.32812 24H17.625C18.7905 24 19.7812 23.058 19.7812 21.8906V17.7067L20.445 11.0481C22.5368 10.4443 24 8.5238 24 6.32812C24 3.6142 21.792 1.40625 19.0781 1.40625ZM18.375 21.8906C18.375 22.2652 18.0245 22.5938 17.625 22.5938H6.32812C5.94042 22.5938 5.625 22.2783 5.625 21.8906V18.375H18.375V21.8906ZM19.6773 9.78342C19.3652 9.83658 19.1271 10.0918 19.0957 10.4069L18.4416 16.9688H5.55839L4.9043 10.4069C4.87289 10.0918 4.63477 9.83658 4.32263 9.78342C2.63278 9.4958 1.40625 8.04263 1.40625 6.32812C1.40625 4.38961 2.98336 2.8125 4.92188 2.8125C5.77941 2.8125 6.60614 3.1193 7.24556 3.66394C7.13475 4.07536 7.07812 4.49662 7.07812 4.92188C7.07812 5.31019 7.39294 5.625 7.78125 5.625C8.16956 5.625 8.48438 5.31019 8.48438 4.92188C8.48438 3.0892 9.97359 1.40625 12 1.40625C14.028 1.40625 15.5156 3.09052 15.5156 4.92188C15.5156 5.31019 15.8304 5.625 16.2188 5.625C16.6071 5.625 16.9219 5.31019 16.9219 4.92188C16.9219 4.49667 16.8652 4.07536 16.7544 3.66398C17.3939 3.1193 18.2206 2.8125 19.0781 2.8125C21.0166 2.8125 22.5938 4.38961 22.5938 6.32812C22.5938 8.04263 21.3672 9.4958 19.6773 9.78342Z" fill="#9B8164"/>
</svg>
