<svg width="24" height="24" viewBox="0 0 24 24" fill="none" xmlns="http://www.w3.org/2000/svg">
<path fill-rule="evenodd" clip-rule="evenodd" d="M12 3.28125C12.3883 3.28125 12.7031 2.96645 12.7031 2.57813V0.703125C12.7031 0.3148 12.3883 2.38419e-07 12 2.38419e-07C11.6117 2.38419e-07 11.2969 0.3148 11.2969 0.703125V2.57813C11.2969 2.96645 11.6117 3.28125 12 3.28125Z" fill="#9B8164"/>
<path fill-rule="evenodd" clip-rule="evenodd" d="M14.4611 3.18705C14.7974 3.38122 15.2274 3.26599 15.4215 2.92969L16.359 1.3059C16.5532 0.969596 16.438 0.539572 16.1017 0.345409C15.7654 0.151247 15.3354 0.266471 15.1412 0.60277L14.2037 2.22657C14.0095 2.56287 14.1248 2.99289 14.4611 3.18705Z" fill="#9B8164"/>
<path fill-rule="evenodd" clip-rule="evenodd" d="M9.53918 3.18705C9.87548 2.99289 9.9907 2.56287 9.79654 2.22657L8.85904 0.60277C8.66488 0.266471 8.23485 0.151247 7.89855 0.345409C7.56226 0.539572 7.44703 0.969596 7.64119 1.3059L8.57869 2.92969C8.77286 3.26599 9.20288 3.38122 9.53918 3.18705Z" fill="#9B8164"/>
<path fill-rule="evenodd" clip-rule="evenodd" d="M12.8996 11.3988C13.0465 14.5188 15.9832 16.7441 19.0267 16.0414C22.0701 15.3388 23.7342 12.0513 22.4984 9.18266L20.3916 4.29181C20.2572 3.97973 19.9188 3.80844 19.5877 3.88488L13.1934 5.36112C12.8623 5.43756 12.6332 5.73985 12.6492 6.07928L12.8996 11.3988ZM14.3043 11.3326C14.3043 11.3326 14.3043 11.3326 14.3043 11.3326L14.0815 6.59933L19.3322 5.3871L21.2069 9.73901C22.0956 11.8019 20.8989 14.1659 18.7104 14.6712C16.5218 15.1765 14.4099 13.5763 14.3043 11.3326Z" fill="#9B8164"/>
<path fill-rule="evenodd" clip-rule="evenodd" d="M20.0819 20.6088C20.4603 20.5214 20.6962 20.1439 20.6089 19.7655L19.5544 15.1981C19.467 14.8198 19.0895 14.5839 18.7111 14.6712C18.3328 14.7586 18.0968 15.1361 18.1842 15.5145L19.2386 20.0818C19.326 20.4602 19.7035 20.6961 20.0819 20.6088Z" fill="#9B8164"/>
<path fill-rule="evenodd" clip-rule="evenodd" d="M17.244 23.7051C17.4091 23.9367 17.6975 24.0459 17.9746 23.9819L23.4554 22.7166C23.7325 22.6526 23.9438 22.428 23.9907 22.1475C24.0376 21.8671 23.911 21.5859 23.6698 21.4352L20.2967 19.3275C19.9674 19.1217 19.5336 19.2218 19.3279 19.5512L17.2201 22.9242C17.0694 23.1654 17.0788 23.4736 17.244 23.7051ZM19.3122 22.2299L20.1478 20.8926L21.4851 21.7282L19.3122 22.2299Z" fill="#9B8164"/>
<path fill-rule="evenodd" clip-rule="evenodd" d="M17.2116 9.41465C18.6991 10.0204 20.3791 9.93242 21.7951 9.17443C22.1375 8.99117 22.2665 8.56506 22.0832 8.2227C21.8999 7.88034 21.4738 7.75137 21.1315 7.93464C20.0844 8.49514 18.842 8.56024 17.742 8.11226C16.2545 7.50648 14.5745 7.59455 13.1586 8.35247C12.8162 8.53573 12.6872 8.96183 12.8705 9.30419C13.0537 9.64656 13.4798 9.77554 13.8222 9.59229C14.8693 9.0318 16.1116 8.96668 17.2116 9.41465Z" fill="#9B8164"/>
<path fill-rule="evenodd" clip-rule="evenodd" d="M9.69506 11.3326C9.58941 13.5763 7.47759 15.1765 5.28899 14.6712L5.28898 14.6712C3.10042 14.1659 1.90379 11.8019 2.79242 9.73901L2.14666 9.46083L2.79242 9.73901L4.6671 5.3871L9.91783 6.59933L9.69506 11.3326ZM4.97264 16.0414C8.01613 16.7441 10.9528 14.5188 11.0998 11.3987L11.3501 6.07928C11.3661 5.73985 11.137 5.43756 10.8059 5.36112L4.41167 3.88488C4.08057 3.80844 3.74218 3.97973 3.60774 4.29181L1.5009 9.18266C0.265159 12.0513 1.9292 15.3388 4.97264 16.0414Z" fill="#9B8164"/>
<path fill-rule="evenodd" clip-rule="evenodd" d="M3.91816 20.6088C4.29653 20.6961 4.67408 20.4602 4.76143 20.0818L5.81588 15.5145C5.90324 15.1361 5.66732 14.7586 5.28895 14.6712C4.91058 14.5839 4.53303 14.8198 4.44568 15.1981L3.39122 19.7655C3.30387 20.1439 3.53979 20.5214 3.91816 20.6088Z" fill="#9B8164"/>
<path fill-rule="evenodd" clip-rule="evenodd" d="M6.75639 23.7051C6.92153 23.4736 6.93095 23.1654 6.78025 22.9242L4.67251 19.5512C4.46673 19.2218 4.03295 19.1217 3.70363 19.3275L0.330553 21.4352C0.0893784 21.5859 -0.0372672 21.8671 0.00967028 22.1475C0.0566079 22.428 0.267885 22.6526 0.544984 22.7166L6.0258 23.9819C6.3029 24.0459 6.59125 23.9367 6.75639 23.7051ZM2.51531 21.7282L3.85255 20.8926L4.68815 22.2299L2.51531 21.7282Z" fill="#9B8164"/>
<path fill-rule="evenodd" clip-rule="evenodd" d="M6.25853 8.11226C5.15852 8.56024 3.91616 8.49514 2.86908 7.93464C2.52672 7.75137 2.10062 7.88034 1.91735 8.2227C1.73408 8.56506 1.86306 8.99117 2.20541 9.17443C3.62142 9.93242 5.30144 10.0204 6.78893 9.41465C7.88893 8.96668 9.13125 9.0318 10.1784 9.59229C10.5207 9.77554 10.9468 9.64656 11.1301 9.30419C11.3133 8.96183 11.1843 8.53573 10.842 8.35247C9.426 7.59455 7.74604 7.50648 6.25853 8.11226Z" fill="#9B8164"/>
</svg>
