<svg width="22" height="22" viewBox="0 0 22 22" fill="none" xmlns="http://www.w3.org/2000/svg">
<path d="M10.9862 21.9998C10.3254 21.9998 9.66458 21.7428 9.15061 21.2656L7.75553 19.8705C7.53525 19.6502 7.27826 19.5401 6.98456 19.5401H5.00209C3.5703 19.5401 2.43221 18.402 2.43221 16.9702V14.9877C2.43221 14.694 2.32207 14.4003 2.10179 14.2168L0.743429 12.8217C-0.24781 11.8304 -0.24781 10.1784 0.743429 9.18713L2.13851 7.79206C2.35878 7.57178 2.46892 7.31479 2.46892 7.02109V5.03862C2.46892 3.60683 3.60701 2.46874 5.0388 2.46874H7.02128C7.31498 2.46874 7.60868 2.3586 7.79224 2.13832L9.15061 0.743246C10.1418 -0.247993 11.7939 -0.247993 12.7851 0.743246L14.1802 2.13832C14.4005 2.3586 14.6575 2.46874 14.9512 2.46874H16.9337C18.3655 2.46874 19.5035 3.60683 19.5035 5.03862V7.02109C19.5035 7.31479 19.6137 7.60849 19.834 7.79206L21.229 9.18713C22.2203 10.1784 22.2203 11.8304 21.229 12.8217L19.834 14.2168C19.6137 14.437 19.5035 14.694 19.5035 14.9877V16.9702C19.5035 18.402 18.3655 19.5401 16.9337 19.5401H14.9512C14.6575 19.5401 14.3638 19.6502 14.1802 19.8705L12.8219 21.2289C12.3079 21.7428 11.6471 21.9998 10.9862 21.9998ZM5.00209 3.90053C4.37797 3.90053 3.90071 4.4145 3.90071 5.0019V6.98438C3.90071 7.68192 3.64372 8.30603 3.12975 8.82001L1.73467 10.2151C1.29412 10.6556 1.29412 11.3532 1.73467 11.7937L3.12975 13.1888C3.60701 13.6661 3.90071 14.3269 3.90071 15.0244V17.0069C3.90071 17.631 4.41469 18.1083 5.00209 18.1083H6.98456C7.6821 18.1083 8.30622 18.3653 8.82019 18.8792L10.2153 20.2743C10.6558 20.7149 11.3534 20.7149 11.7939 20.2743L13.189 18.8792C13.6663 18.402 14.3271 18.1083 15.0246 18.1083H17.0071C17.6312 18.1083 18.1085 17.5943 18.1085 17.0069V15.0244C18.1085 14.3269 18.3655 13.7028 18.8794 13.1888L20.2745 11.7937C20.7151 11.3532 20.7151 10.6556 20.2745 10.2151L18.8794 8.82001C18.4022 8.34275 18.1085 7.68192 18.1085 6.98438V5.0019C18.1085 4.37779 17.5945 3.90053 17.0071 3.90053H15.0246C14.3271 3.90053 13.703 3.64354 13.189 3.12956L11.7939 1.73449C11.3534 1.29393 10.6558 1.29393 10.2153 1.73449L8.82019 3.12956C8.34293 3.60683 7.6821 3.90053 6.98456 3.90053H5.00209Z" fill="#9B8164"/>
</svg>
