<svg width="30" height="30" viewBox="0 0 30 30" fill="none" xmlns="http://www.w3.org/2000/svg">
<path d="M0.691105 15.6106H29.3065C29.6469 15.6106 29.9219 15.3356 29.9219 14.9952C29.9219 14.6548 29.6469 14.3798 29.3065 14.3798H2.17764L5.91226 10.6452C6.15264 10.4048 6.15264 10.0144 5.91226 9.77404C5.67188 9.53365 5.28149 9.53365 5.0411 9.77404L0.254566 14.5606C0.0776443 14.7375 0.0257206 15.001 0.121874 15.2317C0.218029 15.4606 0.443027 15.6106 0.691105 15.6106Z" fill="white"/>
<path d="M5.47884 20.4034C5.63654 20.4034 5.79423 20.3438 5.91346 20.2227C6.15385 19.9823 6.15385 19.5919 5.91346 19.3515L1.12115 14.5592C0.880768 14.3188 0.490385 14.3188 0.25 14.5592C0.0096159 14.7996 0.0096159 15.19 0.25 15.4303L5.04231 20.2227C5.16346 20.3438 5.32115 20.4034 5.47884 20.4034Z" fill="white"/>
</svg>
