<svg width="30" height="12" viewBox="0 0 30 12" fill="none" xmlns="http://www.w3.org/2000/svg">
<path d="M29.3089 6.61058H0.69351C0.353125 6.61058 0.078125 6.33558 0.078125 5.99519C0.078125 5.65481 0.353125 5.37981 0.69351 5.37981H27.8224L24.0877 1.64519C23.8474 1.40481 23.8474 1.01442 24.0877 0.774038C24.3281 0.533654 24.7185 0.533654 24.9589 0.774038L29.7454 5.56058C29.9224 5.7375 29.9743 6.00096 29.8781 6.23173C29.782 6.46058 29.557 6.61058 29.3089 6.61058Z" fill="white"/>
<path d="M24.5172 11.4034C24.3596 11.4034 24.2019 11.3438 24.0826 11.2227C23.8422 10.9823 23.8422 10.5919 24.0826 10.3515L28.8749 5.55919C29.1153 5.31881 29.5057 5.31881 29.7461 5.55919C29.9865 5.79958 29.9865 6.18996 29.7461 6.43035L24.9538 11.2227C24.8326 11.3438 24.6749 11.4034 24.5172 11.4034Z" fill="white"/>
</svg>
