<svg width="19" height="18" viewBox="0 0 19 18" fill="none" xmlns="http://www.w3.org/2000/svg">
<g clip-path="url(#clip0_2384_2156)">
<path d="M0.5 15.3281H18.5V2.67188H0.5V15.3281ZM1.55469 9H4.24773C4.33354 10.0245 4.68289 10.6831 5.29004 10.9605C5.74029 11.1662 6.23539 11.1184 6.70483 10.9611C6.465 11.4907 6.33594 12.0862 6.33594 12.6914H7.39062C7.39062 11.4872 8.049 10.4376 8.97266 10.1389V14.2734H1.55469V9ZM11.082 9.00338V7.94197C12.1512 7.05245 12.9472 6.79595 13.2717 6.94417C13.5558 7.07393 13.7188 7.63105 13.7188 8.47266C13.7188 9.31426 13.5558 9.87138 13.2717 10.0012C12.9472 10.1494 12.1512 9.89286 11.082 9.00338ZM10.0273 7.94531V9H8.97266V7.94531H10.0273ZM7.91797 9.00338C6.8488 9.8929 6.05297 10.1495 5.7283 10.0012C5.4442 9.87138 5.28125 9.31426 5.28125 8.47266C5.28125 7.63105 5.4442 7.07393 5.7283 6.94413C6.05282 6.79584 6.84873 7.05241 7.91797 7.94194V9.00338ZM10.0273 14.2734V10.1389C10.951 10.4376 11.6094 11.4872 11.6094 12.6914H12.6641C12.6641 12.0862 12.535 11.4908 12.2952 10.9612C12.7645 11.1184 13.2596 11.1662 13.71 10.9605C14.3171 10.6832 14.6665 10.0245 14.7523 9.00004H17.4453V14.2735H10.0273V14.2734ZM17.4453 7.94531H14.7523C14.6665 6.92086 14.3171 6.26217 13.71 5.98482C12.7953 5.56696 11.6403 6.17252 10.7072 6.89062H10.0273V3.72656H17.4453V7.94531ZM8.97266 3.72656V6.89062H8.2928C7.35969 6.17252 6.20473 5.56696 5.29004 5.98482C4.68293 6.26217 4.33354 6.92086 4.24773 7.94531H1.55469V3.72656H8.97266Z" fill="white"/>
</g>
<defs>
<clipPath id="clip0_2384_2156">
<rect width="18" height="18" fill="white" transform="translate(0.5)"/>
</clipPath>
</defs>
</svg>
