<svg width="25" height="24" viewBox="0 0 25 24" fill="none" xmlns="http://www.w3.org/2000/svg">
<path d="M4 18V16C4 15.8674 4.05268 15.7402 4.14645 15.6464C4.24021 15.5527 4.36739 15.5 4.5 15.5C4.63261 15.5 4.75979 15.5527 4.85355 15.6464C4.94732 15.7402 5 15.8674 5 16V18C5.00043 18.3977 5.15861 18.779 5.43982 19.0602C5.72103 19.3414 6.10231 19.4996 6.5 19.5H18.5C18.8977 19.4996 19.279 19.3414 19.5602 19.0602C19.8414 18.779 19.9996 18.3977 20 18V16C20 15.8674 20.0527 15.7402 20.1464 15.6464C20.2402 15.5527 20.3674 15.5 20.5 15.5C20.6326 15.5 20.7598 15.5527 20.8536 15.6464C20.9473 15.7402 21 15.8674 21 16V18C20.9994 18.6629 20.7358 19.2984 20.2671 19.7671C19.7984 20.2358 19.1629 20.4994 18.5 20.5H6.5C5.83715 20.4994 5.20162 20.2358 4.73291 19.7671C4.2642 19.2984 4.00061 18.6629 4 18ZM7.14648 8.64648C7.10005 8.6929 7.06321 8.748 7.03808 8.80866C7.01295 8.86931 7.00002 8.93433 7.00002 8.99998C7.00002 9.06563 7.01295 9.13065 7.03808 9.1913C7.06321 9.25196 7.10005 9.30706 7.14648 9.35348L12.1465 14.3535C12.1929 14.3999 12.248 14.4367 12.3087 14.4619C12.3693 14.487 12.4343 14.4999 12.5 14.4999C12.5656 14.4999 12.6306 14.487 12.6913 14.4619C12.752 14.4367 12.8071 14.3999 12.8535 14.3535L17.8535 9.35348C17.9446 9.25918 17.995 9.13288 17.9938 9.00178C17.9927 8.87068 17.9401 8.74527 17.8474 8.65257C17.7547 8.55987 17.6293 8.50728 17.4982 8.50614C17.3671 8.505 17.2408 8.5554 17.1465 8.64648L13 12.793V4C13 3.86739 12.9473 3.74021 12.8536 3.64645C12.7598 3.55268 12.6326 3.5 12.5 3.5C12.3674 3.5 12.2402 3.55268 12.1464 3.64645C12.0527 3.74021 12 3.86739 12 4V12.793L7.85352 8.64648C7.8071 8.60004 7.75199 8.5632 7.69133 8.53807C7.63068 8.51293 7.56566 8.5 7.5 8.5C7.43434 8.5 7.36932 8.51293 7.30867 8.53807C7.24801 8.5632 7.1929 8.60004 7.14648 8.64648Z" fill="#9B8164"/>
</svg>
