<svg width="36" height="36" viewBox="0 0 36 36" fill="none" xmlns="http://www.w3.org/2000/svg">
<g id="free-icon-star-2099045 1" clip-path="url(#clip0_5641_20165)">
<g id="g57">
<g id="g59">
<g id="Clip path group">
<mask id="mask0_5641_20165" style="mask-type:luminance" maskUnits="userSpaceOnUse" x="0" y="0" width="36" height="36">
<g id="clipPath65">
<path id="path63" d="M0 3.8147e-06H36V36H0V3.8147e-06Z" fill="white"/>
</g>
</mask>
<g mask="url(#mask0_5641_20165)">
<g id="g61">
<g id="g67">
<path id="path69" d="M15.9674 3.03611C16.3493 2.26267 17.137 1.77302 18 1.77302C18.863 1.77302 19.6507 2.26267 20.0326 3.03611C21.2645 5.5322 22.7423 8.52702 23.5136 10.0899C23.8439 10.759 24.482 11.2226 25.2203 11.3302C26.9453 11.5807 30.2505 12.0606 33.0045 12.4613C33.8585 12.5854 34.5679 13.1832 34.8342 14.0037C35.1011 14.8242 34.8784 15.7252 34.2607 16.327C32.2678 18.2701 29.876 20.6013 28.6282 21.8179C28.0938 22.3386 27.8502 23.0889 27.976 23.8239C28.2706 25.5419 28.8356 28.8336 29.3059 31.5769C29.4515 32.4274 29.1025 33.2864 28.4044 33.7935C27.7062 34.3008 26.7809 34.3676 26.0171 33.9664C23.5538 32.6711 20.5976 31.1172 19.0546 30.3058C18.3944 29.959 17.6056 29.959 16.9455 30.3058C15.4025 31.1172 12.4462 32.6711 9.983 33.9664C9.21913 34.3676 8.29374 34.3008 7.59568 33.7935C6.89755 33.2864 6.54852 32.4274 6.69406 31.5769C7.16445 28.8336 7.72934 25.5419 8.02402 23.8239C8.14981 23.0889 7.90618 22.3386 7.37181 21.8179C6.12404 20.6013 3.73222 18.2701 1.73928 16.327C1.12159 15.7252 0.898908 14.8242 1.16581 14.0037C1.43216 13.1832 2.14161 12.5854 2.99556 12.4613C5.74949 12.0606 9.05481 11.5807 10.7797 11.3302C11.5181 11.2226 12.1561 10.759 12.4865 10.0899C13.2577 8.52702 14.7355 5.5322 15.9674 3.03611Z" stroke="white" stroke-width="2" stroke-miterlimit="10" stroke-linecap="round" stroke-linejoin="round"/>
</g>
</g>
</g>
</g>
</g>
</g>
</g>
<defs>
<clipPath id="clip0_5641_20165">
<rect width="36" height="36" fill="white"/>
</clipPath>
</defs>
</svg>
