<svg width="21" height="20" viewBox="0 0 21 20" fill="none" xmlns="http://www.w3.org/2000/svg">
<g id="rice 1" clip-path="url(#clip0_4386_24431)">
<g id="Group">
<g id="Group_2">
<path id="Vector" d="M19.9102 8.20312H19.2645C19.1451 7.62258 18.8508 7.0893 18.4197 6.67641C18.6415 5.91457 18.5479 5.08945 18.1467 4.39453C17.7455 3.69961 17.0777 3.20602 16.307 3.01719C16.1182 2.24656 15.6246 1.57875 14.9296 1.1775C14.2348 0.776328 13.4096 0.682734 12.6478 0.904531C12.099 0.331562 11.3376 0 10.5352 0C9.72012 0 8.90633 0.345469 8.34957 0.906055C7.58633 0.682344 6.75891 0.77543 6.0625 1.1775C5.36758 1.57871 4.87398 2.24656 4.68512 3.01715C3.91449 3.20598 3.24668 3.69957 2.84547 4.39449C2.44426 5.08938 2.3507 5.91453 2.5725 6.67637C2.14141 7.0893 1.84711 7.62258 1.72773 8.20312H1.08203C0.758437 8.20312 0.496094 8.46547 0.496094 8.78906C0.496094 12.2289 2.27934 15.4188 5.18359 17.2367V18.2422C5.18359 19.2114 5.97215 20 6.94141 20H14.0508C15.02 20 15.8086 19.2114 15.8086 18.2422V17.2367C18.7129 15.4188 20.4961 12.2289 20.4961 8.78906C20.4961 8.46547 20.2338 8.20312 19.9102 8.20312ZM3.60141 7.34449C3.83711 7.18133 3.92012 6.87156 3.79762 6.61234C3.54973 6.08789 3.57316 5.47785 3.86035 4.98047C4.14754 4.48305 4.66414 4.1577 5.24219 4.11016C5.52789 4.08668 5.75465 3.85992 5.77816 3.57422C5.8257 2.99613 6.15102 2.47957 6.64844 2.19234C7.14582 1.90516 7.7559 1.88176 8.28031 2.12961C8.53949 2.25215 8.84926 2.1691 9.01242 1.9334C9.32781 1.47793 9.93973 1.17188 10.5352 1.17188C11.1096 1.17188 11.6496 1.45656 11.9797 1.93344C12.1429 2.16914 12.4527 2.25219 12.7119 2.12965C13.2363 1.88176 13.8463 1.9052 14.3437 2.19238C14.8411 2.47957 15.1665 2.99613 15.214 3.57422C15.2375 3.85992 15.4642 4.08668 15.7499 4.1102C16.328 4.15773 16.8446 4.48309 17.1318 4.98051C17.419 5.47789 17.4424 6.08793 17.1945 6.61238C17.072 6.87156 17.155 7.18137 17.3907 7.34453C17.6997 7.55844 17.9273 7.86074 18.0498 8.20316H2.94234C3.0648 7.8607 3.29238 7.5584 3.60141 7.34449ZM14.6367 18.2422C14.6367 18.5653 14.3739 18.8281 14.0508 18.8281H6.94141C6.61832 18.8281 6.35547 18.5653 6.35547 18.2422V17.5781H14.6367V18.2422ZM14.914 16.4062H6.0782C3.52461 14.9326 1.8827 12.2802 1.68758 9.36719H19.3046C19.1095 12.2802 17.4676 14.9326 14.914 16.4062Z" fill="white"/>
</g>
</g>
<g id="Group_3">
<g id="Group_4">
<path id="Vector_2" d="M12.8789 5.85938C13.2025 5.85938 13.4648 5.59704 13.4648 5.27344C13.4648 4.94983 13.2025 4.6875 12.8789 4.6875C12.5553 4.6875 12.293 4.94983 12.293 5.27344C12.293 5.59704 12.5553 5.85938 12.8789 5.85938Z" fill="white"/>
</g>
</g>
<g id="Group_5">
<g id="Group_6">
<path id="Vector_3" d="M15.2227 7.03125C15.5463 7.03125 15.8086 6.76892 15.8086 6.44531C15.8086 6.12171 15.5463 5.85938 15.2227 5.85938C14.8991 5.85938 14.6367 6.12171 14.6367 6.44531C14.6367 6.76892 14.8991 7.03125 15.2227 7.03125Z" fill="white"/>
</g>
</g>
<g id="Group_7">
<g id="Group_8">
<path id="Vector_4" d="M5.76953 5.85938C6.09314 5.85938 6.35547 5.59704 6.35547 5.27344C6.35547 4.94983 6.09314 4.6875 5.76953 4.6875C5.44593 4.6875 5.18359 4.94983 5.18359 5.27344C5.18359 5.59704 5.44593 5.85938 5.76953 5.85938Z" fill="white"/>
</g>
</g>
</g>
<defs>
<clipPath id="clip0_4386_24431">
<rect width="20" height="20" fill="white" transform="translate(0.5)"/>
</clipPath>
</defs>
</svg>
