<svg width="65" height="66" viewBox="0 0 65 66" fill="none" xmlns="http://www.w3.org/2000/svg">
<g id="free-icon-play-button-3747096 1">
<path id="Vector" d="M45.0518 32.0129L26.1928 21.1214C26.0196 21.0214 25.8232 20.9687 25.6233 20.9688C25.4234 20.9688 25.227 21.0214 25.0538 21.1214C24.8807 21.2214 24.7369 21.3652 24.637 21.5384C24.537 21.7116 24.4844 21.9081 24.4844 22.1081V43.8911C24.4836 44.0913 24.5358 44.2883 24.6356 44.4619C24.7354 44.6355 24.8793 44.7797 25.0527 44.8798C25.226 44.98 25.4228 45.0325 25.623 45.0322C25.8232 45.0318 26.0198 44.9785 26.1928 44.8778L45.0518 33.9862C45.2249 33.8862 45.3687 33.7424 45.4687 33.5692C45.5686 33.396 45.6213 33.1995 45.6213 32.9996C45.6213 32.7996 45.5686 32.6031 45.4687 32.4299C45.3687 32.2567 45.2249 32.1129 45.0518 32.0129ZM25.988 43.2594V22.7397L43.7532 32.9996L25.988 43.2594Z" fill="white"/>
<rect x="0.929688" y="1.41797" width="63.1502" height="63.1691" rx="31.5751" stroke="white"/>
</g>
</svg>
