<svg width="44" height="45" viewBox="0 0 44 45" fill="none" xmlns="http://www.w3.org/2000/svg">
<g id="free-icon-quote-7350737 1">
<path id="Vector" d="M8.61302 33.4206C6.77969 31.4039 5.67969 29.2039 5.67969 25.5372C5.67969 19.1206 10.263 13.4372 16.6797 10.5039L18.3297 12.8872C12.2797 16.1872 10.9964 20.4039 10.6297 23.1539C11.5464 22.6039 12.8297 22.4206 14.113 22.6039C17.413 22.9706 19.9797 25.5372 19.9797 29.0206C19.9797 30.6706 19.2464 32.3206 18.1464 33.6039C16.863 34.8872 15.3964 35.4372 13.563 35.4372C11.5464 35.4372 9.71302 34.5206 8.61302 33.4206ZM26.9464 33.4206C25.113 31.4039 24.013 29.2039 24.013 25.5372C24.013 19.1206 28.5964 13.4372 35.013 10.5039L36.663 12.8872C30.613 16.1872 29.3297 20.4039 28.963 23.1539C29.8797 22.6039 31.163 22.4206 32.4464 22.6039C35.7464 22.9706 38.313 25.5372 38.313 29.0206C38.313 30.6706 37.5797 32.3206 36.4797 33.6039C35.3797 34.8872 33.7297 35.4372 31.8964 35.4372C29.8797 35.4372 28.0464 34.5206 26.9464 33.4206Z" fill="white"/>
</g>
</svg>
