<svg width="247" height="53" viewBox="0 0 247 53" fill="none" xmlns="http://www.w3.org/2000/svg">
<g id="TripAdvisor_Logo 1" clip-path="url(#clip0_5641_20332)">
<g id="Group">
<path id="Vector" d="M243.077 35.718C242.319 35.718 241.703 36.3339 241.703 37.0921C241.703 37.8504 242.319 38.4662 243.077 38.4662C243.835 38.4662 244.451 37.8504 244.451 37.0921C244.451 36.3339 243.835 35.718 243.077 35.718ZM243.077 38.2483C242.438 38.2483 241.921 37.7282 241.921 37.0921C241.921 36.453 242.441 35.936 243.077 35.936C243.716 35.936 244.236 36.456 244.236 37.0921C244.236 37.7283 243.716 38.2483 243.077 38.2483ZM243.525 36.8568C243.525 36.607 243.347 36.4588 243.086 36.4588H242.647V37.7109H242.862V37.2577H243.097L243.324 37.7109H243.556L243.306 37.2113C243.44 37.1502 243.525 37.0281 243.525 36.8568ZM243.077 37.0631H242.865V36.6477H243.077C243.222 36.6477 243.31 36.7203 243.31 36.854C243.309 36.9905 243.219 37.0631 243.077 37.0631ZM77.5107 21.8116V18.4883H72.4153V38.2599H77.5107V26.4046C77.5107 24.2577 78.8877 23.2031 81.0345 23.2031H83.8233V18.4883H81.4412C79.5762 18.4883 77.9552 19.4614 77.5107 21.8116ZM88.5963 10.668C86.8533 10.668 85.5169 12.045 85.5169 13.788C85.5169 15.4903 86.8533 16.8673 88.5963 16.8673C90.3393 16.8673 91.6756 15.4903 91.6756 13.788C91.6756 12.0449 90.3393 10.668 88.5963 10.668ZM86.0544 38.26H91.1382V18.4883H86.0544V38.26ZM115.354 28.3741C115.354 34.0185 110.779 38.5941 105.135 38.5941C102.857 38.5941 100.792 37.8475 99.1356 36.5866V44.0643H94.0518V18.4883H99.1356V20.1615C100.792 18.9008 102.857 18.1542 105.135 18.1542C110.779 18.1542 115.354 22.7296 115.354 28.3741ZM110.239 28.3741C110.239 25.3093 107.752 22.8226 104.687 22.8226C101.622 22.8226 99.1357 25.3093 99.1357 28.3741C99.1357 31.4389 101.622 33.9256 104.687 33.9256C107.752 33.9256 110.239 31.4419 110.239 28.3741ZM203.714 26.6398L200.748 25.8264C198.796 25.318 198.038 24.7196 198.038 23.6883C198.038 22.6831 199.107 21.9801 200.635 21.9801C202.09 21.9801 203.232 22.933 203.232 24.1531V24.2663H207.918V24.1531C207.918 20.5653 204.992 18.1541 200.635 18.1541C196.321 18.1541 193.186 20.5624 193.186 23.8828C193.186 26.4654 194.897 28.4118 197.884 29.2194L200.725 29.995C202.883 30.5934 203.685 31.2559 203.685 32.444C203.685 33.6961 202.526 34.5385 200.8 34.5385C199.002 34.5385 197.791 33.3997 197.791 31.709V31.5957H192.817V31.709C192.817 35.7645 196.082 38.5997 200.76 38.5997C205.265 38.5997 208.536 35.8313 208.536 32.0199C208.536 30.149 207.7 27.7031 203.714 26.6398ZM133.389 18.4883H138.473V38.2599H133.389V36.5866C131.733 37.8474 129.668 38.594 127.39 38.594C121.746 38.594 117.17 34.0185 117.17 28.374C117.17 22.7295 121.746 18.1541 127.39 18.1541C129.668 18.1541 131.733 18.9007 133.389 20.1615V18.4883ZM133.389 28.3741C133.389 25.3064 130.902 22.8226 127.837 22.8226C124.773 22.8226 122.286 25.3093 122.286 28.3741C122.286 31.4389 124.773 33.9256 127.837 33.9256C130.905 33.9256 133.389 31.4419 133.389 28.3741ZM156.83 11.4523H161.914V38.2628H156.83V36.5895C155.174 37.8503 153.108 38.5969 150.831 38.5969C145.186 38.5969 140.611 34.0215 140.611 28.3769C140.611 22.7324 145.186 18.157 150.831 18.157C153.108 18.157 155.174 18.9036 156.83 20.1644V11.4523ZM156.83 28.3741C156.83 25.3093 154.343 22.8226 151.278 22.8226C148.213 22.8226 145.727 25.3093 145.727 28.3741C145.727 31.4389 148.21 33.9256 151.278 33.9256C154.343 33.9256 156.83 31.4419 156.83 28.3741ZM185.517 38.26H190.601V18.4883H185.517V38.26ZM188.059 10.668C186.316 10.668 184.979 12.045 184.979 13.788C184.979 15.4903 186.316 16.8673 188.059 16.8673C189.802 16.8673 191.138 15.4903 191.138 13.788C191.138 12.0449 189.802 10.668 188.059 10.668ZM230.51 28.3741C230.51 34.0185 225.935 38.5941 220.29 38.5941C214.646 38.5941 210.07 34.0186 210.07 28.3741C210.07 22.7296 214.645 18.1542 220.29 18.1542C225.935 18.1542 230.51 22.7296 230.51 28.3741ZM225.842 28.3741C225.842 25.3093 223.355 22.8226 220.29 22.8226C217.225 22.8226 214.739 25.3093 214.739 28.3741C214.739 31.4389 217.222 33.9256 220.29 33.9256C223.355 33.9256 225.842 31.4419 225.842 28.3741ZM74.9077 11.4523H55.4062V15.9871H62.6253V38.2599H67.6917V15.9871H74.9107V11.4523H74.9077ZM173.531 32.8449L169.008 18.4883H163.668L170.451 38.26H176.569L183.393 18.4883H178.054L173.531 32.8449ZM237.958 21.8116V18.4883H232.863V38.2599H237.958V26.4046C237.958 24.2577 239.335 23.2031 241.482 23.2031H244.271V18.4883H241.889C240.024 18.4883 238.406 19.4614 237.958 21.8116Z" fill="white"/>
<path id="Vector_2" d="M26 52.9688C40.3594 52.9688 52 41.3282 52 26.9688C52 12.6093 40.3594 0.96875 26 0.96875C11.6406 0.96875 0 12.6093 0 26.9688C0 41.3282 11.6406 52.9688 26 52.9688Z" fill="#34E0A1"/>
<path id="Vector_3" d="M42.0543 21.8971L45.1917 18.4837H38.2342C34.7511 16.1044 30.5446 14.7188 25.9953 14.7188C21.4518 14.7188 17.257 16.1074 13.7796 18.4837H6.80469L9.94212 21.8971C8.01902 23.6517 6.81343 26.1792 6.81343 28.9854C6.81343 34.2813 11.1071 38.5749 16.403 38.5749C18.9187 38.5749 21.2108 37.6046 22.9219 36.0185L25.9954 39.3651L29.0689 36.0214C30.78 37.6076 33.0691 38.5749 35.5849 38.5749C40.8807 38.5749 45.1802 34.2813 45.1802 28.9854C45.183 26.1762 43.9775 23.6489 42.0543 21.8971ZM16.4058 35.4752C12.821 35.4752 9.91603 32.5703 9.91603 28.9854C9.91603 25.4006 12.8211 22.4955 16.4058 22.4955C19.9906 22.4955 22.8956 25.4006 22.8956 28.9854C22.8956 32.5703 19.9906 35.4752 16.4058 35.4752ZM25.9982 28.7966C25.9982 24.5261 22.8928 20.86 18.7938 19.2942C21.0103 18.3674 23.4418 17.8533 25.9953 17.8533C28.5488 17.8533 30.9832 18.3674 33.1998 19.2942C29.1037 20.863 25.9982 24.5262 25.9982 28.7966ZM35.5878 35.4752C32.0029 35.4752 29.0979 32.5703 29.0979 28.9854C29.0979 25.4006 32.0029 22.4955 35.5878 22.4955C39.1726 22.4955 42.0776 25.4006 42.0776 28.9854C42.0776 32.5703 39.1725 35.4752 35.5878 35.4752ZM35.5878 25.5807C33.7082 25.5807 32.1859 27.1029 32.1859 28.9825C32.1859 30.862 33.7082 32.3843 35.5878 32.3843C37.4673 32.3843 38.9895 30.862 38.9895 28.9825C38.9895 27.1058 37.4673 25.5807 35.5878 25.5807ZM19.8076 28.9854C19.8076 30.8649 18.2853 32.3872 16.4058 32.3872C14.5263 32.3872 13.0041 30.8649 13.0041 28.9854C13.0041 27.1058 14.5263 25.5836 16.4058 25.5836C18.2853 25.5807 19.8076 27.1058 19.8076 28.9854Z" fill="black"/>
</g>
</g>
<defs>
<clipPath id="clip0_5641_20332">
<rect width="247" height="52" fill="white" transform="translate(0 0.96875)"/>
</clipPath>
</defs>
</svg>
