<svg width="195" height="53" viewBox="0 0 195 53" fill="none" xmlns="http://www.w3.org/2000/svg">
<g id="OpenTable_logo 1" clip-path="url(#clip0_5641_20350)">
<path id="Vector" d="M90.9849 49.7428V52.1242C90.9849 52.2545 90.8958 52.3449 90.7453 52.3449H90.1872C90.1292 52.344 90.0737 52.3204 90.0329 52.2791C89.9921 52.2379 89.9691 52.1823 89.9688 52.1242V45.5332C89.9688 45.4216 90.0681 45.3124 90.1881 45.3124H90.4361C90.5355 45.3124 90.596 45.3498 90.6358 45.4623L90.7549 45.7638C91.1493 45.4036 91.6657 45.2064 92.1998 45.2118C93.465 45.2118 94.3704 46.3071 94.3704 47.633C94.3704 48.9899 93.4153 50.064 92.1601 50.064C91.5624 50.064 91.0643 49.7935 90.9849 49.7428ZM90.9661 48.7679C90.9661 48.7679 91.4138 49.1101 92.0328 49.1101C92.7795 49.1101 93.3773 48.4664 93.3773 47.6341C93.3773 46.8094 92.8588 46.1656 92.0712 46.1656C91.4039 46.1656 91.0057 46.6779 90.9661 46.8193V48.7679ZM95.1397 48.5175C95.1397 47.6629 95.7971 47.0205 96.9828 47.0205C97.4616 47.0205 97.9094 47.1607 97.9094 47.1607C97.9281 46.4277 97.7495 46.0965 97.1726 46.0965C96.6442 46.0965 96.1258 46.2465 95.8876 46.3173C95.7475 46.3454 95.6584 46.2563 95.627 46.126L95.5379 45.744C95.5098 45.5828 95.5801 45.5134 95.6866 45.4726C95.7672 45.4445 96.4245 45.212 97.2717 45.212C98.7464 45.212 98.8853 46.1049 98.8853 47.2609V49.7328C98.8832 49.7905 98.8594 49.8453 98.8188 49.8862C98.7781 49.9271 98.7235 49.9512 98.6659 49.9537H98.3373C98.2482 49.9537 98.1985 49.9162 98.1488 49.7925L98.0382 49.4826C97.7902 49.7231 97.3312 50.0656 96.6242 50.0656C95.7572 50.0656 95.1397 49.4825 95.1397 48.5175ZM96.1159 48.5082C96.1159 48.9198 96.3555 49.2413 96.834 49.2413C97.2916 49.2413 97.7593 48.9102 97.8995 48.6793V47.9054C97.8399 47.8632 97.4813 47.7441 97.0622 47.7441C96.5252 47.7441 96.1159 48.0259 96.1159 48.5082ZM100.24 49.7337V45.5339C100.24 45.4223 100.339 45.3131 100.459 45.3131H100.699C100.745 45.3146 100.789 45.3312 100.825 45.3603C100.861 45.3895 100.886 45.4295 100.897 45.4744L101.027 45.8962C101.192 45.6827 101.403 45.5099 101.644 45.3914C101.886 45.2728 102.152 45.2117 102.422 45.2128C102.861 45.2128 103.408 45.3333 103.259 45.6446L103.019 46.1469C102.96 46.2772 102.841 46.3082 102.74 46.2585C102.608 46.2014 102.466 46.1703 102.322 46.1666C101.645 46.1666 101.277 46.7099 101.236 46.7905V49.7337C101.236 49.9348 101.107 49.9546 100.917 49.9546H100.459C100.401 49.9539 100.345 49.9303 100.304 49.889C100.263 49.8477 100.24 49.7919 100.24 49.7337ZM104.395 48.6793V46.1665H103.867C103.808 46.1658 103.753 46.1423 103.712 46.101C103.671 46.0597 103.648 46.004 103.647 45.9457V45.5342C103.646 45.5049 103.65 45.4757 103.661 45.4483C103.672 45.421 103.688 45.3961 103.708 45.3754C103.729 45.3546 103.754 45.3384 103.781 45.3277C103.808 45.317 103.837 45.3121 103.867 45.3133H104.394V44.0172C104.394 43.8967 104.493 43.7964 104.613 43.7964H105.181C105.3 43.7964 105.391 43.8957 105.391 44.0172V45.3133H106.606C106.725 45.3133 106.825 45.4038 106.825 45.5342V45.9457C106.825 46.0573 106.725 46.1665 106.605 46.1665H105.39V48.6384C105.39 49.0303 105.54 49.1098 105.759 49.1098C106.048 49.1098 106.327 48.9907 106.496 48.8903C106.636 48.8097 106.725 48.8904 106.765 48.9898L106.945 49.4623C106.995 49.5837 106.945 49.6634 106.835 49.7351C106.646 49.8542 106.108 50.0651 105.56 50.0651C104.643 50.0651 104.395 49.5029 104.395 48.6793ZM109.973 47.6238C109.973 46.3178 111.028 45.2127 112.324 45.2127C113.609 45.2127 114.665 46.3166 114.665 47.6238C114.665 48.951 113.609 50.0647 112.324 50.0647C111.028 50.0647 109.973 48.9497 109.973 47.6238ZM110.949 47.6238C110.949 48.4784 111.547 49.1109 112.324 49.1109C113.091 49.1109 113.689 48.4784 113.689 47.6238C113.689 46.7903 113.091 46.1665 112.324 46.1665C111.547 46.1665 110.949 46.7903 110.949 47.6238ZM116.158 49.7337V46.2483H115.561C115.503 46.2476 115.447 46.2239 115.406 46.1821C115.365 46.1403 115.342 46.0839 115.342 46.0253V45.534C115.341 45.5048 115.345 45.4757 115.356 45.4483C115.366 45.421 115.382 45.3961 115.403 45.3754C115.424 45.3546 115.448 45.3383 115.476 45.3276C115.503 45.3169 115.532 45.3121 115.561 45.3133H116.159V44.7799C116.159 43.5347 116.747 42.8203 117.862 42.8203C118.48 42.8203 118.957 43.0931 119.167 43.283C119.246 43.3538 119.256 43.4742 119.205 43.5445L118.916 43.9665C118.846 44.0781 118.737 44.0878 118.618 44.0086C118.404 43.8527 118.145 43.7713 117.88 43.7765C117.362 43.7765 117.153 44.1985 117.153 44.7812V45.3146H118.458C118.577 45.3146 118.677 45.405 118.677 45.5353V46.0277C118.677 46.1393 118.578 46.2486 118.458 46.2486H117.153V49.7351C117.151 49.7928 117.127 49.8474 117.087 49.8883C117.046 49.9292 116.991 49.9534 116.934 49.9559H116.376C116.318 49.9531 116.264 49.9289 116.223 49.888C116.183 49.8471 116.16 49.7912 116.158 49.7337Z" fill="white"/>
<path id="Vector_2" fill-rule="evenodd" clip-rule="evenodd" d="M147.275 42.7676C147.275 42.2404 147.697 41.8125 148.217 41.8125C148.738 41.8125 149.162 42.2405 149.162 42.7676C149.162 43.2947 148.738 43.7226 148.217 43.7226C148.093 43.7218 147.97 43.6964 147.855 43.648C147.74 43.5995 147.636 43.5289 147.548 43.4402C147.461 43.3515 147.391 43.2465 147.345 43.1311C147.298 43.0157 147.274 42.8922 147.275 42.7676ZM131.773 48.7074C130.96 48.7074 130.395 48.0562 130.395 47.1247C130.395 46.1945 130.96 45.5434 131.773 45.5434C132.592 45.5434 133.162 46.1945 133.162 47.1247C133.162 48.0711 132.604 48.7074 131.773 48.7074ZM131.773 44.153C130.053 44.153 128.804 45.4032 128.804 47.1247C128.804 48.8475 130.053 50.0978 131.773 50.0978C133.501 50.0978 134.755 48.8475 134.755 47.1247C134.755 45.4032 133.501 44.153 131.773 44.153ZM145.445 47.2735C145.385 47.1573 145.309 47.05 145.219 46.9548L145.167 46.899L145.222 46.8456C145.31 46.7526 145.389 46.6525 145.46 46.5465L146.978 44.2693H145.135L143.994 46.0504C143.93 46.146 143.798 46.1943 143.604 46.1943H143.343V42.8268C143.343 42.1533 142.928 42.0616 142.479 42.0616H141.71V50.0107H143.343V47.6256H143.497C143.683 47.6256 143.81 47.649 143.869 47.7498L144.769 49.4652C145.021 49.9302 145.272 50.011 145.744 50.011H146.996L146.063 48.4543L145.445 47.2735ZM153.375 44.1392C152.544 44.1392 152.014 44.5114 151.716 44.8263L151.617 44.9281L151.584 44.7903C151.498 44.4528 151.204 44.2668 150.761 44.2668H150.029L150.033 50.0083H151.655V47.3626C151.655 47.102 151.688 46.879 151.757 46.6744C151.937 46.0542 152.441 45.6697 153.07 45.6697C153.577 45.6697 153.775 45.9388 153.775 46.6346V49.135C153.775 49.7304 154.047 50.0083 154.637 50.0083H155.409L155.407 46.3568C155.407 44.9056 154.703 44.1392 153.375 44.1392ZM148.239 44.2694H147.47L147.475 48.7097V50.0095H148.295L148.323 50.0108L148.705 50.0095H149.085L149.09 45.1414C149.09 44.5547 148.814 44.2694 148.239 44.2694ZM138.145 48.7073C137.332 48.7073 136.765 48.0561 136.765 47.1246C136.765 46.1944 137.332 45.5432 138.145 45.5432C138.962 45.5432 139.534 46.1944 139.534 47.1246C139.534 48.071 138.976 48.7073 138.145 48.7073ZM138.145 44.1528C136.422 44.1528 135.173 45.4031 135.173 47.1246C135.173 48.8474 136.422 50.0977 138.145 50.0977C139.87 50.0977 141.126 48.8474 141.126 47.1246C141.126 45.4031 139.87 44.1528 138.145 44.1528ZM158.824 48.4555C157.938 48.4555 157.621 47.6741 157.621 46.9423C157.621 46.6212 157.703 45.5705 158.739 45.5705C159.255 45.5705 159.942 45.7196 159.942 46.9968C159.942 48.2024 159.333 48.4555 158.824 48.4555ZM160.784 44.2545C160.475 44.2545 160.238 44.3788 160.119 44.6043L160.072 44.691L159.998 44.6263C159.735 44.3971 159.266 44.1265 158.503 44.1265C156.986 44.1265 155.966 45.275 155.966 46.9854C155.966 48.6945 157.021 49.8877 158.534 49.8877C159.05 49.8877 159.458 49.7663 159.782 49.5193L159.907 49.4236V49.5835C159.907 50.3513 159.416 50.7742 158.524 50.7742C158.09 50.7742 157.697 50.6664 157.433 50.5708C157.089 50.4667 156.887 50.552 156.748 50.9008L156.619 51.2233L156.437 51.6921L156.55 51.753C157.12 52.0582 157.863 52.2404 158.534 52.2404C159.916 52.2404 161.53 51.5272 161.53 49.5191L161.534 44.2541L160.784 44.2545ZM125.73 48.6416H124.41V47.0478C124.41 46.7065 124.54 46.5306 124.829 46.4897H125.73C126.373 46.4897 126.788 46.8988 126.788 47.5599C126.788 48.2396 126.383 48.6416 125.73 48.6416ZM124.41 44.3451V43.9261C124.41 43.5599 124.563 43.3853 124.901 43.363H125.577C126.157 43.363 126.503 43.7127 126.503 44.2982C126.503 44.7449 126.266 45.2655 125.598 45.2655H124.41V44.3451ZM127.417 45.9352L127.178 45.7987L127.386 45.6202C127.629 45.4092 128.035 44.9381 128.035 44.1195C128.035 42.8717 127.073 42.0654 125.587 42.0654H123.697C123.484 42.0737 123.281 42.1642 123.132 42.3178C122.984 42.4714 122.9 42.6765 122.898 42.8903V49.9811H125.621C127.274 49.9811 128.341 49.0732 128.341 47.6679C128.341 46.9113 127.996 46.2639 127.417 45.9352ZM162.174 49.1203C162.174 48.5919 162.596 48.1652 163.117 48.1652C163.638 48.1652 164.062 48.5918 164.062 49.1203C164.062 49.6474 163.638 50.0753 163.117 50.0753C162.992 50.0745 162.869 50.0492 162.755 50.0008C162.64 49.9524 162.535 49.8818 162.448 49.7931C162.36 49.7044 162.291 49.5994 162.244 49.4839C162.197 49.3685 162.174 49.2449 162.174 49.1203ZM172.922 48.7073C172.108 48.7073 171.541 48.0562 171.541 47.1247C171.541 46.1945 172.108 45.5434 172.922 45.5434C173.738 45.5434 174.311 46.1945 174.311 47.1247C174.311 48.0711 173.752 48.7073 172.922 48.7073ZM172.922 44.153C171.199 44.153 169.95 45.4032 169.95 47.1247C169.95 48.8475 171.199 50.0977 172.922 50.0977C174.647 50.0977 175.903 48.8475 175.903 47.1247C175.903 45.4032 174.647 44.153 172.922 44.153ZM183.151 44.1575C182.478 44.1575 181.827 44.4764 181.409 45.0085L181.291 45.1598L181.2 44.9911C180.898 44.4379 180.381 44.1575 179.662 44.1575C178.907 44.1575 178.403 44.5818 178.168 44.8348L178.013 45.0022L177.955 44.7814C177.868 44.4641 177.588 44.2877 177.163 44.2877H176.48L176.476 50.0055H178.026V47.4828C178.026 47.262 178.054 47.0426 178.108 46.813C178.257 46.204 178.662 45.5479 179.346 45.6136C179.768 45.6558 179.972 45.9821 179.972 46.617V50.0068H181.533V47.4828C181.533 47.2062 181.556 46.999 181.619 46.7918C181.746 46.2089 182.17 45.6136 182.83 45.6136C183.306 45.6136 183.483 45.885 183.483 46.617V49.1708C183.483 49.7488 183.739 50.0068 184.311 50.0068H185.04L185.041 46.3565C185.041 44.8979 184.403 44.1575 183.151 44.1575ZM169.055 48.021C169.05 48.0257 168.384 48.7354 167.506 48.7354C166.706 48.7354 165.898 48.2419 165.898 47.1368C165.898 46.1817 166.525 45.5156 167.421 45.5156C167.713 45.5156 168.043 45.6212 168.095 45.7974L168.104 45.8302C168.137 45.9517 168.209 46.0589 168.309 46.1352C168.409 46.2115 168.532 46.2526 168.657 46.2521L169.506 46.2534V45.5054C169.506 44.5182 168.261 44.1597 167.422 44.1597C165.631 44.1597 164.331 45.4174 164.331 47.1501C164.331 48.8828 165.617 50.1392 167.39 50.1392C168.928 50.1392 169.765 49.1198 169.772 49.1098L169.819 49.054L169.147 47.9277L169.06 48.0234" fill="white"/>
<path id="Vector_3" fill-rule="evenodd" clip-rule="evenodd" d="M0.625 23.1525C0.625 20.1758 3.02122 17.7622 5.97565 17.7622C8.9313 17.7622 11.3277 20.1758 11.3277 23.1525C11.3277 26.1305 8.9313 28.5442 5.97565 28.5442C3.02122 28.5442 0.625 26.1317 0.625 23.1525ZM38.2126 28.5442C35.257 28.5442 32.8619 26.1305 32.8619 23.1525C32.8619 20.1758 35.257 17.7622 38.2126 17.7622C41.167 17.7622 43.5645 20.1758 43.5645 23.1525C43.5645 26.1305 41.167 28.5442 38.2126 28.5442ZM38.2126 1.58984C26.3925 1.58984 16.8086 11.2443 16.8086 23.1525C16.8086 35.0632 26.3912 44.7166 38.2126 44.7166C50.0353 44.7166 59.6179 35.0632 59.6179 23.1525C59.6179 11.2456 50.0353 1.58984 38.2126 1.58984Z" fill="#DA3743"/>
<path id="Vector_4" fill-rule="evenodd" clip-rule="evenodd" d="M191.188 21.4841C191.526 21.4841 191.726 21.3312 191.726 21.0546C191.726 20.8029 191.59 20.6379 191.213 20.6379H190.862V21.4838L191.188 21.4841ZM190.348 20.2103H191.299C191.825 20.2103 192.277 20.425 192.277 21.0289C192.278 21.1777 192.234 21.3233 192.152 21.4471C192.069 21.5709 191.952 21.6672 191.814 21.7235L192.39 22.7715H191.814L191.374 21.8884H190.862V22.7715H190.348L190.348 20.2103ZM193.114 21.5213C193.114 20.3368 192.302 19.4909 191.251 19.4909C190.198 19.4909 189.397 20.3368 189.397 21.5213C189.397 22.7207 190.198 23.5392 191.251 23.5392C192.302 23.5392 193.114 22.7207 193.114 21.5213ZM188.896 21.5213C188.896 20.0454 189.96 19.0369 191.251 19.0369C192.552 19.0369 193.616 20.0454 193.616 21.5213C193.616 22.9973 192.552 24.0068 191.251 24.0068C189.96 24.0068 188.896 22.9973 188.896 21.5213ZM173.187 31.6087C173.342 31.6071 173.49 31.5449 173.599 31.4355C173.709 31.3261 173.771 31.1781 173.773 31.0233V28.859C173.772 28.7047 173.71 28.5569 173.601 28.4474C173.493 28.3379 173.345 28.2754 173.191 28.2734H173.098C172.835 28.2734 172.573 28.0105 172.573 27.7451V14.9204C172.573 14.6279 172.281 14.3348 171.991 14.3348H169.852C169.562 14.3348 169.271 14.6275 169.271 14.9204V29.1281L169.281 29.4975C169.281 30.5555 170.331 31.6122 171.381 31.6122L173.187 31.6087ZM79.0167 17.7222C81.9277 17.7222 84.3848 20.2064 84.3848 23.1522C84.3858 24.5777 83.821 25.9454 82.8146 26.9549C81.8081 27.9644 80.4422 28.5331 79.0167 28.5364C76.071 28.5364 73.676 26.124 73.676 23.1522C73.676 20.1581 76.071 17.7222 79.0167 17.7222ZM79.0167 14.3027C74.2006 14.3027 70.2812 18.2716 70.2812 23.1522C70.2812 28.0886 74.1162 31.9572 79.0167 31.9572C83.9308 31.9572 87.7795 28.0887 87.7795 23.151C87.7795 18.2729 83.8477 14.3027 79.0167 14.3027ZM148.725 28.1023C148.567 28.5552 147.616 29.4059 146.533 29.4059C145.397 29.4059 144.763 28.7139 144.763 27.6757C144.763 26.5842 145.528 25.9194 146.929 25.9194C147.906 25.9194 148.725 26.2916 148.725 26.2916V28.1023ZM147.298 19.0271C145.317 19.0271 143.389 19.5318 143.125 19.6385C142.86 19.7177 142.622 19.931 142.727 20.3838L142.993 21.7681C143.045 22.1403 143.283 22.4328 143.679 22.3001C144.393 22.0868 146.004 21.8473 147.114 21.8473C148.408 21.8473 148.857 22.5928 148.804 24.1631C148.804 24.1631 147.695 23.817 146.453 23.817C143.362 23.817 141.591 25.4939 141.591 27.6756C141.591 30.3112 143.283 31.8803 145.713 31.8803C146.422 31.8912 147.126 31.7603 147.784 31.4953C148.442 31.2303 149.04 30.8367 149.544 30.3374V30.9985C149.544 31.3186 149.809 31.5839 150.126 31.5839H150.341C150.365 31.5878 150.39 31.5894 150.415 31.5886H151.314C151.469 31.5866 151.616 31.5242 151.725 31.4148C151.834 31.3053 151.895 31.1574 151.896 31.003V24.3761C151.896 21.0223 151.102 19.0271 147.298 19.0271ZM125.121 19.0271C122.782 19.0271 121.647 20.2908 121.193 20.8006V19.8778C121.192 19.7235 121.131 19.5757 121.022 19.4663C120.913 19.3568 120.766 19.2944 120.612 19.2924H119.23C119.076 19.2941 118.928 19.3564 118.819 19.466C118.71 19.5755 118.649 19.7234 118.648 19.8778V31.0035C118.654 31.1563 118.717 31.3015 118.825 31.41C118.932 31.5186 119.077 31.5824 119.23 31.5889H121.185C121.766 31.5889 121.951 31.4548 121.951 31.0035V23.9771C122.241 23.125 123.008 22.0608 124.593 22.0608C126.072 22.0608 126.705 23.0456 126.705 24.6419V31.0035C126.705 31.3222 126.971 31.5889 127.288 31.5889H129.427C129.58 31.5824 129.724 31.5186 129.832 31.41C129.94 31.3015 130.003 31.1563 130.008 31.0035V24.6419C130.008 21.6614 129.004 19.0271 125.121 19.0271ZM96.0338 28.8478C94.5007 28.8478 93.4973 28.1557 93.4973 28.1557V23.7625C93.7617 23.0704 94.6074 22.0595 96.1925 22.0595C98.0939 22.0595 99.0713 23.7365 99.0713 25.4655C99.0713 27.1957 98.0431 28.8478 96.0338 28.8478ZM96.6415 19.0271C94.1311 19.0271 92.7395 20.751 92.6564 20.8589V19.8791C92.6558 19.7246 92.5944 19.5764 92.4856 19.4667C92.3768 19.357 92.2293 19.2944 92.0748 19.2924H90.7761C90.622 19.2947 90.4749 19.3572 90.3664 19.4667C90.2579 19.5761 90.1966 19.7237 90.1956 19.8778V36.0055C90.2008 36.1584 90.2635 36.3038 90.3711 36.4126C90.4787 36.5213 90.6233 36.5855 90.7761 36.5922H92.9169C93.2071 36.5922 93.4973 36.2983 93.4973 36.0055V31.3756C94.0518 31.5889 95.2151 31.8816 96.4294 31.8816C100.076 31.8816 102.48 29.0598 102.48 25.4666C102.48 21.7407 99.9693 19.0271 96.6415 19.0271ZM183.761 23.8964C183.709 22.6982 182.757 21.7668 181.41 21.7668C179.931 21.7668 178.979 22.6722 178.822 23.8964H183.761ZM181.491 19.0258C184.66 19.0258 187.09 21.3948 187.09 24.7213C187.09 24.9074 187.062 25.3327 187.038 25.52C187.023 25.667 186.956 25.804 186.85 25.9062C186.743 26.0085 186.604 26.0695 186.456 26.0782H178.637C178.665 27.5951 179.905 28.9259 181.676 28.9259C182.89 28.9259 183.735 28.4731 184.29 28.0205C184.581 27.781 184.898 27.7552 185.083 28.0205L186.113 29.4046C186.323 29.6442 186.351 29.938 186.06 30.2035C184.8 31.2963 183.184 31.8924 181.516 31.8803C177.871 31.8803 175.334 28.9533 175.334 25.4394C175.334 21.9802 177.872 19.0258 181.491 19.0258ZM160.815 28.8478C159.23 28.8478 158.384 27.8357 158.12 27.1436V22.7529C158.12 22.7529 159.125 22.0608 160.656 22.0608C162.664 22.0608 163.695 23.7105 163.695 25.4407C163.695 27.1709 162.717 28.8478 160.815 28.8478ZM161.105 19.0271C159.89 19.0271 158.674 19.3196 158.12 19.5591V14.8745C158.114 14.7216 158.051 14.5764 157.944 14.4679C157.836 14.3594 157.691 14.2955 157.538 14.2891H155.399C155.108 14.2891 154.818 14.5816 154.818 14.8745V31.0035C154.824 31.1561 154.886 31.3011 154.994 31.4096C155.101 31.5181 155.246 31.5821 155.399 31.5889H156.324C156.343 31.5889 156.357 31.5888 156.376 31.5841H156.624C156.779 31.5828 156.927 31.5207 157.036 31.4112C157.145 31.3016 157.207 31.1535 157.208 30.9987V30.0896L157.222 30.0427C157.222 30.0427 158.624 31.8783 161.29 31.8783C164.621 31.8783 167.024 28.9513 167.024 25.4387C167.024 21.8455 164.724 19.0271 161.105 19.0271ZM142.414 14.2891H129.988C129.922 14.2894 129.857 14.3027 129.796 14.3283C129.735 14.3539 129.68 14.3913 129.633 14.4383C129.587 14.4853 129.55 14.541 129.525 14.6022C129.5 14.6634 129.487 14.7289 129.487 14.7951V16.978C129.487 17.2433 129.698 17.4829 129.988 17.4829H134.471V31.0829C134.475 31.2153 134.529 31.3412 134.622 31.4352C134.715 31.5292 134.841 31.5842 134.973 31.5889H137.429C137.562 31.5845 137.687 31.5297 137.781 31.4356C137.875 31.3416 137.929 31.2155 137.933 31.0829V17.4829H142.414C142.48 17.4827 142.545 17.4694 142.607 17.4438C142.668 17.4183 142.723 17.381 142.77 17.3339C142.817 17.2869 142.853 17.2313 142.879 17.17C142.904 17.1087 142.916 17.043 142.916 16.9767V14.7951C142.916 14.7288 142.904 14.6632 142.879 14.6019C142.853 14.5406 142.817 14.4849 142.77 14.4378C142.723 14.3908 142.668 14.3535 142.607 14.328C142.545 14.3024 142.48 14.2892 142.414 14.2891ZM112.835 23.8964C112.781 22.6982 111.83 21.7668 110.483 21.7668C109.005 21.7668 108.052 22.6722 107.895 23.8964H112.835ZM110.563 19.0258C113.733 19.0258 116.163 21.3948 116.163 24.7213C116.163 24.9074 116.139 25.3327 116.111 25.52C116.096 25.6669 116.029 25.8037 115.922 25.906C115.816 26.0082 115.676 26.0693 115.529 26.0782H107.71C107.738 27.5951 108.978 28.9259 110.749 28.9259C111.964 28.9259 112.808 28.4731 113.363 28.0205C113.654 27.781 113.971 27.7552 114.156 28.0205L115.185 29.4046C115.397 29.6442 115.424 29.938 115.133 30.2035C113.873 31.2963 112.257 31.8924 110.589 31.8803C106.944 31.8803 104.408 28.9533 104.408 25.4394C104.408 21.9802 106.943 19.0258 110.563 19.0258Z" fill="white"/>
</g>
<defs>
<clipPath id="clip0_5641_20350">
<rect width="194.24" height="52" fill="white" transform="translate(0 0.96875)"/>
</clipPath>
</defs>
</svg>
