<svg width="157" height="53" viewBox="0 0 157 53" fill="none" xmlns="http://www.w3.org/2000/svg">
<g id="google-2015 1" clip-path="url(#clip0_5641_20313)">
<path id="Vector" d="M19.2436 0.96875H20.6331C25.4569 1.07362 30.2021 3.01363 33.6102 6.44799C32.3518 7.73259 31.0672 8.96477 29.8351 10.2494C27.9213 8.51909 25.6142 7.18205 23.0974 6.71015C19.3747 5.92366 15.3636 6.6315 12.2438 8.75504C8.8357 10.9834 6.52866 14.7586 6.03054 18.7959C5.48 22.7808 6.60731 26.9755 9.20273 30.069C11.6933 33.0839 15.4947 34.9715 19.4271 35.1026C23.0974 35.3123 26.925 34.185 29.5991 31.6158C31.6964 29.8068 32.6664 27.0541 32.981 24.38C28.6291 24.38 24.2772 24.4063 19.9253 24.38V18.9795H38.2505C39.1943 24.7733 37.8311 31.3012 33.4267 35.4434C30.4905 38.3796 26.4269 40.1099 22.2847 40.4507C18.2736 40.844 14.1314 40.0837 10.566 38.1437C6.29271 35.8628 2.88457 32.009 1.20672 27.4736C-0.366267 23.3052 -0.392484 18.5862 1.07564 14.3916C2.41268 10.564 4.98189 7.18205 8.28516 4.82257C11.4573 2.4893 15.3112 1.2047 19.2436 0.96875Z" fill="#3780FF"/>
<path id="Vector_2" d="M124.375 2.33594H129.985V39.773C128.124 39.773 126.236 39.7992 124.375 39.7468C124.401 27.294 124.375 14.815 124.375 2.33594Z" fill="#38B137"/>
<path id="Vector_3" d="M50.7343 15.3185C54.1949 14.6631 57.9439 15.3971 60.8015 17.4682C63.3969 19.3034 65.2058 22.1872 65.7564 25.3332C66.4642 28.9773 65.5728 32.9622 63.2134 35.846C60.6704 39.0706 56.502 40.8009 52.4384 40.5387C48.7157 40.329 45.0978 38.4676 42.8956 35.4265C40.4051 32.0708 39.8021 27.4567 41.1653 23.5242C42.5286 19.3034 46.3824 16.0788 50.7343 15.3185ZM51.5208 20.2996C50.1051 20.6667 48.7943 21.4794 47.8505 22.6329C45.3075 25.674 45.4648 30.6289 48.27 33.4603C49.8692 35.0857 52.2811 35.846 54.5095 35.4003C56.5806 35.0333 58.3895 33.6438 59.3858 31.8086C61.116 28.6889 60.6179 24.3894 57.9701 21.9513C56.266 20.3783 53.7754 19.7229 51.5208 20.2996Z" fill="#FA3913"/>
<path id="Vector_4" d="M78.5152 15.3126C82.4738 14.5523 86.7995 15.6534 89.762 18.4324C94.5858 22.7581 95.1102 30.859 90.9942 35.8401C88.5036 38.9861 84.4663 40.7164 80.4814 40.5328C76.68 40.428 72.9311 38.5404 70.6764 35.4206C68.1334 31.9863 67.5829 27.2673 69.0248 23.2562C70.4667 19.1664 74.2419 16.0467 78.5152 15.3126ZM79.3016 20.2937C77.886 20.6608 76.5751 21.4735 75.6313 22.6008C73.1146 25.5895 73.2194 30.4657 75.9197 33.3233C77.5189 35.0274 80.0095 35.8663 82.3165 35.3944C84.3614 35.0012 86.1966 33.6379 87.1928 31.8028C88.8969 28.6568 88.3987 24.3573 85.7247 21.9192C84.0206 20.3462 81.53 19.717 79.3016 20.2937Z" fill="#FCBD06"/>
<path id="Vector_5" d="M102.09 16.834C105.105 14.9464 109.116 14.4221 112.367 16.0475C113.389 16.4932 114.228 17.2534 115.041 18.0137C115.067 17.3059 115.041 16.5718 115.067 15.8378C116.824 15.864 118.58 15.8378 120.363 15.864V38.9869C120.337 42.4737 119.445 46.1702 116.929 48.7132C114.176 51.5184 109.955 52.3835 106.154 51.8067C102.09 51.2038 98.5509 48.2413 96.9779 44.4924C98.5509 43.7321 100.203 43.1291 101.828 42.4213C102.746 44.571 104.607 46.4062 106.94 46.8256C109.273 47.2451 111.974 46.6683 113.494 44.7283C115.12 42.7358 115.12 40.0093 115.041 37.5712C113.835 38.7509 112.446 39.7996 110.768 40.1929C107.124 41.2153 103.113 39.9569 100.307 37.4926C97.476 35.0282 95.7982 31.2268 95.9555 27.4517C96.0341 23.1784 98.446 19.0624 102.09 16.834ZM107.517 20.1897C105.918 20.4519 104.423 21.3432 103.401 22.5754C100.937 25.5116 100.937 30.2044 103.427 33.0882C104.843 34.7923 107.124 35.7361 109.326 35.5001C111.397 35.2904 113.311 33.9796 114.333 32.1706C116.064 29.1033 115.775 24.9349 113.442 22.2608C112 20.6092 109.693 19.7964 107.517 20.1897Z" fill="#3780FF"/>
<path id="Vector_6" d="M136.717 18.1718C139.863 15.2355 144.713 14.2393 148.75 15.7861C152.578 17.228 155.016 20.8721 156.248 24.621C150.559 26.9805 144.897 29.3137 139.208 31.6732C139.994 33.1676 141.2 34.5308 142.826 35.0814C145.106 35.8941 147.833 35.6057 149.747 34.0851C150.507 33.5084 151.11 32.7481 151.687 32.014C153.129 32.984 154.571 33.9278 156.012 34.8978C153.968 37.9652 150.533 40.1149 146.837 40.4557C142.747 40.9538 138.395 39.3809 135.747 36.1825C131.395 31.1489 131.815 22.7072 136.717 18.1718ZM139.522 23.0218C138.631 24.3064 138.264 25.8794 138.29 27.4262C142.092 25.8532 145.893 24.2802 149.694 22.681C149.065 21.2129 147.545 20.3215 145.998 20.0856C143.507 19.6399 140.912 20.9769 139.522 23.0218Z" fill="#FA3913"/>
</g>
<defs>
<clipPath id="clip0_5641_20313">
<rect width="157" height="52" fill="white" transform="translate(0 0.96875)"/>
</clipPath>
</defs>
</svg>
