<svg width="24" height="25" viewBox="0 0 24 25" fill="none" xmlns="http://www.w3.org/2000/svg">
<g id="Play">
<path id="Vector" d="M21.3844 12.3304L7.89375 4.08042C7.78018 4.01037 7.64998 3.97188 7.51658 3.96893C7.38318 3.96598 7.25141 3.99868 7.13486 4.06364C7.0183 4.1286 6.92119 4.22349 6.85354 4.3385C6.78589 4.45351 6.75015 4.58449 6.75 4.71792V21.2179C6.75015 21.3514 6.78589 21.4823 6.85354 21.5974C6.92119 21.7124 7.0183 21.8072 7.13486 21.8722C7.25141 21.9372 7.38318 21.9699 7.51658 21.9669C7.64998 21.964 7.78018 21.9255 7.89375 21.8554L21.3844 13.6054C21.4952 13.5399 21.5869 13.4467 21.6507 13.3349C21.7145 13.2231 21.748 13.0966 21.748 12.9679C21.748 12.8392 21.7145 12.7128 21.6507 12.601C21.5869 12.4892 21.4952 12.3959 21.3844 12.3304V12.3304Z" stroke="white" stroke-linecap="round" stroke-linejoin="round"/>
</g>
</svg>
