<svg width="24" height="24" viewBox="0 0 24 24" fill="none" xmlns="http://www.w3.org/2000/svg">
<g id="free-icon-carrot-766076">
<rect width="24" height="24" rx="12" fill="#FE9D12" fill-opacity="0.1"/>
<g id="Group 1026">
<g id="Group">
<g id="Group_2">
<path id="Vector" d="M16.1349 14.7303C16.031 14.6263 15.8624 14.6263 15.7584 14.7303L15.036 15.4528C14.932 15.5568 14.932 15.7253 15.036 15.8293C15.14 15.9333 15.3085 15.9333 15.4125 15.8293L16.1349 15.1068C16.2389 15.0029 16.2389 14.8343 16.1349 14.7303Z" fill="#FE9D12"/>
</g>
</g>
<g id="Group_3">
<g id="Group_4">
<path id="Vector_2" d="M12.1408 10.203C12.0368 10.099 11.8683 10.099 11.7643 10.203L11.762 10.2053L11.1337 10.8337C11.0297 10.9376 11.0297 11.1062 11.1337 11.2102C11.2376 11.3141 11.4062 11.3141 11.5102 11.2102L12.1408 10.5795C12.2448 10.4755 12.2448 10.3069 12.1408 10.203Z" fill="#FE9D12"/>
</g>
</g>
<g id="Group_5">
<g id="Group_6">
<path id="Vector_3" d="M16.7372 13.5532C15.8958 12.2905 14.9513 11.0996 13.9133 9.99274C13.4151 9.49191 12.7371 9.21141 12.0307 9.21382C11.6757 9.21506 11.3245 9.28707 10.9977 9.42561L10.9577 9.44444L10.8753 9.47738L10.5529 9.16676C11.3387 8.61005 11.5245 7.52171 10.9678 6.73588C10.4417 5.99332 9.43305 5.78015 8.65151 6.24641C7.73702 5.94452 6.75093 6.44114 6.44905 7.35563C6.36683 7.60463 6.34186 7.86899 6.37595 8.12899C5.79329 8.89579 5.94257 9.98971 6.70937 10.5724C7.47617 11.155 8.57009 11.0057 9.15275 10.2389C9.16893 10.2176 9.18463 10.196 9.19981 10.1739L9.67046 10.6446C9.13277 11.6781 9.32286 12.9404 10.1411 13.7697L10.2823 13.9061C11.2095 14.7721 14.9887 17.9984 16.9513 17.9984C17.2723 18.0148 17.5861 17.8992 17.8197 17.6784C18.488 17.0124 18.1326 15.6616 16.7372 13.5532ZM9.29629 9.51504C9.19275 9.41091 9.02438 9.41041 8.92025 9.51395C8.88957 9.54445 8.8668 9.58198 8.85389 9.62328C8.65048 10.2596 7.96978 10.6105 7.33347 10.4071C7.14878 10.3481 6.98099 10.2455 6.84424 10.108C6.36986 9.63402 6.36959 8.86519 6.84362 8.39081C6.84383 8.39061 6.84403 8.3904 6.84424 8.3902C6.90563 8.32842 6.93287 8.24053 6.91719 8.15487C6.83391 7.75339 6.95969 7.33707 7.25135 7.04886C7.60306 6.70297 8.1276 6.60101 8.58327 6.79001C8.67031 6.82751 8.7707 6.81583 8.84683 6.75942C9.33103 6.40964 9.99635 6.45723 10.4258 6.87237C10.8991 7.34384 10.9005 8.10969 10.429 8.58292C10.3104 8.702 10.1683 8.79504 10.0117 8.85613C9.87448 8.90858 9.8058 9.06231 9.85824 9.19947C9.8718 9.23497 9.89284 9.26715 9.9199 9.29383L10.3905 9.76448C10.2331 9.88817 10.0888 10.0277 9.9599 10.181L9.29629 9.51504ZM17.4455 17.2995C17.3115 17.4187 17.1348 17.4782 16.956 17.4642C16.6882 17.4546 16.4236 17.4022 16.1724 17.3089L16.4077 17.0736C16.5117 16.9696 16.5117 16.801 16.4077 16.6971C16.3037 16.5931 16.1352 16.5931 16.0312 16.6971L15.6382 17.09C14.8861 16.724 14.1673 16.2933 13.4897 15.8028L13.9604 15.3322C14.0644 15.2282 14.0644 15.0597 13.9604 14.9557C13.8564 14.8517 13.6878 14.8517 13.5839 14.9557L13.0614 15.4781C12.1672 14.8192 11.3601 14.1438 10.8682 13.6967L11.6589 12.906C11.7629 12.802 11.7629 12.6335 11.6589 12.5295C11.5549 12.4255 11.3864 12.4255 11.2824 12.5295L10.4823 13.3296C9.82559 12.6217 9.72255 11.5623 10.2305 10.7411C10.4691 10.3778 10.8074 10.0911 11.2048 9.91508C11.4665 9.80604 11.7472 9.75003 12.0307 9.75036C12.5959 9.74897 13.1381 9.9735 13.5368 10.374C13.7392 10.5763 14.0922 10.9693 14.5087 11.4682L13.9345 12.0306C13.8305 12.1346 13.8305 12.3032 13.9345 12.4071C14.0385 12.5111 14.207 12.5111 14.311 12.4071L14.8405 11.8777C15.3182 12.4613 15.8359 13.1672 16.2877 13.8473C17.4643 15.6075 17.8761 16.8665 17.4455 17.2995Z" fill="#FE9D12"/>
</g>
</g>
</g>
</g>
</svg>
