<svg width="24" height="24" viewBox="0 0 24 24" fill="none" xmlns="http://www.w3.org/2000/svg">
<rect width="24" height="24" rx="12" fill="#16222A"/>
<path d="M16.134 14.73C16.03 14.626 15.8614 14.626 15.7575 14.73L15.035 15.4525C14.931 15.5564 14.931 15.725 15.035 15.829C15.139 15.933 15.3076 15.933 15.4115 15.829L16.134 15.1065C16.238 15.0026 16.238 14.834 16.134 14.73Z" fill="white"/>
<path d="M12.1399 10.2022C12.0359 10.0982 11.8673 10.0982 11.7633 10.2022L11.761 10.2046L11.1327 10.8329C11.0287 10.9369 11.0287 11.1054 11.1327 11.2094C11.2367 11.3134 11.4052 11.3134 11.5092 11.2094L12.1399 10.5787C12.2438 10.4748 12.2438 10.3062 12.1399 10.2022Z" fill="white"/>
<path d="M16.7362 13.5531C15.8948 12.2904 14.9503 11.0995 13.9123 9.99271C13.4141 9.49188 12.7362 9.21138 12.0298 9.21379C11.6747 9.21503 11.3236 9.28704 10.9967 9.42558L10.9567 9.44441L10.8743 9.47735L10.5519 9.16673C11.3378 8.61002 11.5235 7.52168 10.9668 6.73585C10.4407 5.99329 9.43207 5.78012 8.65054 6.24638C7.73604 5.94449 6.74996 6.44111 6.44807 7.3556C6.36585 7.6046 6.34088 7.86896 6.37497 8.12896C5.79231 8.89576 5.9416 9.98968 6.70839 10.5723C7.47519 11.155 8.56911 11.0057 9.15177 10.2389C9.16795 10.2176 9.18366 10.1959 9.19884 10.1739L9.66948 10.6446C9.1318 11.678 9.32188 12.9404 10.1401 13.7696L10.2813 13.9061C11.2085 14.7721 14.9878 17.9984 16.9503 17.9984C17.2713 18.0148 17.5851 17.8991 17.8187 17.6783C18.487 17.0124 18.1317 15.6616 16.7362 13.5531ZM9.29532 9.515C9.19178 9.41087 9.0234 9.41037 8.91927 9.51392C8.88859 9.54442 8.86583 9.58195 8.85291 9.62325C8.64951 10.2596 7.96881 10.6105 7.3325 10.4071C7.1478 10.3481 6.98001 10.2455 6.84326 10.108C6.36888 9.63399 6.36862 8.86516 6.84264 8.39078C6.84285 8.39058 6.84306 8.39037 6.84326 8.39017C6.90465 8.32839 6.93189 8.2405 6.91621 8.15484C6.83294 7.75336 6.95872 7.33704 7.25037 7.04883C7.60209 6.70294 8.12662 6.60098 8.58229 6.78998C8.66933 6.82748 8.76973 6.8158 8.84585 6.75938C9.33006 6.40961 9.99537 6.4572 10.4249 6.87234C10.8981 7.34381 10.8995 8.10966 10.4281 8.58289C10.3094 8.70197 10.1673 8.79501 10.0107 8.8561C9.8735 8.90855 9.80482 9.06227 9.85727 9.19944C9.87083 9.23494 9.89186 9.26712 9.91892 9.2938L10.3896 9.76445C10.2321 9.88814 10.0878 10.0277 9.95893 10.181L9.29532 9.515ZM17.4445 17.2995C17.3106 17.4187 17.1338 17.4782 16.955 17.4642C16.6872 17.4546 16.4227 17.4022 16.1714 17.3089L16.4067 17.0735C16.5107 16.9696 16.5107 16.801 16.4067 16.697C16.3028 16.593 16.1342 16.593 16.0302 16.697L15.6372 17.09C14.8852 16.724 14.1663 16.2933 13.4888 15.8028L13.9594 15.3322C14.0634 15.2282 14.0634 15.0596 13.9594 14.9556C13.8554 14.8517 13.6869 14.8517 13.5829 14.9556L13.0605 15.4781C12.1662 14.8192 11.3591 14.1438 10.8673 13.6967L11.6579 12.906C11.7619 12.802 11.7619 12.6335 11.6579 12.5295C11.554 12.4255 11.3854 12.4255 11.2814 12.5295L10.4813 13.3296C9.82462 12.6216 9.72157 11.5623 10.2295 10.741C10.4682 10.3778 10.8064 10.091 11.2038 9.91505C11.4655 9.80601 11.7463 9.75 12.0298 9.75033C12.5949 9.74894 13.1371 9.97347 13.5358 10.3739C13.7382 10.5763 14.0912 10.9693 14.5077 11.4682L13.9335 12.0306C13.8295 12.1346 13.8295 12.3031 13.9335 12.4071C14.0375 12.5111 14.206 12.5111 14.31 12.4071L14.8395 11.8776C15.3172 12.4612 15.8349 13.1672 16.2867 13.8473C17.4633 15.6075 17.8752 16.8665 17.4445 17.2995Z" fill="white"/>
</svg>
