<svg width="32" height="32" viewBox="0 0 32 32" fill="none" xmlns="http://www.w3.org/2000/svg">
<path d="M17.3346 14.6667H23.7346C25.2281 14.6667 25.9748 14.6667 26.5453 14.9573C27.047 15.213 27.455 15.6209 27.7107 16.1227C28.0013 16.6931 28.0013 17.4399 28.0013 18.9333V28M17.3346 28V8.26667C17.3346 6.77319 17.3346 6.02646 17.044 5.45603C16.7883 4.95426 16.3804 4.54631 15.8786 4.29065C15.3082 4 14.5614 4 13.068 4H8.26797C6.7745 4 6.02776 4 5.45733 4.29065C4.95556 4.54631 4.54761 4.95426 4.29195 5.45603C4.0013 6.02646 4.0013 6.77319 4.0013 8.26667V28M29.3346 28H2.66797M8.66797 9.33333H12.668M8.66797 14.6667H12.668M8.66797 20H12.668" stroke="white" stroke-width="2" stroke-linecap="round" stroke-linejoin="round"/>
</svg>
