<svg width="33" height="32" viewBox="0 0 33 32" fill="none" xmlns="http://www.w3.org/2000/svg">
<path d="M13.668 27.6667L15.6319 28.7578C16.0101 28.9679 16.1991 29.0729 16.3994 29.1141C16.5766 29.1505 16.7594 29.1505 16.9366 29.1141C17.1368 29.0729 17.3259 28.9679 17.704 28.7578L19.668 27.6667M7.66797 24.3334L5.76526 23.2763C5.36591 23.0544 5.16621 22.9435 5.02081 22.7857C4.89218 22.6461 4.79483 22.4807 4.73528 22.3005C4.66797 22.0967 4.66797 21.8683 4.66797 21.4114V19.3334M4.66797 12.6667V10.5886C4.66797 10.1318 4.66797 9.90334 4.73528 9.69961C4.79483 9.51938 4.89218 9.35393 5.02081 9.21435C5.16622 9.05656 5.3659 8.94563 5.76526 8.72376L7.66797 7.6667M13.668 4.33336L15.6319 3.24227C16.0101 3.0322 16.1991 2.92716 16.3994 2.88598C16.5766 2.84953 16.7594 2.84953 16.9366 2.88598C17.1368 2.92716 17.3259 3.0322 17.704 3.24227L19.668 4.33336M25.668 7.6667L27.5707 8.72376C27.97 8.94563 28.1697 9.05656 28.3151 9.21434C28.4438 9.35393 28.5411 9.51937 28.6007 9.69961C28.668 9.90334 28.668 10.1318 28.668 10.5886V12.6667M28.668 19.3334V21.4114C28.668 21.8683 28.668 22.0967 28.6007 22.3005C28.5411 22.4807 28.4438 22.6461 28.3151 22.7857C28.1697 22.9435 27.97 23.0544 27.5707 23.2763L25.668 24.3334M13.668 14.3334L16.668 16M16.668 16L19.668 14.3334M16.668 16V19.3334M4.66797 9.33336L7.66797 11M25.668 11L28.668 9.33336M16.668 26V29.3334" stroke="white" stroke-width="2" stroke-linecap="round" stroke-linejoin="round"/>
</svg>
