<svg fill="#fff" class="svg-icon" xmlns="http://www.w3.org/2000/svg" xmlns:xlink="http://www.w3.org/1999/xlink"><defs><symbol viewBox="0 0 24 24" fill="none" id="back_sprite">
<g clip-path="url(#back_sprite_clip0_2386_2742)">
<circle cx="12" cy="12" r="9.25" transform="rotate(-180 12 12)" stroke="white" stroke-width="1.5" />
<path d="M10.7012 16L7.00017 12L10.7012 8" stroke="white" stroke-width="1.5" stroke-linecap="round" stroke-linejoin="round" />
<path d="M7.28987 12L17 12" stroke="white" stroke-width="1.5" stroke-linecap="round" />
</g>
<defs>

</defs>
</symbol><clipPath id="back_sprite_clip0_2386_2742">
<rect width="24" height="24" fill="white" transform="translate(24 24) rotate(-180)" />
</clipPath><symbol viewBox="0 0 19 18" fill="none" id="card_sprite">
<g clip-path="url(#card_sprite_clip0_2384_2156)">
<path d="M0.5 15.3281H18.5V2.67188H0.5V15.3281ZM1.55469 9H4.24773C4.33354 10.0245 4.68289 10.6831 5.29004 10.9605C5.74029 11.1662 6.23539 11.1184 6.70483 10.9611C6.465 11.4907 6.33594 12.0862 6.33594 12.6914H7.39062C7.39062 11.4872 8.049 10.4376 8.97266 10.1389V14.2734H1.55469V9ZM11.082 9.00338V7.94197C12.1512 7.05245 12.9472 6.79595 13.2717 6.94417C13.5558 7.07393 13.7188 7.63105 13.7188 8.47266C13.7188 9.31426 13.5558 9.87138 13.2717 10.0012C12.9472 10.1494 12.1512 9.89286 11.082 9.00338ZM10.0273 7.94531V9H8.97266V7.94531H10.0273ZM7.91797 9.00338C6.8488 9.8929 6.05297 10.1495 5.7283 10.0012C5.4442 9.87138 5.28125 9.31426 5.28125 8.47266C5.28125 7.63105 5.4442 7.07393 5.7283 6.94413C6.05282 6.79584 6.84873 7.05241 7.91797 7.94194V9.00338ZM10.0273 14.2734V10.1389C10.951 10.4376 11.6094 11.4872 11.6094 12.6914H12.6641C12.6641 12.0862 12.535 11.4908 12.2952 10.9612C12.7645 11.1184 13.2596 11.1662 13.71 10.9605C14.3171 10.6832 14.6665 10.0245 14.7523 9.00004H17.4453V14.2735H10.0273V14.2734ZM17.4453 7.94531H14.7523C14.6665 6.92086 14.3171 6.26217 13.71 5.98482C12.7953 5.56696 11.6403 6.17252 10.7072 6.89062H10.0273V3.72656H17.4453V7.94531ZM8.97266 3.72656V6.89062H8.2928C7.35969 6.17252 6.20473 5.56696 5.29004 5.98482C4.68293 6.26217 4.33354 6.92086 4.24773 7.94531H1.55469V3.72656H8.97266Z" fill="white" />
</g>
<defs>

</defs>
</symbol><clipPath id="card_sprite_clip0_2384_2156">
<rect width="18" height="18" fill="white" transform="translate(0.5)" />
</clipPath><symbol viewBox="0 0 16 17" fill="none" id="caret_sprite">
<path d="M13 6.5L8 11.5L3 6.5" stroke="white" stroke-linecap="round" stroke-linejoin="round" />
</symbol><symbol viewBox="0 0 18 18" fill="none" id="clip_sprite">
<path d="M16.8747 5.0625C16.8747 6.26456 16.4067 7.39462 15.5567 8.24456L7.45109 16.4464C6.79184 17.1056 5.92615 17.4352 5.06103 17.4352C4.19703 17.4352 3.33303 17.1062 2.67546 16.4486C1.35978 15.1324 1.35978 12.9915 2.67546 11.6758L8.53109 5.85337C9.41028 4.97981 10.8075 4.95113 11.6473 5.78981C12.0574 6.19987 12.2734 6.75337 12.256 7.34906C12.2385 7.93181 11.9983 8.48419 11.5793 8.90325L6.02234 14.4602C5.8024 14.6801 5.4469 14.6801 5.22696 14.4602C5.00703 14.2403 5.00703 13.8847 5.22696 13.6648L10.7839 8.10787C10.9993 7.89244 11.1231 7.61119 11.1315 7.31587C11.14 7.0335 11.0404 6.77362 10.852 6.58519C10.4498 6.18469 9.76465 6.21338 9.32478 6.651L3.46971 12.4723C2.5939 13.3487 2.5939 14.7763 3.47084 15.6532C4.34834 16.5302 5.7754 16.5302 6.6529 15.6532L14.7585 7.45144C15.3987 6.81131 15.7497 5.96419 15.7497 5.0625C15.7497 4.16081 15.3987 3.31369 14.7613 2.67637C14.1235 2.0385 13.2763 1.6875 12.3747 1.6875C11.473 1.6875 10.6258 2.0385 9.98797 2.67637L2.08371 10.5244C1.86265 10.7432 1.50715 10.7421 1.28834 10.521C1.06953 10.3005 1.07065 9.945 1.29115 9.72563L9.19428 1.87931C10.0425 1.0305 11.1726 0.5625 12.3747 0.5625C13.5767 0.5625 14.7068 1.0305 15.5567 1.881C16.4067 2.73038 16.8747 3.86044 16.8747 5.0625Z" fill="white" fill-opacity="0.4" />
</symbol><symbol viewBox="0 0 20 20" fill="none" id="close_sprite">
<path d="M20 1.17833L18.8217 0L10 8.82167L1.17833 0L0 1.17833L8.82167 10L0 18.8217L1.17833 20L10 11.1783L18.8217 20L20 18.8217L11.1783 10L20 1.17833Z" fill="white" />
</symbol><symbol viewBox="0 0 24 16" fill="none" id="mobile_sprite">
<path d="M24 7H0V9H24V7Z" fill="white" />
<path d="M24 0H0V2H24V0Z" fill="white" />
<path d="M24 14H0V16H24V14Z" fill="white" />
</symbol><symbol viewBox="0 0 24 24" fill="none" id="play_sprite">
<path d="M21.3844 11.3625L7.89375 3.11253C7.78018 3.04248 7.64998 3.00399 7.51658 3.00104C7.38318 2.99809 7.25141 3.03078 7.13486 3.09574C7.0183 3.16071 6.92119 3.25559 6.85354 3.3706C6.78589 3.48562 6.75015 3.61659 6.75 3.75003V20.25C6.75015 20.3835 6.78589 20.5144 6.85354 20.6295C6.92119 20.7445 7.0183 20.8394 7.13486 20.9043C7.25141 20.9693 7.38318 21.002 7.51658 20.999C7.64998 20.9961 7.78018 20.9576 7.89375 20.8875L21.3844 12.6375C21.4952 12.572 21.5869 12.4788 21.6507 12.367C21.7145 12.2552 21.748 12.1287 21.748 12C21.748 11.8713 21.7145 11.7449 21.6507 11.6331C21.5869 11.5213 21.4952 11.428 21.3844 11.3625V11.3625Z" stroke="white" stroke-linecap="round" stroke-linejoin="round" />
</symbol><symbol viewBox="0 0 24 24" fill="none" id="plus_sprite">
<g clip-path="url(#plus_sprite_clip0_2384_2176)">
<path d="M10.8017 3.071C11.543 2.643 12.4564 2.643 13.1977 3.071L19.1334 6.498C19.8748 6.92601 20.3315 7.71699 20.3315 8.573V15.427C20.3315 16.283 19.8748 17.074 19.1334 17.502L13.1977 20.929C12.4564 21.357 11.543 21.357 10.8017 20.929L4.86597 17.502C4.12465 17.074 3.66797 16.283 3.66797 15.427V8.573C3.66797 7.71699 4.12465 6.92601 4.86597 6.498L10.8017 3.071Z" stroke="white" stroke-width="1.5" />
<path d="M15 12L9 12" stroke="white" stroke-width="1.5" stroke-linecap="round" stroke-linejoin="round" />
<path d="M12 15L12 9" stroke="white" stroke-width="1.5" stroke-linecap="round" stroke-linejoin="round" />
</g>
<defs>

</defs>
</symbol><clipPath id="plus_sprite_clip0_2384_2176">
<rect width="24" height="24" fill="white" />
</clipPath><symbol viewBox="0 0 24 24" fill="none" id="upload_sprite">
<g clip-path="url(#upload_sprite_clip0_2709_331)">
<path d="M7.28906 5.79883L11.8727 1.99961L16.4563 5.79883" stroke="white" stroke-width="1.5" stroke-linecap="round" stroke-linejoin="round" />
<path d="M11.873 2.3818L11.873 18" stroke="white" stroke-width="1.5" stroke-linecap="round" />
<path d="M8.0177 9.625L6.97786 9.7978C5.43262 10.0546 4.65999 10.183 4.05394 10.5205C3.20691 10.9921 2.56002 11.7554 2.23357 12.6683C2 13.3215 2 14.1047 2 15.6711V15.6711C2 17.4916 2 18.4018 2.29077 19.1222C2.69726 20.1293 3.49575 20.9277 4.5028 21.3342C5.22316 21.625 6.1334 21.625 7.95387 21.625H16.0461C17.8666 21.625 18.7768 21.625 19.4972 21.3342C20.5043 20.9277 21.3027 20.1293 21.7092 19.1222C22 18.4018 22 17.4916 22 15.6711V15.6711C22 14.1047 22 13.3215 21.7664 12.6683C21.44 11.7554 20.7931 10.9921 19.9461 10.5205C19.34 10.183 18.5674 10.0546 17.0221 9.7978L15.9823 9.625" stroke="white" stroke-width="1.5" stroke-linecap="round" />
</g>
<defs>

</defs>
</symbol><clipPath id="upload_sprite_clip0_2709_331">
<rect width="24" height="24" fill="white" />
</clipPath></defs></svg>