<svg fill="#fff" class="svg-icon" xmlns="http://www.w3.org/2000/svg" xmlns:xlink="http://www.w3.org/1999/xlink"><defs><symbol viewBox="0 0 32 32" fill="none" id="accordion-arrow_sprite">
<path fill-rule="evenodd" clip-rule="evenodd" d="M15.8886 18.3174L22.881 11.325C23.3143 10.8917 24.0188 10.8917 24.4522 11.325C24.8855 11.7584 24.8855 12.4628 24.4522 12.8962L16.6742 20.6742C16.2408 21.1086 15.5363 21.1086 15.103 20.6742L7.32501 12.8962C6.89166 12.4628 6.89166 11.7584 7.32501 11.325C7.75835 10.8917 8.46282 10.8917 8.89616 11.325L15.8886 18.3174Z" fill="#847455" />
</symbol><symbol viewBox="0 0 30 12" fill="none" id="arrow-l_sprite">
<path d="M0.691105 6.61058H29.3065C29.6469 6.61058 29.9219 6.33558 29.9219 5.99519C29.9219 5.65481 29.6469 5.37981 29.3065 5.37981H2.17764L5.91226 1.64519C6.15264 1.40481 6.15264 1.01442 5.91226 0.774038C5.67187 0.533654 5.28149 0.533654 5.0411 0.774038L0.254567 5.56058C0.0776441 5.7375 0.0257205 6.00096 0.121874 6.23173C0.218028 6.46058 0.443028 6.61058 0.691105 6.61058Z" fill="white" />
<path d="M5.48275 11.4034C5.64044 11.4034 5.79814 11.3438 5.91737 11.2227C6.15775 10.9823 6.15775 10.5919 5.91737 10.3515L1.12506 5.55919C0.884675 5.31881 0.494291 5.31881 0.253907 5.55919C0.0135221 5.79958 0.0135221 6.18996 0.253907 6.43035L5.04621 11.2227C5.16737 11.3438 5.32506 11.4034 5.48275 11.4034Z" fill="white" />
</symbol><symbol viewBox="0 0 30 12" fill="none" id="arrow-r_sprite">
<path d="M29.3089 6.61058H0.69351C0.353125 6.61058 0.078125 6.33558 0.078125 5.99519C0.078125 5.65481 0.353125 5.37981 0.69351 5.37981H27.8224L24.0877 1.64519C23.8474 1.40481 23.8474 1.01442 24.0877 0.774038C24.3281 0.533654 24.7185 0.533654 24.9589 0.774038L29.7454 5.56058C29.9224 5.7375 29.9743 6.00096 29.8781 6.23173C29.782 6.46058 29.557 6.61058 29.3089 6.61058Z" fill="white" />
<path d="M24.5172 11.4034C24.3596 11.4034 24.2019 11.3438 24.0826 11.2227C23.8422 10.9823 23.8422 10.5919 24.0826 10.3515L28.8749 5.55919C29.1153 5.31881 29.5057 5.31881 29.7461 5.55919C29.9865 5.79958 29.9865 6.18996 29.7461 6.43035L24.9538 11.2227C24.8326 11.3438 24.6749 11.4034 24.5172 11.4034Z" fill="white" />
</symbol><symbol viewBox="0 0 10 18" fill="none" id="arrow_sprite">
<path d="M9.51616 8.50605L1.19062 0.20355C0.917848 -0.0683121 0.476217 -0.0678551 0.203898 0.204956C-0.0682108 0.477733 -0.0675076 0.91961 0.205304 1.19168L8.03528 9.00003L0.205022 16.8083C-0.0677538 17.0805 -0.068457 17.5221 0.203616 17.7949C0.340127 17.9316 0.518967 18 0.697806 18C0.876188 18 1.05432 17.9321 1.19059 17.7963L9.51616 9.49398C9.64753 9.36327 9.72126 9.18538 9.72126 9.00003C9.72126 8.81469 9.64732 8.63701 9.51616 8.50605Z" fill="#847455" />
</symbol><symbol viewBox="0 0 24 24" fill="none" id="back_sprite">
<g clip-path="url(#back_sprite_clip0_2386_2742)">
<circle cx="12" cy="12" r="9.25" transform="rotate(-180 12 12)" stroke="white" stroke-width="1.5" />
<path d="M10.7012 16L7.00017 12L10.7012 8" stroke="white" stroke-width="1.5" stroke-linecap="round" stroke-linejoin="round" />
<path d="M7.28987 12L17 12" stroke="white" stroke-width="1.5" stroke-linecap="round" />
</g>
<defs>

</defs>
</symbol><clipPath id="back_sprite_clip0_2386_2742">
<rect width="24" height="24" fill="white" transform="translate(24 24) rotate(-180)" />
</clipPath><symbol viewBox="0 0 24 24" fill="none" id="bell_sprite">
<g clip-path="url(#bell_sprite_clip0_3295_13345)">
<path d="M2.76562 20.6112H21.2393" stroke="white" stroke-width="1.5" stroke-linecap="round" stroke-linejoin="round" />
<path d="M3 15.2557C3 10.2852 7.02944 6.25574 12 6.25574C16.9706 6.25574 21 10.2852 21 15.2557V17.0868C21 17.4188 20.7309 17.6879 20.3989 17.6879H3.60112C3.26913 17.6879 3 17.4188 3 17.0868V15.2557Z" stroke="white" stroke-width="1.5" />
<path d="M12 6.24299V3.38855" stroke="white" stroke-width="1.5" stroke-linecap="round" stroke-linejoin="round" />
<path d="M9.4595 3.38855L14.543 3.38855" stroke="white" stroke-width="1.5" stroke-linecap="round" stroke-linejoin="round" />
</g>
<defs>

</defs>
</symbol><clipPath id="bell_sprite_clip0_3295_13345">
<rect width="24" height="24" fill="white" />
</clipPath><symbol viewBox="0 0 19 18" fill="none" id="card_sprite">
<g clip-path="url(#card_sprite_clip0_2384_2156)">
<path d="M0.5 15.3281H18.5V2.67188H0.5V15.3281ZM1.55469 9H4.24773C4.33354 10.0245 4.68289 10.6831 5.29004 10.9605C5.74029 11.1662 6.23539 11.1184 6.70483 10.9611C6.465 11.4907 6.33594 12.0862 6.33594 12.6914H7.39062C7.39062 11.4872 8.049 10.4376 8.97266 10.1389V14.2734H1.55469V9ZM11.082 9.00338V7.94197C12.1512 7.05245 12.9472 6.79595 13.2717 6.94417C13.5558 7.07393 13.7188 7.63105 13.7188 8.47266C13.7188 9.31426 13.5558 9.87138 13.2717 10.0012C12.9472 10.1494 12.1512 9.89286 11.082 9.00338ZM10.0273 7.94531V9H8.97266V7.94531H10.0273ZM7.91797 9.00338C6.8488 9.8929 6.05297 10.1495 5.7283 10.0012C5.4442 9.87138 5.28125 9.31426 5.28125 8.47266C5.28125 7.63105 5.4442 7.07393 5.7283 6.94413C6.05282 6.79584 6.84873 7.05241 7.91797 7.94194V9.00338ZM10.0273 14.2734V10.1389C10.951 10.4376 11.6094 11.4872 11.6094 12.6914H12.6641C12.6641 12.0862 12.535 11.4908 12.2952 10.9612C12.7645 11.1184 13.2596 11.1662 13.71 10.9605C14.3171 10.6832 14.6665 10.0245 14.7523 9.00004H17.4453V14.2735H10.0273V14.2734ZM17.4453 7.94531H14.7523C14.6665 6.92086 14.3171 6.26217 13.71 5.98482C12.7953 5.56696 11.6403 6.17252 10.7072 6.89062H10.0273V3.72656H17.4453V7.94531ZM8.97266 3.72656V6.89062H8.2928C7.35969 6.17252 6.20473 5.56696 5.29004 5.98482C4.68293 6.26217 4.33354 6.92086 4.24773 7.94531H1.55469V3.72656H8.97266Z" fill="white" />
</g>
<defs>

</defs>
</symbol><clipPath id="card_sprite_clip0_2384_2156">
<rect width="18" height="18" fill="white" transform="translate(0.5)" />
</clipPath><symbol viewBox="0 0 16 17" fill="none" id="caret_sprite">
<path d="M13 6.5L8 11.5L3 6.5" stroke="white" stroke-linecap="round" stroke-linejoin="round" />
</symbol><symbol viewBox="0 0 18 18" fill="none" id="clip_sprite">
<path d="M16.8747 5.0625C16.8747 6.26456 16.4067 7.39462 15.5567 8.24456L7.45109 16.4464C6.79184 17.1056 5.92615 17.4352 5.06103 17.4352C4.19703 17.4352 3.33303 17.1062 2.67546 16.4486C1.35978 15.1324 1.35978 12.9915 2.67546 11.6758L8.53109 5.85337C9.41028 4.97981 10.8075 4.95113 11.6473 5.78981C12.0574 6.19987 12.2734 6.75337 12.256 7.34906C12.2385 7.93181 11.9983 8.48419 11.5793 8.90325L6.02234 14.4602C5.8024 14.6801 5.4469 14.6801 5.22696 14.4602C5.00703 14.2403 5.00703 13.8847 5.22696 13.6648L10.7839 8.10787C10.9993 7.89244 11.1231 7.61119 11.1315 7.31587C11.14 7.0335 11.0404 6.77362 10.852 6.58519C10.4498 6.18469 9.76465 6.21338 9.32478 6.651L3.46971 12.4723C2.5939 13.3487 2.5939 14.7763 3.47084 15.6532C4.34834 16.5302 5.7754 16.5302 6.6529 15.6532L14.7585 7.45144C15.3987 6.81131 15.7497 5.96419 15.7497 5.0625C15.7497 4.16081 15.3987 3.31369 14.7613 2.67637C14.1235 2.0385 13.2763 1.6875 12.3747 1.6875C11.473 1.6875 10.6258 2.0385 9.98797 2.67637L2.08371 10.5244C1.86265 10.7432 1.50715 10.7421 1.28834 10.521C1.06953 10.3005 1.07065 9.945 1.29115 9.72563L9.19428 1.87931C10.0425 1.0305 11.1726 0.5625 12.3747 0.5625C13.5767 0.5625 14.7068 1.0305 15.5567 1.881C16.4067 2.73038 16.8747 3.86044 16.8747 5.0625Z" fill="white" fill-opacity="0.4" />
</symbol><symbol viewBox="0 0 20 20" fill="none" id="close_sprite">
<path d="M20 1.17833L18.8217 0L10 8.82167L1.17833 0L0 1.17833L8.82167 10L0 18.8217L1.17833 20L10 11.1783L18.8217 20L20 18.8217L11.1783 10L20 1.17833Z" fill="white" />
</symbol><symbol viewBox="0 0 25 24" fill="none" id="download_sprite">
<path d="M4 18V16C4 15.8674 4.05268 15.7402 4.14645 15.6464C4.24021 15.5527 4.36739 15.5 4.5 15.5C4.63261 15.5 4.75979 15.5527 4.85355 15.6464C4.94732 15.7402 5 15.8674 5 16V18C5.00043 18.3977 5.15861 18.779 5.43982 19.0602C5.72103 19.3414 6.10231 19.4996 6.5 19.5H18.5C18.8977 19.4996 19.279 19.3414 19.5602 19.0602C19.8414 18.779 19.9996 18.3977 20 18V16C20 15.8674 20.0527 15.7402 20.1464 15.6464C20.2402 15.5527 20.3674 15.5 20.5 15.5C20.6326 15.5 20.7598 15.5527 20.8536 15.6464C20.9473 15.7402 21 15.8674 21 16V18C20.9994 18.6629 20.7358 19.2984 20.2671 19.7671C19.7984 20.2358 19.1629 20.4994 18.5 20.5H6.5C5.83715 20.4994 5.20162 20.2358 4.73291 19.7671C4.2642 19.2984 4.00061 18.6629 4 18ZM7.14648 8.64648C7.10005 8.6929 7.06321 8.748 7.03808 8.80866C7.01295 8.86931 7.00002 8.93433 7.00002 8.99998C7.00002 9.06563 7.01295 9.13065 7.03808 9.1913C7.06321 9.25196 7.10005 9.30706 7.14648 9.35348L12.1465 14.3535C12.1929 14.3999 12.248 14.4367 12.3087 14.4619C12.3693 14.487 12.4343 14.4999 12.5 14.4999C12.5656 14.4999 12.6306 14.487 12.6913 14.4619C12.752 14.4367 12.8071 14.3999 12.8535 14.3535L17.8535 9.35348C17.9446 9.25918 17.995 9.13288 17.9938 9.00178C17.9927 8.87068 17.9401 8.74527 17.8474 8.65257C17.7547 8.55987 17.6293 8.50728 17.4982 8.50614C17.3671 8.505 17.2408 8.5554 17.1465 8.64648L13 12.793V4C13 3.86739 12.9473 3.74021 12.8536 3.64645C12.7598 3.55268 12.6326 3.5 12.5 3.5C12.3674 3.5 12.2402 3.55268 12.1464 3.64645C12.0527 3.74021 12 3.86739 12 4V12.793L7.85352 8.64648C7.8071 8.60004 7.75199 8.5632 7.69133 8.53807C7.63068 8.51293 7.56566 8.5 7.5 8.5C7.43434 8.5 7.36932 8.51293 7.30867 8.53807C7.24801 8.5632 7.1929 8.60004 7.14648 8.64648Z" fill="#9B8164" />
</symbol><symbol viewBox="0 0 24 16" fill="none" id="mobile_sprite">
<path d="M24 7H0V9H24V7Z" fill="white" />
<path d="M24 0H0V2H24V0Z" fill="white" />
<path d="M24 14H0V16H24V14Z" fill="white" />
</symbol><symbol viewBox="0 0 24 24" fill="none" id="phone_sprite">
<path d="M14.2992 15.8419C11.9825 14.8608 10.1402 13.0142 9.16447 10.6953L11.8699 7.98509L6.88876 3L4.36558 5.52238C3.92795 5.96252 3.58193 6.48507 3.34756 7.05981C3.11319 7.63454 2.99511 8.25004 3.00016 8.87071C3.00016 14.638 10.362 21.9998 16.1293 21.9998C16.7498 22.0051 17.3653 21.8871 17.9399 21.6527C18.5146 21.4183 19.0369 21.0722 19.4768 20.6344L22 18.1112L17.0149 13.1261L14.2992 15.8419ZM18.3525 19.5093C18.0598 19.7988 17.7126 20.0273 17.331 20.1817C16.9494 20.336 16.5409 20.4131 16.1293 20.4084C11.1696 20.4084 4.59156 13.8303 4.59156 8.87071C4.58688 8.45919 4.66394 8.05085 4.81829 7.66935C4.97264 7.28785 5.2012 6.94079 5.49071 6.6483L6.88876 5.25025L9.6236 7.98509L7.2882 10.3205L7.48315 10.809C8.05705 12.3442 8.95422 13.7381 10.1139 14.8962C11.2735 16.0544 12.6686 16.9497 14.2045 17.5216L14.6867 17.7054L17.0149 15.3764L19.7497 18.1112L18.3525 19.5093Z" fill="#0C1921" />
</symbol><symbol viewBox="0 0 24 24" fill="none" id="play2_sprite">
<g clip-path="url(#play2_sprite_clip0_3295_13354)">
<path d="M10.8017 3.071C11.543 2.643 12.4564 2.643 13.1977 3.071L19.1334 6.498C19.8748 6.92601 20.3315 7.71699 20.3315 8.573V15.427C20.3315 16.283 19.8748 17.074 19.1334 17.502L13.1977 20.929C12.4564 21.357 11.543 21.357 10.8017 20.929L4.86597 17.502C4.12465 17.074 3.66797 16.283 3.66797 15.427V8.573C3.66797 7.71699 4.12465 6.92601 4.86597 6.498L10.8017 3.071Z" stroke="white" stroke-width="1.5" />
<path d="M13.439 9.14896C14.8309 9.94436 15.5269 10.3421 15.787 10.8467C16.071 11.3978 16.071 12.0522 15.787 12.6033C15.5269 13.1079 14.8309 13.5056 13.439 14.3011C12.0655 15.0859 11.3788 15.4783 10.8157 15.4484C10.2007 15.4158 9.63879 15.0897 9.30534 14.572C9 14.0978 9 13.3069 9 11.725C9 10.1431 9 9.35218 9.30534 8.87806C9.63879 8.36028 10.2007 8.03421 10.8157 8.00159C11.3788 7.97171 12.0655 8.36413 13.439 9.14896Z" stroke="white" stroke-width="1.5" />
</g>
<defs>

</defs>
</symbol><clipPath id="play2_sprite_clip0_3295_13354">
<rect width="24" height="24" fill="white" />
</clipPath><symbol viewBox="0 0 24 24" fill="none" id="play_sprite">
<path d="M21.3844 11.3625L7.89375 3.11253C7.78018 3.04248 7.64998 3.00399 7.51658 3.00104C7.38318 2.99809 7.25141 3.03078 7.13486 3.09574C7.0183 3.16071 6.92119 3.25559 6.85354 3.3706C6.78589 3.48562 6.75015 3.61659 6.75 3.75003V20.25C6.75015 20.3835 6.78589 20.5144 6.85354 20.6295C6.92119 20.7445 7.0183 20.8394 7.13486 20.9043C7.25141 20.9693 7.38318 21.002 7.51658 20.999C7.64998 20.9961 7.78018 20.9576 7.89375 20.8875L21.3844 12.6375C21.4952 12.572 21.5869 12.4788 21.6507 12.367C21.7145 12.2552 21.748 12.1287 21.748 12C21.748 11.8713 21.7145 11.7449 21.6507 11.6331C21.5869 11.5213 21.4952 11.428 21.3844 11.3625V11.3625Z" stroke="white" stroke-linecap="round" stroke-linejoin="round" />
</symbol><symbol viewBox="0 0 24 24" fill="none" id="plus_sprite">
<g clip-path="url(#plus_sprite_clip0_2384_2176)">
<path d="M10.8017 3.071C11.543 2.643 12.4564 2.643 13.1977 3.071L19.1334 6.498C19.8748 6.92601 20.3315 7.71699 20.3315 8.573V15.427C20.3315 16.283 19.8748 17.074 19.1334 17.502L13.1977 20.929C12.4564 21.357 11.543 21.357 10.8017 20.929L4.86597 17.502C4.12465 17.074 3.66797 16.283 3.66797 15.427V8.573C3.66797 7.71699 4.12465 6.92601 4.86597 6.498L10.8017 3.071Z" stroke="white" stroke-width="1.5" />
<path d="M15 12L9 12" stroke="white" stroke-width="1.5" stroke-linecap="round" stroke-linejoin="round" />
<path d="M12 15L12 9" stroke="white" stroke-width="1.5" stroke-linecap="round" stroke-linejoin="round" />
</g>
<defs>

</defs>
</symbol><clipPath id="plus_sprite_clip0_2384_2176">
<rect width="24" height="24" fill="white" />
</clipPath><symbol viewBox="0 0 16 17" fill="none" id="question_sprite">
<path d="M8 14.5C11.3137 14.5 14 11.8137 14 8.5C14 5.18629 11.3137 2.5 8 2.5C4.68629 2.5 2 5.18629 2 8.5C2 11.8137 4.68629 14.5 8 14.5Z" stroke="white" stroke-linecap="round" stroke-linejoin="round" />
<path d="M8 12.5C8.41421 12.5 8.75 12.1642 8.75 11.75C8.75 11.3358 8.41421 11 8 11C7.58579 11 7.25 11.3358 7.25 11.75C7.25 12.1642 7.58579 12.5 8 12.5Z" fill="white" />
<path d="M8 9.5V9C8.34612 9 8.68446 8.89736 8.97225 8.70507C9.26003 8.51278 9.48434 8.23947 9.61679 7.9197C9.74924 7.59993 9.7839 7.24806 9.71637 6.90859C9.64885 6.56913 9.48218 6.25731 9.23744 6.01256C8.9927 5.76782 8.68087 5.60115 8.34141 5.53363C8.00194 5.4661 7.65007 5.50076 7.3303 5.63321C7.01053 5.76566 6.73722 5.98997 6.54493 6.27775C6.35264 6.56554 6.25 6.90388 6.25 7.25" stroke="white" stroke-linecap="round" stroke-linejoin="round" />
</symbol><symbol viewBox="0 0 24 24" fill="none" id="upload_sprite">
<g clip-path="url(#upload_sprite_clip0_2709_331)">
<path d="M7.28906 5.79883L11.8727 1.99961L16.4563 5.79883" stroke="white" stroke-width="1.5" stroke-linecap="round" stroke-linejoin="round" />
<path d="M11.873 2.3818L11.873 18" stroke="white" stroke-width="1.5" stroke-linecap="round" />
<path d="M8.0177 9.625L6.97786 9.7978C5.43262 10.0546 4.65999 10.183 4.05394 10.5205C3.20691 10.9921 2.56002 11.7554 2.23357 12.6683C2 13.3215 2 14.1047 2 15.6711V15.6711C2 17.4916 2 18.4018 2.29077 19.1222C2.69726 20.1293 3.49575 20.9277 4.5028 21.3342C5.22316 21.625 6.1334 21.625 7.95387 21.625H16.0461C17.8666 21.625 18.7768 21.625 19.4972 21.3342C20.5043 20.9277 21.3027 20.1293 21.7092 19.1222C22 18.4018 22 17.4916 22 15.6711V15.6711C22 14.1047 22 13.3215 21.7664 12.6683C21.44 11.7554 20.7931 10.9921 19.9461 10.5205C19.34 10.183 18.5674 10.0546 17.0221 9.7978L15.9823 9.625" stroke="white" stroke-width="1.5" stroke-linecap="round" />
</g>
<defs>

</defs>
</symbol><clipPath id="upload_sprite_clip0_2709_331">
<rect width="24" height="24" fill="white" />
</clipPath></defs></svg>