<svg fill="#fff" class="svg-icon" xmlns="http://www.w3.org/2000/svg" xmlns:xlink="http://www.w3.org/1999/xlink"><defs><symbol viewBox="0 0 32 32" fill="none" id="accordion-arrow_sprite">
<path fill-rule="evenodd" clip-rule="evenodd" d="M15.8886 18.3174L22.881 11.325C23.3143 10.8917 24.0188 10.8917 24.4522 11.325C24.8855 11.7584 24.8855 12.4628 24.4522 12.8962L16.6742 20.6742C16.2408 21.1086 15.5363 21.1086 15.103 20.6742L7.32501 12.8962C6.89166 12.4628 6.89166 11.7584 7.32501 11.325C7.75835 10.8917 8.46282 10.8917 8.89616 11.325L15.8886 18.3174Z" fill="#847455" />
</symbol><symbol viewBox="0 0 30 12" fill="none" id="arrow-l_sprite">
<path d="M0.691105 6.61058H29.3065C29.6469 6.61058 29.9219 6.33558 29.9219 5.99519C29.9219 5.65481 29.6469 5.37981 29.3065 5.37981H2.17764L5.91226 1.64519C6.15264 1.40481 6.15264 1.01442 5.91226 0.774038C5.67187 0.533654 5.28149 0.533654 5.0411 0.774038L0.254567 5.56058C0.0776441 5.7375 0.0257205 6.00096 0.121874 6.23173C0.218028 6.46058 0.443028 6.61058 0.691105 6.61058Z" fill="white" />
<path d="M5.48275 11.4034C5.64044 11.4034 5.79814 11.3438 5.91737 11.2227C6.15775 10.9823 6.15775 10.5919 5.91737 10.3515L1.12506 5.55919C0.884675 5.31881 0.494291 5.31881 0.253907 5.55919C0.0135221 5.79958 0.0135221 6.18996 0.253907 6.43035L5.04621 11.2227C5.16737 11.3438 5.32506 11.4034 5.48275 11.4034Z" fill="white" />
</symbol><symbol viewBox="0 0 30 30" fill="none" id="arrow-next_sprite">
<g id="arrow-next_sprite_right-arrow 1">
<g id="arrow-next_sprite_Group">
<g id="arrow-next_sprite_Group_2">
<g id="arrow-next_sprite_Group_3">
<g id="arrow-next_sprite_Group_4">
<path id="arrow-next_sprite_Vector" d="M29.3089 15.6106H0.69351C0.353125 15.6106 0.078125 15.3356 0.078125 14.9952C0.078125 14.6548 0.353125 14.3798 0.69351 14.3798H27.8224L24.0877 10.6452C23.8474 10.4048 23.8474 10.0144 24.0877 9.77404C24.3281 9.53365 24.7185 9.53365 24.9589 9.77404L29.7454 14.5606C29.9224 14.7375 29.9743 15.001 29.8781 15.2317C29.782 15.4606 29.557 15.6106 29.3089 15.6106Z" fill="white" />
</g>
<g id="arrow-next_sprite_Group_5">
<path id="arrow-next_sprite_Vector_2" d="M24.5212 20.4034C24.3635 20.4034 24.2058 20.3438 24.0865 20.2227C23.8462 19.9823 23.8462 19.5919 24.0865 19.3515L28.8788 14.5592C29.1192 14.3188 29.5096 14.3188 29.75 14.5592C29.9904 14.7996 29.9904 15.19 29.75 15.4303L24.9577 20.2227C24.8365 20.3438 24.6788 20.4034 24.5212 20.4034Z" fill="white" />
</g>
</g>
</g>
</g>
</g>
</symbol><symbol viewBox="0 0 30 30" fill="none" id="arrow-prev_sprite">
<path d="M0.691105 15.6106H29.3065C29.6469 15.6106 29.9219 15.3356 29.9219 14.9952C29.9219 14.6548 29.6469 14.3798 29.3065 14.3798H2.17764L5.91226 10.6452C6.15264 10.4048 6.15264 10.0144 5.91226 9.77404C5.67188 9.53365 5.28149 9.53365 5.0411 9.77404L0.254566 14.5606C0.0776443 14.7375 0.0257206 15.001 0.121874 15.2317C0.218029 15.4606 0.443027 15.6106 0.691105 15.6106Z" fill="white" />
<path d="M5.47884 20.4034C5.63654 20.4034 5.79423 20.3438 5.91346 20.2227C6.15385 19.9823 6.15385 19.5919 5.91346 19.3515L1.12115 14.5592C0.880768 14.3188 0.490385 14.3188 0.25 14.5592C0.0096159 14.7996 0.0096159 15.19 0.25 15.4303L5.04231 20.2227C5.16346 20.3438 5.32115 20.4034 5.47884 20.4034Z" fill="white" />
</symbol><symbol viewBox="0 0 30 12" fill="none" id="arrow-r_sprite">
<path d="M29.3089 6.61058H0.69351C0.353125 6.61058 0.078125 6.33558 0.078125 5.99519C0.078125 5.65481 0.353125 5.37981 0.69351 5.37981H27.8224L24.0877 1.64519C23.8474 1.40481 23.8474 1.01442 24.0877 0.774038C24.3281 0.533654 24.7185 0.533654 24.9589 0.774038L29.7454 5.56058C29.9224 5.7375 29.9743 6.00096 29.8781 6.23173C29.782 6.46058 29.557 6.61058 29.3089 6.61058Z" fill="white" />
<path d="M24.5172 11.4034C24.3596 11.4034 24.2019 11.3438 24.0826 11.2227C23.8422 10.9823 23.8422 10.5919 24.0826 10.3515L28.8749 5.55919C29.1153 5.31881 29.5057 5.31881 29.7461 5.55919C29.9865 5.79958 29.9865 6.18996 29.7461 6.43035L24.9538 11.2227C24.8326 11.3438 24.6749 11.4034 24.5172 11.4034Z" fill="white" />
</symbol><symbol viewBox="0 0 24 24" fill="none" id="arrow-slider-l_sprite">
<path d="M20.25 12H3.75" stroke="currentColor" stroke-opacity="1" stroke-width="1.5" stroke-linecap="round" stroke-linejoin="round" />
<path d="M10.5 5.25L3.75 12L10.5 18.75" stroke="currentColor" stroke-opacity="1" stroke-width="1.5" stroke-linecap="round" stroke-linejoin="round" />
</symbol><symbol viewBox="0 0 24 24" fill="none" id="arrow-slider-r_sprite">
<path d="M3.75 12H20.25" stroke="currentColor" stroke-width="1.5" stroke-linecap="round" stroke-linejoin="round" />
<path d="M13.5 5.25L20.25 12L13.5 18.75" stroke="currentColor" stroke-width="1.5" stroke-linecap="round" stroke-linejoin="round" />
</symbol><symbol viewBox="0 0 10 18" fill="none" id="arrow_sprite">
<path d="M9.51616 8.50605L1.19062 0.20355C0.917848 -0.0683121 0.476217 -0.0678551 0.203898 0.204956C-0.0682108 0.477733 -0.0675076 0.91961 0.205304 1.19168L8.03528 9.00003L0.205022 16.8083C-0.0677538 17.0805 -0.068457 17.5221 0.203616 17.7949C0.340127 17.9316 0.518967 18 0.697806 18C0.876188 18 1.05432 17.9321 1.19059 17.7963L9.51616 9.49398C9.64753 9.36327 9.72126 9.18538 9.72126 9.00003C9.72126 8.81469 9.64732 8.63701 9.51616 8.50605Z" fill="#847455" />
</symbol><symbol viewBox="0 0 24 24" fill="none" id="back_sprite">
<g clip-path="url(#back_sprite_clip0_2386_2742)">
<circle cx="12" cy="12" r="9.25" transform="rotate(-180 12 12)" stroke="white" stroke-width="1.5" />
<path d="M10.7012 16L7.00017 12L10.7012 8" stroke="white" stroke-width="1.5" stroke-linecap="round" stroke-linejoin="round" />
<path d="M7.28987 12L17 12" stroke="white" stroke-width="1.5" stroke-linecap="round" />
</g>
<defs>

</defs>
</symbol><clipPath id="back_sprite_clip0_2386_2742">
<rect width="24" height="24" fill="white" transform="translate(24 24) rotate(-180)" />
</clipPath><symbol viewBox="0 0 24 24" fill="none" id="bell_sprite">
<g clip-path="url(#bell_sprite_clip0_3295_13345)">
<path d="M2.76562 20.6112H21.2393" stroke="white" stroke-width="1.5" stroke-linecap="round" stroke-linejoin="round" />
<path d="M3 15.2557C3 10.2852 7.02944 6.25574 12 6.25574C16.9706 6.25574 21 10.2852 21 15.2557V17.0868C21 17.4188 20.7309 17.6879 20.3989 17.6879H3.60112C3.26913 17.6879 3 17.4188 3 17.0868V15.2557Z" stroke="white" stroke-width="1.5" />
<path d="M12 6.24299V3.38855" stroke="white" stroke-width="1.5" stroke-linecap="round" stroke-linejoin="round" />
<path d="M9.4595 3.38855L14.543 3.38855" stroke="white" stroke-width="1.5" stroke-linecap="round" stroke-linejoin="round" />
</g>
<defs>

</defs>
</symbol><clipPath id="bell_sprite_clip0_3295_13345">
<rect width="24" height="24" fill="white" />
</clipPath><symbol viewBox="0 0 19 18" fill="none" id="card_sprite">
<g clip-path="url(#card_sprite_clip0_2384_2156)">
<path d="M0.5 15.3281H18.5V2.67188H0.5V15.3281ZM1.55469 9H4.24773C4.33354 10.0245 4.68289 10.6831 5.29004 10.9605C5.74029 11.1662 6.23539 11.1184 6.70483 10.9611C6.465 11.4907 6.33594 12.0862 6.33594 12.6914H7.39062C7.39062 11.4872 8.049 10.4376 8.97266 10.1389V14.2734H1.55469V9ZM11.082 9.00338V7.94197C12.1512 7.05245 12.9472 6.79595 13.2717 6.94417C13.5558 7.07393 13.7188 7.63105 13.7188 8.47266C13.7188 9.31426 13.5558 9.87138 13.2717 10.0012C12.9472 10.1494 12.1512 9.89286 11.082 9.00338ZM10.0273 7.94531V9H8.97266V7.94531H10.0273ZM7.91797 9.00338C6.8488 9.8929 6.05297 10.1495 5.7283 10.0012C5.4442 9.87138 5.28125 9.31426 5.28125 8.47266C5.28125 7.63105 5.4442 7.07393 5.7283 6.94413C6.05282 6.79584 6.84873 7.05241 7.91797 7.94194V9.00338ZM10.0273 14.2734V10.1389C10.951 10.4376 11.6094 11.4872 11.6094 12.6914H12.6641C12.6641 12.0862 12.535 11.4908 12.2952 10.9612C12.7645 11.1184 13.2596 11.1662 13.71 10.9605C14.3171 10.6832 14.6665 10.0245 14.7523 9.00004H17.4453V14.2735H10.0273V14.2734ZM17.4453 7.94531H14.7523C14.6665 6.92086 14.3171 6.26217 13.71 5.98482C12.7953 5.56696 11.6403 6.17252 10.7072 6.89062H10.0273V3.72656H17.4453V7.94531ZM8.97266 3.72656V6.89062H8.2928C7.35969 6.17252 6.20473 5.56696 5.29004 5.98482C4.68293 6.26217 4.33354 6.92086 4.24773 7.94531H1.55469V3.72656H8.97266Z" fill="white" />
</g>
<defs>

</defs>
</symbol><clipPath id="card_sprite_clip0_2384_2156">
<rect width="18" height="18" fill="white" transform="translate(0.5)" />
</clipPath><symbol viewBox="0 0 16 17" fill="none" id="caret_sprite">
<path d="M13 6.5L8 11.5L3 6.5" stroke="white" stroke-linecap="round" stroke-linejoin="round" />
</symbol><symbol viewBox="0 0 18 18" fill="none" id="clip_sprite">
<path d="M16.8747 5.0625C16.8747 6.26456 16.4067 7.39462 15.5567 8.24456L7.45109 16.4464C6.79184 17.1056 5.92615 17.4352 5.06103 17.4352C4.19703 17.4352 3.33303 17.1062 2.67546 16.4486C1.35978 15.1324 1.35978 12.9915 2.67546 11.6758L8.53109 5.85337C9.41028 4.97981 10.8075 4.95113 11.6473 5.78981C12.0574 6.19987 12.2734 6.75337 12.256 7.34906C12.2385 7.93181 11.9983 8.48419 11.5793 8.90325L6.02234 14.4602C5.8024 14.6801 5.4469 14.6801 5.22696 14.4602C5.00703 14.2403 5.00703 13.8847 5.22696 13.6648L10.7839 8.10787C10.9993 7.89244 11.1231 7.61119 11.1315 7.31587C11.14 7.0335 11.0404 6.77362 10.852 6.58519C10.4498 6.18469 9.76465 6.21338 9.32478 6.651L3.46971 12.4723C2.5939 13.3487 2.5939 14.7763 3.47084 15.6532C4.34834 16.5302 5.7754 16.5302 6.6529 15.6532L14.7585 7.45144C15.3987 6.81131 15.7497 5.96419 15.7497 5.0625C15.7497 4.16081 15.3987 3.31369 14.7613 2.67637C14.1235 2.0385 13.2763 1.6875 12.3747 1.6875C11.473 1.6875 10.6258 2.0385 9.98797 2.67637L2.08371 10.5244C1.86265 10.7432 1.50715 10.7421 1.28834 10.521C1.06953 10.3005 1.07065 9.945 1.29115 9.72563L9.19428 1.87931C10.0425 1.0305 11.1726 0.5625 12.3747 0.5625C13.5767 0.5625 14.7068 1.0305 15.5567 1.881C16.4067 2.73038 16.8747 3.86044 16.8747 5.0625Z" fill="white" fill-opacity="0.4" />
</symbol><symbol viewBox="0 0 20 20" fill="none" id="close_sprite">
<path d="M20 1.17833L18.8217 0L10 8.82167L1.17833 0L0 1.17833L8.82167 10L0 18.8217L1.17833 20L10 11.1783L18.8217 20L20 18.8217L11.1783 10L20 1.17833Z" fill="white" />
</symbol><symbol viewBox="0 0 25 24" fill="none" id="download_sprite">
<path d="M4 18V16C4 15.8674 4.05268 15.7402 4.14645 15.6464C4.24021 15.5527 4.36739 15.5 4.5 15.5C4.63261 15.5 4.75979 15.5527 4.85355 15.6464C4.94732 15.7402 5 15.8674 5 16V18C5.00043 18.3977 5.15861 18.779 5.43982 19.0602C5.72103 19.3414 6.10231 19.4996 6.5 19.5H18.5C18.8977 19.4996 19.279 19.3414 19.5602 19.0602C19.8414 18.779 19.9996 18.3977 20 18V16C20 15.8674 20.0527 15.7402 20.1464 15.6464C20.2402 15.5527 20.3674 15.5 20.5 15.5C20.6326 15.5 20.7598 15.5527 20.8536 15.6464C20.9473 15.7402 21 15.8674 21 16V18C20.9994 18.6629 20.7358 19.2984 20.2671 19.7671C19.7984 20.2358 19.1629 20.4994 18.5 20.5H6.5C5.83715 20.4994 5.20162 20.2358 4.73291 19.7671C4.2642 19.2984 4.00061 18.6629 4 18ZM7.14648 8.64648C7.10005 8.6929 7.06321 8.748 7.03808 8.80866C7.01295 8.86931 7.00002 8.93433 7.00002 8.99998C7.00002 9.06563 7.01295 9.13065 7.03808 9.1913C7.06321 9.25196 7.10005 9.30706 7.14648 9.35348L12.1465 14.3535C12.1929 14.3999 12.248 14.4367 12.3087 14.4619C12.3693 14.487 12.4343 14.4999 12.5 14.4999C12.5656 14.4999 12.6306 14.487 12.6913 14.4619C12.752 14.4367 12.8071 14.3999 12.8535 14.3535L17.8535 9.35348C17.9446 9.25918 17.995 9.13288 17.9938 9.00178C17.9927 8.87068 17.9401 8.74527 17.8474 8.65257C17.7547 8.55987 17.6293 8.50728 17.4982 8.50614C17.3671 8.505 17.2408 8.5554 17.1465 8.64648L13 12.793V4C13 3.86739 12.9473 3.74021 12.8536 3.64645C12.7598 3.55268 12.6326 3.5 12.5 3.5C12.3674 3.5 12.2402 3.55268 12.1464 3.64645C12.0527 3.74021 12 3.86739 12 4V12.793L7.85352 8.64648C7.8071 8.60004 7.75199 8.5632 7.69133 8.53807C7.63068 8.51293 7.56566 8.5 7.5 8.5C7.43434 8.5 7.36932 8.51293 7.30867 8.53807C7.24801 8.5632 7.1929 8.60004 7.14648 8.64648Z" fill="#9B8164" />
</symbol><symbol viewBox="0 0 36 36" fill="none" id="facts-star_sprite">
<g id="facts-star_sprite_free-icon-star-2099045 1" clip-path="url(#facts-star_sprite_clip0_5641_20165)">
<g id="facts-star_sprite_g57">
<g id="facts-star_sprite_g59">
<g id="facts-star_sprite_Clip path group">

<g mask="url(#facts-star_sprite_mask0_5641_20165)">
<g id="facts-star_sprite_g61">
<g id="facts-star_sprite_g67">
<path id="facts-star_sprite_path69" d="M15.9674 3.03611C16.3493 2.26267 17.137 1.77302 18 1.77302C18.863 1.77302 19.6507 2.26267 20.0326 3.03611C21.2645 5.5322 22.7423 8.52702 23.5136 10.0899C23.8439 10.759 24.482 11.2226 25.2203 11.3302C26.9453 11.5807 30.2505 12.0606 33.0045 12.4613C33.8585 12.5854 34.5679 13.1832 34.8342 14.0037C35.1011 14.8242 34.8784 15.7252 34.2607 16.327C32.2678 18.2701 29.876 20.6013 28.6282 21.8179C28.0938 22.3386 27.8502 23.0889 27.976 23.8239C28.2706 25.5419 28.8356 28.8336 29.3059 31.5769C29.4515 32.4274 29.1025 33.2864 28.4044 33.7935C27.7062 34.3008 26.7809 34.3676 26.0171 33.9664C23.5538 32.6711 20.5976 31.1172 19.0546 30.3058C18.3944 29.959 17.6056 29.959 16.9455 30.3058C15.4025 31.1172 12.4462 32.6711 9.983 33.9664C9.21913 34.3676 8.29374 34.3008 7.59568 33.7935C6.89755 33.2864 6.54852 32.4274 6.69406 31.5769C7.16445 28.8336 7.72934 25.5419 8.02402 23.8239C8.14981 23.0889 7.90618 22.3386 7.37181 21.8179C6.12404 20.6013 3.73222 18.2701 1.73928 16.327C1.12159 15.7252 0.898908 14.8242 1.16581 14.0037C1.43216 13.1832 2.14161 12.5854 2.99556 12.4613C5.74949 12.0606 9.05481 11.5807 10.7797 11.3302C11.5181 11.2226 12.1561 10.759 12.4865 10.0899C13.2577 8.52702 14.7355 5.5322 15.9674 3.03611Z" stroke="white" stroke-width="2" stroke-miterlimit="10" stroke-linecap="round" stroke-linejoin="round" />
</g>
</g>
</g>
</g>
</g>
</g>
</g>
<defs>

</defs>
</symbol><mask id="facts-star_sprite_mask0_5641_20165" style="mask-type:luminance" maskUnits="userSpaceOnUse" x="0" y="0" width="36" height="36">
<g id="facts-star_sprite_clipPath65">
<path id="facts-star_sprite_path63" d="M0 3.8147e-06H36V36H0V3.8147e-06Z" fill="white" />
</g>
</mask><clipPath id="facts-star_sprite_clip0_5641_20165">
<rect width="36" height="36" fill="white" />
</clipPath><symbol viewBox="0 0 24 24" fill="none" id="hero-pause-btn_sprite">
<g id="hero-pause-btn_sprite_free-icon-pause-button-10279059 1">
<path id="hero-pause-btn_sprite_Vector" d="M8.5 21H6.7C5.98416 20.9992 5.29786 20.7145 4.79168 20.2083C4.2855 19.7021 4.00079 19.0158 4 18.3V5.7C4.00079 4.98416 4.2855 4.29786 4.79168 3.79168C5.29786 3.2855 5.98416 3.00079 6.7 3H8.5C9.21584 3.00079 9.90214 3.2855 10.4083 3.79168C10.9145 4.29786 11.1992 4.98416 11.2 5.7V18.3C11.1992 19.0158 10.9145 19.7021 10.4083 20.2083C9.90214 20.7145 9.21584 20.9992 8.5 21ZM6.7 4.8C6.46137 4.80021 6.23258 4.8951 6.06384 5.06384C5.8951 5.23258 5.80021 5.46137 5.8 5.7V18.3C5.80021 18.5386 5.8951 18.7674 6.06384 18.9362C6.23258 19.1049 6.46137 19.1998 6.7 19.2H8.5C8.73863 19.1998 8.96742 19.1049 9.13616 18.9362C9.3049 18.7674 9.39979 18.5386 9.4 18.3V5.7C9.39979 5.46137 9.3049 5.23258 9.13616 5.06384C8.96742 4.8951 8.73863 4.80021 8.5 4.8H6.7ZM17.5 21H15.7C14.9842 20.9992 14.2979 20.7145 13.7917 20.2083C13.2855 19.7021 13.0008 19.0158 13 18.3V5.7C13.0008 4.98416 13.2855 4.29786 13.7917 3.79168C14.2979 3.2855 14.9842 3.00079 15.7 3H17.5C18.2158 3.00079 18.9021 3.2855 19.4083 3.79168C19.9145 4.29786 20.1992 4.98416 20.2 5.7V18.3C20.1992 19.0158 19.9145 19.7021 19.4083 20.2083C18.9021 20.7145 18.2158 20.9992 17.5 21ZM15.7 4.8C15.4613 4.80014 15.2325 4.89501 15.0638 5.06376C14.895 5.23251 14.8001 5.46135 14.8 5.7V18.3C14.8001 18.5387 14.895 18.7675 15.0638 18.9362C15.2325 19.105 15.4613 19.1999 15.7 19.2H17.5C17.7387 19.1999 17.9675 19.105 18.1362 18.9362C18.305 18.7675 18.3999 18.5387 18.4 18.3V5.7C18.3999 5.46135 18.305 5.23251 18.1362 5.06376C17.9675 4.89501 17.7387 4.80014 17.5 4.8H15.7Z" fill="white" />
</g>
</symbol><symbol viewBox="0 0 24 24" fill="none" id="hero-play-btn_sprite">
<g id="hero-play-btn_sprite_free-icon-play-button-8647260 1">
<g id="hero-play-btn_sprite_Group">
<path id="hero-play-btn_sprite_Vector" d="M6 21.5C5.5 21.5 5 21.4 4.5 21.1C3.6 20.6 3 19.6 3 18.5V5.49999C3 4.39999 3.6 3.39999 4.5 2.89999C5.4 2.39999 6.6 2.39999 7.5 2.89999L18.6 9.39999C19.5 9.89999 20.1 10.9 20.1 12C20.1 13.1 19.5 14 18.6 14.6L7.5 21.1C7 21.4 6.5 21.5 6 21.5ZM6 4.49999C5.8 4.49999 5.6 4.59999 5.5 4.59999C5.4 4.69999 5 4.99999 5 5.49999V18.5C5 19 5.4 19.3 5.5 19.4C5.7 19.5 6.1 19.7 6.5 19.4L17.6 12.9C18 12.6 18.1 12.2 18.1 12C18.1 11.8 18.1 11.4 17.6 11.1L6.5 4.59999C6.3 4.49999 6.2 4.49999 6 4.49999Z" fill="white" />
</g>
</g>
</symbol><symbol viewBox="0 0 21 20" fill="none" id="jk_sprite">
<g id="jk_sprite_rice 1" clip-path="url(#jk_sprite_clip0_4386_24431)">
<g id="jk_sprite_Group">
<g id="jk_sprite_Group_2">
<path id="jk_sprite_Vector" d="M19.9102 8.20312H19.2645C19.1451 7.62258 18.8508 7.0893 18.4197 6.67641C18.6415 5.91457 18.5479 5.08945 18.1467 4.39453C17.7455 3.69961 17.0777 3.20602 16.307 3.01719C16.1182 2.24656 15.6246 1.57875 14.9296 1.1775C14.2348 0.776328 13.4096 0.682734 12.6478 0.904531C12.099 0.331562 11.3376 0 10.5352 0C9.72012 0 8.90633 0.345469 8.34957 0.906055C7.58633 0.682344 6.75891 0.77543 6.0625 1.1775C5.36758 1.57871 4.87398 2.24656 4.68512 3.01715C3.91449 3.20598 3.24668 3.69957 2.84547 4.39449C2.44426 5.08938 2.3507 5.91453 2.5725 6.67637C2.14141 7.0893 1.84711 7.62258 1.72773 8.20312H1.08203C0.758437 8.20312 0.496094 8.46547 0.496094 8.78906C0.496094 12.2289 2.27934 15.4188 5.18359 17.2367V18.2422C5.18359 19.2114 5.97215 20 6.94141 20H14.0508C15.02 20 15.8086 19.2114 15.8086 18.2422V17.2367C18.7129 15.4188 20.4961 12.2289 20.4961 8.78906C20.4961 8.46547 20.2338 8.20312 19.9102 8.20312ZM3.60141 7.34449C3.83711 7.18133 3.92012 6.87156 3.79762 6.61234C3.54973 6.08789 3.57316 5.47785 3.86035 4.98047C4.14754 4.48305 4.66414 4.1577 5.24219 4.11016C5.52789 4.08668 5.75465 3.85992 5.77816 3.57422C5.8257 2.99613 6.15102 2.47957 6.64844 2.19234C7.14582 1.90516 7.7559 1.88176 8.28031 2.12961C8.53949 2.25215 8.84926 2.1691 9.01242 1.9334C9.32781 1.47793 9.93973 1.17188 10.5352 1.17188C11.1096 1.17188 11.6496 1.45656 11.9797 1.93344C12.1429 2.16914 12.4527 2.25219 12.7119 2.12965C13.2363 1.88176 13.8463 1.9052 14.3437 2.19238C14.8411 2.47957 15.1665 2.99613 15.214 3.57422C15.2375 3.85992 15.4642 4.08668 15.7499 4.1102C16.328 4.15773 16.8446 4.48309 17.1318 4.98051C17.419 5.47789 17.4424 6.08793 17.1945 6.61238C17.072 6.87156 17.155 7.18137 17.3907 7.34453C17.6997 7.55844 17.9273 7.86074 18.0498 8.20316H2.94234C3.0648 7.8607 3.29238 7.5584 3.60141 7.34449ZM14.6367 18.2422C14.6367 18.5653 14.3739 18.8281 14.0508 18.8281H6.94141C6.61832 18.8281 6.35547 18.5653 6.35547 18.2422V17.5781H14.6367V18.2422ZM14.914 16.4062H6.0782C3.52461 14.9326 1.8827 12.2802 1.68758 9.36719H19.3046C19.1095 12.2802 17.4676 14.9326 14.914 16.4062Z" fill="white" />
</g>
</g>
<g id="jk_sprite_Group_3">
<g id="jk_sprite_Group_4">
<path id="jk_sprite_Vector_2" d="M12.8789 5.85938C13.2025 5.85938 13.4648 5.59704 13.4648 5.27344C13.4648 4.94983 13.2025 4.6875 12.8789 4.6875C12.5553 4.6875 12.293 4.94983 12.293 5.27344C12.293 5.59704 12.5553 5.85938 12.8789 5.85938Z" fill="white" />
</g>
</g>
<g id="jk_sprite_Group_5">
<g id="jk_sprite_Group_6">
<path id="jk_sprite_Vector_3" d="M15.2227 7.03125C15.5463 7.03125 15.8086 6.76892 15.8086 6.44531C15.8086 6.12171 15.5463 5.85938 15.2227 5.85938C14.8991 5.85938 14.6367 6.12171 14.6367 6.44531C14.6367 6.76892 14.8991 7.03125 15.2227 7.03125Z" fill="white" />
</g>
</g>
<g id="jk_sprite_Group_7">
<g id="jk_sprite_Group_8">
<path id="jk_sprite_Vector_4" d="M5.76953 5.85938C6.09314 5.85938 6.35547 5.59704 6.35547 5.27344C6.35547 4.94983 6.09314 4.6875 5.76953 4.6875C5.44593 4.6875 5.18359 4.94983 5.18359 5.27344C5.18359 5.59704 5.44593 5.85938 5.76953 5.85938Z" fill="white" />
</g>
</g>
</g>
<defs>

</defs>
</symbol><clipPath id="jk_sprite_clip0_4386_24431">
<rect width="20" height="20" fill="white" transform="translate(0.5)" />
</clipPath><symbol viewBox="0 0 24 16" fill="none" id="mobile_sprite">
<path d="M24 7H0V9H24V7Z" fill="white" />
<path d="M24 0H0V2H24V0Z" fill="white" />
<path d="M24 14H0V16H24V14Z" fill="white" />
</symbol><symbol viewBox="0 0 24 24" fill="none" id="phone_sprite">
<path d="M14.2992 15.8419C11.9825 14.8608 10.1402 13.0142 9.16447 10.6953L11.8699 7.98509L6.88876 3L4.36558 5.52238C3.92795 5.96252 3.58193 6.48507 3.34756 7.05981C3.11319 7.63454 2.99511 8.25004 3.00016 8.87071C3.00016 14.638 10.362 21.9998 16.1293 21.9998C16.7498 22.0051 17.3653 21.8871 17.9399 21.6527C18.5146 21.4183 19.0369 21.0722 19.4768 20.6344L22 18.1112L17.0149 13.1261L14.2992 15.8419ZM18.3525 19.5093C18.0598 19.7988 17.7126 20.0273 17.331 20.1817C16.9494 20.336 16.5409 20.4131 16.1293 20.4084C11.1696 20.4084 4.59156 13.8303 4.59156 8.87071C4.58688 8.45919 4.66394 8.05085 4.81829 7.66935C4.97264 7.28785 5.2012 6.94079 5.49071 6.6483L6.88876 5.25025L9.6236 7.98509L7.2882 10.3205L7.48315 10.809C8.05705 12.3442 8.95422 13.7381 10.1139 14.8962C11.2735 16.0544 12.6686 16.9497 14.2045 17.5216L14.6867 17.7054L17.0149 15.3764L19.7497 18.1112L18.3525 19.5093Z" fill="#0C1921" />
</symbol><symbol viewBox="0 0 65 66" fill="none" id="play-btn_sprite">
<g id="play-btn_sprite_free-icon-play-button-3747096 1">
<path id="play-btn_sprite_Vector" d="M45.0518 32.0129L26.1928 21.1214C26.0196 21.0214 25.8232 20.9687 25.6233 20.9688C25.4234 20.9688 25.227 21.0214 25.0538 21.1214C24.8807 21.2214 24.7369 21.3652 24.637 21.5384C24.537 21.7116 24.4844 21.9081 24.4844 22.1081V43.8911C24.4836 44.0913 24.5358 44.2883 24.6356 44.4619C24.7354 44.6355 24.8793 44.7797 25.0527 44.8798C25.226 44.98 25.4228 45.0325 25.623 45.0322C25.8232 45.0318 26.0198 44.9785 26.1928 44.8778L45.0518 33.9862C45.2249 33.8862 45.3687 33.7424 45.4687 33.5692C45.5686 33.396 45.6213 33.1995 45.6213 32.9996C45.6213 32.7996 45.5686 32.6031 45.4687 32.4299C45.3687 32.2567 45.2249 32.1129 45.0518 32.0129ZM25.988 43.2594V22.7397L43.7532 32.9996L25.988 43.2594Z" fill="white" />
<rect x="0.929688" y="1.41797" width="63.1502" height="63.1691" rx="31.5751" stroke="white" />
</g>
</symbol><symbol viewBox="0 0 24 24" fill="none" id="play2_sprite">
<g clip-path="url(#play2_sprite_clip0_3295_13354)">
<path d="M10.8017 3.071C11.543 2.643 12.4564 2.643 13.1977 3.071L19.1334 6.498C19.8748 6.92601 20.3315 7.71699 20.3315 8.573V15.427C20.3315 16.283 19.8748 17.074 19.1334 17.502L13.1977 20.929C12.4564 21.357 11.543 21.357 10.8017 20.929L4.86597 17.502C4.12465 17.074 3.66797 16.283 3.66797 15.427V8.573C3.66797 7.71699 4.12465 6.92601 4.86597 6.498L10.8017 3.071Z" stroke="white" stroke-width="1.5" />
<path d="M13.439 9.14896C14.8309 9.94436 15.5269 10.3421 15.787 10.8467C16.071 11.3978 16.071 12.0522 15.787 12.6033C15.5269 13.1079 14.8309 13.5056 13.439 14.3011C12.0655 15.0859 11.3788 15.4783 10.8157 15.4484C10.2007 15.4158 9.63879 15.0897 9.30534 14.572C9 14.0978 9 13.3069 9 11.725C9 10.1431 9 9.35218 9.30534 8.87806C9.63879 8.36028 10.2007 8.03421 10.8157 8.00159C11.3788 7.97171 12.0655 8.36413 13.439 9.14896Z" stroke="white" stroke-width="1.5" />
</g>
<defs>

</defs>
</symbol><clipPath id="play2_sprite_clip0_3295_13354">
<rect width="24" height="24" fill="white" />
</clipPath><symbol viewBox="0 0 24 24" fill="none" id="play_sprite">
<path d="M21.3844 11.3625L7.89375 3.11253C7.78018 3.04248 7.64998 3.00399 7.51658 3.00104C7.38318 2.99809 7.25141 3.03078 7.13486 3.09574C7.0183 3.16071 6.92119 3.25559 6.85354 3.3706C6.78589 3.48562 6.75015 3.61659 6.75 3.75003V20.25C6.75015 20.3835 6.78589 20.5144 6.85354 20.6295C6.92119 20.7445 7.0183 20.8394 7.13486 20.9043C7.25141 20.9693 7.38318 21.002 7.51658 20.999C7.64998 20.9961 7.78018 20.9576 7.89375 20.8875L21.3844 12.6375C21.4952 12.572 21.5869 12.4788 21.6507 12.367C21.7145 12.2552 21.748 12.1287 21.748 12C21.748 11.8713 21.7145 11.7449 21.6507 11.6331C21.5869 11.5213 21.4952 11.428 21.3844 11.3625V11.3625Z" stroke="white" stroke-linecap="round" stroke-linejoin="round" />
</symbol><symbol viewBox="0 0 24 24" fill="none" id="plus_sprite">
<g clip-path="url(#plus_sprite_clip0_2384_2176)">
<path d="M10.8017 3.071C11.543 2.643 12.4564 2.643 13.1977 3.071L19.1334 6.498C19.8748 6.92601 20.3315 7.71699 20.3315 8.573V15.427C20.3315 16.283 19.8748 17.074 19.1334 17.502L13.1977 20.929C12.4564 21.357 11.543 21.357 10.8017 20.929L4.86597 17.502C4.12465 17.074 3.66797 16.283 3.66797 15.427V8.573C3.66797 7.71699 4.12465 6.92601 4.86597 6.498L10.8017 3.071Z" stroke="white" stroke-width="1.5" />
<path d="M15 12L9 12" stroke="white" stroke-width="1.5" stroke-linecap="round" stroke-linejoin="round" />
<path d="M12 15L12 9" stroke="white" stroke-width="1.5" stroke-linecap="round" stroke-linejoin="round" />
</g>
<defs>

</defs>
</symbol><clipPath id="plus_sprite_clip0_2384_2176">
<rect width="24" height="24" fill="white" />
</clipPath><symbol viewBox="0 0 16 17" fill="none" id="question_sprite">
<path d="M8 14.5C11.3137 14.5 14 11.8137 14 8.5C14 5.18629 11.3137 2.5 8 2.5C4.68629 2.5 2 5.18629 2 8.5C2 11.8137 4.68629 14.5 8 14.5Z" stroke="currentColor" stroke-linecap="round" stroke-linejoin="round" />
<path d="M8 12.5C8.41421 12.5 8.75 12.1642 8.75 11.75C8.75 11.3358 8.41421 11 8 11C7.58579 11 7.25 11.3358 7.25 11.75C7.25 12.1642 7.58579 12.5 8 12.5Z" fill="currentColor" />
<path d="M8 9.5V9C8.34612 9 8.68446 8.89736 8.97225 8.70507C9.26003 8.51278 9.48434 8.23947 9.61679 7.9197C9.74924 7.59993 9.7839 7.24806 9.71637 6.90859C9.64885 6.56913 9.48218 6.25731 9.23744 6.01256C8.9927 5.76782 8.68087 5.60115 8.34141 5.53363C8.00194 5.4661 7.65007 5.50076 7.3303 5.63321C7.01053 5.76566 6.73722 5.98997 6.54493 6.27775C6.35264 6.56554 6.25 6.90388 6.25 7.25" stroke="currentColor" stroke-linecap="round" stroke-linejoin="round" />
</symbol><symbol viewBox="0 0 44 45" fill="none" id="quote-icon_sprite">
<g id="quote-icon_sprite_free-icon-quote-7350737 1">
<path id="quote-icon_sprite_Vector" d="M8.61302 33.4206C6.77969 31.4039 5.67969 29.2039 5.67969 25.5372C5.67969 19.1206 10.263 13.4372 16.6797 10.5039L18.3297 12.8872C12.2797 16.1872 10.9964 20.4039 10.6297 23.1539C11.5464 22.6039 12.8297 22.4206 14.113 22.6039C17.413 22.9706 19.9797 25.5372 19.9797 29.0206C19.9797 30.6706 19.2464 32.3206 18.1464 33.6039C16.863 34.8872 15.3964 35.4372 13.563 35.4372C11.5464 35.4372 9.71302 34.5206 8.61302 33.4206ZM26.9464 33.4206C25.113 31.4039 24.013 29.2039 24.013 25.5372C24.013 19.1206 28.5964 13.4372 35.013 10.5039L36.663 12.8872C30.613 16.1872 29.3297 20.4039 28.963 23.1539C29.8797 22.6039 31.163 22.4206 32.4464 22.6039C35.7464 22.9706 38.313 25.5372 38.313 29.0206C38.313 30.6706 37.5797 32.3206 36.4797 33.6039C35.3797 34.8872 33.7297 35.4372 31.8964 35.4372C29.8797 35.4372 28.0464 34.5206 26.9464 33.4206Z" fill="white" />
</g>
</symbol><symbol viewBox="0 0 157 53" fill="none" id="reviews-google_sprite">
<g id="reviews-google_sprite_google-2015 1" clip-path="url(#reviews-google_sprite_clip0_5641_20313)">
<path id="reviews-google_sprite_Vector" d="M19.2436 0.96875H20.6331C25.4569 1.07362 30.2021 3.01363 33.6102 6.44799C32.3518 7.73259 31.0672 8.96477 29.8351 10.2494C27.9213 8.51909 25.6142 7.18205 23.0974 6.71015C19.3747 5.92366 15.3636 6.6315 12.2438 8.75504C8.8357 10.9834 6.52866 14.7586 6.03054 18.7959C5.48 22.7808 6.60731 26.9755 9.20273 30.069C11.6933 33.0839 15.4947 34.9715 19.4271 35.1026C23.0974 35.3123 26.925 34.185 29.5991 31.6158C31.6964 29.8068 32.6664 27.0541 32.981 24.38C28.6291 24.38 24.2772 24.4063 19.9253 24.38V18.9795H38.2505C39.1943 24.7733 37.8311 31.3012 33.4267 35.4434C30.4905 38.3796 26.4269 40.1099 22.2847 40.4507C18.2736 40.844 14.1314 40.0837 10.566 38.1437C6.29271 35.8628 2.88457 32.009 1.20672 27.4736C-0.366267 23.3052 -0.392484 18.5862 1.07564 14.3916C2.41268 10.564 4.98189 7.18205 8.28516 4.82257C11.4573 2.4893 15.3112 1.2047 19.2436 0.96875Z" fill="#3780FF" />
<path id="reviews-google_sprite_Vector_2" d="M124.375 2.33594H129.985V39.773C128.124 39.773 126.236 39.7992 124.375 39.7468C124.401 27.294 124.375 14.815 124.375 2.33594Z" fill="#38B137" />
<path id="reviews-google_sprite_Vector_3" d="M50.7343 15.3185C54.1949 14.6631 57.9439 15.3971 60.8015 17.4682C63.3969 19.3034 65.2058 22.1872 65.7564 25.3332C66.4642 28.9773 65.5728 32.9622 63.2134 35.846C60.6704 39.0706 56.502 40.8009 52.4384 40.5387C48.7157 40.329 45.0978 38.4676 42.8956 35.4265C40.4051 32.0708 39.8021 27.4567 41.1653 23.5242C42.5286 19.3034 46.3824 16.0788 50.7343 15.3185ZM51.5208 20.2996C50.1051 20.6667 48.7943 21.4794 47.8505 22.6329C45.3075 25.674 45.4648 30.6289 48.27 33.4603C49.8692 35.0857 52.2811 35.846 54.5095 35.4003C56.5806 35.0333 58.3895 33.6438 59.3858 31.8086C61.116 28.6889 60.6179 24.3894 57.9701 21.9513C56.266 20.3783 53.7754 19.7229 51.5208 20.2996Z" fill="#FA3913" />
<path id="reviews-google_sprite_Vector_4" d="M78.5152 15.3126C82.4738 14.5523 86.7995 15.6534 89.762 18.4324C94.5858 22.7581 95.1102 30.859 90.9942 35.8401C88.5036 38.9861 84.4663 40.7164 80.4814 40.5328C76.68 40.428 72.9311 38.5404 70.6764 35.4206C68.1334 31.9863 67.5829 27.2673 69.0248 23.2562C70.4667 19.1664 74.2419 16.0467 78.5152 15.3126ZM79.3016 20.2937C77.886 20.6608 76.5751 21.4735 75.6313 22.6008C73.1146 25.5895 73.2194 30.4657 75.9197 33.3233C77.5189 35.0274 80.0095 35.8663 82.3165 35.3944C84.3614 35.0012 86.1966 33.6379 87.1928 31.8028C88.8969 28.6568 88.3987 24.3573 85.7247 21.9192C84.0206 20.3462 81.53 19.717 79.3016 20.2937Z" fill="#FCBD06" />
<path id="reviews-google_sprite_Vector_5" d="M102.09 16.834C105.105 14.9464 109.116 14.4221 112.367 16.0475C113.389 16.4932 114.228 17.2534 115.041 18.0137C115.067 17.3059 115.041 16.5718 115.067 15.8378C116.824 15.864 118.58 15.8378 120.363 15.864V38.9869C120.337 42.4737 119.445 46.1702 116.929 48.7132C114.176 51.5184 109.955 52.3835 106.154 51.8067C102.09 51.2038 98.5509 48.2413 96.9779 44.4924C98.5509 43.7321 100.203 43.1291 101.828 42.4213C102.746 44.571 104.607 46.4062 106.94 46.8256C109.273 47.2451 111.974 46.6683 113.494 44.7283C115.12 42.7358 115.12 40.0093 115.041 37.5712C113.835 38.7509 112.446 39.7996 110.768 40.1929C107.124 41.2153 103.113 39.9569 100.307 37.4926C97.476 35.0282 95.7982 31.2268 95.9555 27.4517C96.0341 23.1784 98.446 19.0624 102.09 16.834ZM107.517 20.1897C105.918 20.4519 104.423 21.3432 103.401 22.5754C100.937 25.5116 100.937 30.2044 103.427 33.0882C104.843 34.7923 107.124 35.7361 109.326 35.5001C111.397 35.2904 113.311 33.9796 114.333 32.1706C116.064 29.1033 115.775 24.9349 113.442 22.2608C112 20.6092 109.693 19.7964 107.517 20.1897Z" fill="#3780FF" />
<path id="reviews-google_sprite_Vector_6" d="M136.717 18.1718C139.863 15.2355 144.713 14.2393 148.75 15.7861C152.578 17.228 155.016 20.8721 156.248 24.621C150.559 26.9805 144.897 29.3137 139.208 31.6732C139.994 33.1676 141.2 34.5308 142.826 35.0814C145.106 35.8941 147.833 35.6057 149.747 34.0851C150.507 33.5084 151.11 32.7481 151.687 32.014C153.129 32.984 154.571 33.9278 156.012 34.8978C153.968 37.9652 150.533 40.1149 146.837 40.4557C142.747 40.9538 138.395 39.3809 135.747 36.1825C131.395 31.1489 131.815 22.7072 136.717 18.1718ZM139.522 23.0218C138.631 24.3064 138.264 25.8794 138.29 27.4262C142.092 25.8532 145.893 24.2802 149.694 22.681C149.065 21.2129 147.545 20.3215 145.998 20.0856C143.507 19.6399 140.912 20.9769 139.522 23.0218Z" fill="#FA3913" />
</g>
<defs>

</defs>
</symbol><clipPath id="reviews-google_sprite_clip0_5641_20313">
<rect width="157" height="52" fill="white" transform="translate(0 0.96875)" />
</clipPath><symbol viewBox="0 0 195 53" fill="none" id="reviews-opentable_sprite">
<g id="reviews-opentable_sprite_OpenTable_logo 1" clip-path="url(#reviews-opentable_sprite_clip0_5641_20350)">
<path id="reviews-opentable_sprite_Vector" d="M90.9849 49.7428V52.1242C90.9849 52.2545 90.8958 52.3449 90.7453 52.3449H90.1872C90.1292 52.344 90.0737 52.3204 90.0329 52.2791C89.9921 52.2379 89.9691 52.1823 89.9688 52.1242V45.5332C89.9688 45.4216 90.0681 45.3124 90.1881 45.3124H90.4361C90.5355 45.3124 90.596 45.3498 90.6358 45.4623L90.7549 45.7638C91.1493 45.4036 91.6657 45.2064 92.1998 45.2118C93.465 45.2118 94.3704 46.3071 94.3704 47.633C94.3704 48.9899 93.4153 50.064 92.1601 50.064C91.5624 50.064 91.0643 49.7935 90.9849 49.7428ZM90.9661 48.7679C90.9661 48.7679 91.4138 49.1101 92.0328 49.1101C92.7795 49.1101 93.3773 48.4664 93.3773 47.6341C93.3773 46.8094 92.8588 46.1656 92.0712 46.1656C91.4039 46.1656 91.0057 46.6779 90.9661 46.8193V48.7679ZM95.1397 48.5175C95.1397 47.6629 95.7971 47.0205 96.9828 47.0205C97.4616 47.0205 97.9094 47.1607 97.9094 47.1607C97.9281 46.4277 97.7495 46.0965 97.1726 46.0965C96.6442 46.0965 96.1258 46.2465 95.8876 46.3173C95.7475 46.3454 95.6584 46.2563 95.627 46.126L95.5379 45.744C95.5098 45.5828 95.5801 45.5134 95.6866 45.4726C95.7672 45.4445 96.4245 45.212 97.2717 45.212C98.7464 45.212 98.8853 46.1049 98.8853 47.2609V49.7328C98.8832 49.7905 98.8594 49.8453 98.8188 49.8862C98.7781 49.9271 98.7235 49.9512 98.6659 49.9537H98.3373C98.2482 49.9537 98.1985 49.9162 98.1488 49.7925L98.0382 49.4826C97.7902 49.7231 97.3312 50.0656 96.6242 50.0656C95.7572 50.0656 95.1397 49.4825 95.1397 48.5175ZM96.1159 48.5082C96.1159 48.9198 96.3555 49.2413 96.834 49.2413C97.2916 49.2413 97.7593 48.9102 97.8995 48.6793V47.9054C97.8399 47.8632 97.4813 47.7441 97.0622 47.7441C96.5252 47.7441 96.1159 48.0259 96.1159 48.5082ZM100.24 49.7337V45.5339C100.24 45.4223 100.339 45.3131 100.459 45.3131H100.699C100.745 45.3146 100.789 45.3312 100.825 45.3603C100.861 45.3895 100.886 45.4295 100.897 45.4744L101.027 45.8962C101.192 45.6827 101.403 45.5099 101.644 45.3914C101.886 45.2728 102.152 45.2117 102.422 45.2128C102.861 45.2128 103.408 45.3333 103.259 45.6446L103.019 46.1469C102.96 46.2772 102.841 46.3082 102.74 46.2585C102.608 46.2014 102.466 46.1703 102.322 46.1666C101.645 46.1666 101.277 46.7099 101.236 46.7905V49.7337C101.236 49.9348 101.107 49.9546 100.917 49.9546H100.459C100.401 49.9539 100.345 49.9303 100.304 49.889C100.263 49.8477 100.24 49.7919 100.24 49.7337ZM104.395 48.6793V46.1665H103.867C103.808 46.1658 103.753 46.1423 103.712 46.101C103.671 46.0597 103.648 46.004 103.647 45.9457V45.5342C103.646 45.5049 103.65 45.4757 103.661 45.4483C103.672 45.421 103.688 45.3961 103.708 45.3754C103.729 45.3546 103.754 45.3384 103.781 45.3277C103.808 45.317 103.837 45.3121 103.867 45.3133H104.394V44.0172C104.394 43.8967 104.493 43.7964 104.613 43.7964H105.181C105.3 43.7964 105.391 43.8957 105.391 44.0172V45.3133H106.606C106.725 45.3133 106.825 45.4038 106.825 45.5342V45.9457C106.825 46.0573 106.725 46.1665 106.605 46.1665H105.39V48.6384C105.39 49.0303 105.54 49.1098 105.759 49.1098C106.048 49.1098 106.327 48.9907 106.496 48.8903C106.636 48.8097 106.725 48.8904 106.765 48.9898L106.945 49.4623C106.995 49.5837 106.945 49.6634 106.835 49.7351C106.646 49.8542 106.108 50.0651 105.56 50.0651C104.643 50.0651 104.395 49.5029 104.395 48.6793ZM109.973 47.6238C109.973 46.3178 111.028 45.2127 112.324 45.2127C113.609 45.2127 114.665 46.3166 114.665 47.6238C114.665 48.951 113.609 50.0647 112.324 50.0647C111.028 50.0647 109.973 48.9497 109.973 47.6238ZM110.949 47.6238C110.949 48.4784 111.547 49.1109 112.324 49.1109C113.091 49.1109 113.689 48.4784 113.689 47.6238C113.689 46.7903 113.091 46.1665 112.324 46.1665C111.547 46.1665 110.949 46.7903 110.949 47.6238ZM116.158 49.7337V46.2483H115.561C115.503 46.2476 115.447 46.2239 115.406 46.1821C115.365 46.1403 115.342 46.0839 115.342 46.0253V45.534C115.341 45.5048 115.345 45.4757 115.356 45.4483C115.366 45.421 115.382 45.3961 115.403 45.3754C115.424 45.3546 115.448 45.3383 115.476 45.3276C115.503 45.3169 115.532 45.3121 115.561 45.3133H116.159V44.7799C116.159 43.5347 116.747 42.8203 117.862 42.8203C118.48 42.8203 118.957 43.0931 119.167 43.283C119.246 43.3538 119.256 43.4742 119.205 43.5445L118.916 43.9665C118.846 44.0781 118.737 44.0878 118.618 44.0086C118.404 43.8527 118.145 43.7713 117.88 43.7765C117.362 43.7765 117.153 44.1985 117.153 44.7812V45.3146H118.458C118.577 45.3146 118.677 45.405 118.677 45.5353V46.0277C118.677 46.1393 118.578 46.2486 118.458 46.2486H117.153V49.7351C117.151 49.7928 117.127 49.8474 117.087 49.8883C117.046 49.9292 116.991 49.9534 116.934 49.9559H116.376C116.318 49.9531 116.264 49.9289 116.223 49.888C116.183 49.8471 116.16 49.7912 116.158 49.7337Z" fill="white" />
<path id="reviews-opentable_sprite_Vector_2" fill-rule="evenodd" clip-rule="evenodd" d="M147.275 42.7676C147.275 42.2404 147.697 41.8125 148.217 41.8125C148.738 41.8125 149.162 42.2405 149.162 42.7676C149.162 43.2947 148.738 43.7226 148.217 43.7226C148.093 43.7218 147.97 43.6964 147.855 43.648C147.74 43.5995 147.636 43.5289 147.548 43.4402C147.461 43.3515 147.391 43.2465 147.345 43.1311C147.298 43.0157 147.274 42.8922 147.275 42.7676ZM131.773 48.7074C130.96 48.7074 130.395 48.0562 130.395 47.1247C130.395 46.1945 130.96 45.5434 131.773 45.5434C132.592 45.5434 133.162 46.1945 133.162 47.1247C133.162 48.0711 132.604 48.7074 131.773 48.7074ZM131.773 44.153C130.053 44.153 128.804 45.4032 128.804 47.1247C128.804 48.8475 130.053 50.0978 131.773 50.0978C133.501 50.0978 134.755 48.8475 134.755 47.1247C134.755 45.4032 133.501 44.153 131.773 44.153ZM145.445 47.2735C145.385 47.1573 145.309 47.05 145.219 46.9548L145.167 46.899L145.222 46.8456C145.31 46.7526 145.389 46.6525 145.46 46.5465L146.978 44.2693H145.135L143.994 46.0504C143.93 46.146 143.798 46.1943 143.604 46.1943H143.343V42.8268C143.343 42.1533 142.928 42.0616 142.479 42.0616H141.71V50.0107H143.343V47.6256H143.497C143.683 47.6256 143.81 47.649 143.869 47.7498L144.769 49.4652C145.021 49.9302 145.272 50.011 145.744 50.011H146.996L146.063 48.4543L145.445 47.2735ZM153.375 44.1392C152.544 44.1392 152.014 44.5114 151.716 44.8263L151.617 44.9281L151.584 44.7903C151.498 44.4528 151.204 44.2668 150.761 44.2668H150.029L150.033 50.0083H151.655V47.3626C151.655 47.102 151.688 46.879 151.757 46.6744C151.937 46.0542 152.441 45.6697 153.07 45.6697C153.577 45.6697 153.775 45.9388 153.775 46.6346V49.135C153.775 49.7304 154.047 50.0083 154.637 50.0083H155.409L155.407 46.3568C155.407 44.9056 154.703 44.1392 153.375 44.1392ZM148.239 44.2694H147.47L147.475 48.7097V50.0095H148.295L148.323 50.0108L148.705 50.0095H149.085L149.09 45.1414C149.09 44.5547 148.814 44.2694 148.239 44.2694ZM138.145 48.7073C137.332 48.7073 136.765 48.0561 136.765 47.1246C136.765 46.1944 137.332 45.5432 138.145 45.5432C138.962 45.5432 139.534 46.1944 139.534 47.1246C139.534 48.071 138.976 48.7073 138.145 48.7073ZM138.145 44.1528C136.422 44.1528 135.173 45.4031 135.173 47.1246C135.173 48.8474 136.422 50.0977 138.145 50.0977C139.87 50.0977 141.126 48.8474 141.126 47.1246C141.126 45.4031 139.87 44.1528 138.145 44.1528ZM158.824 48.4555C157.938 48.4555 157.621 47.6741 157.621 46.9423C157.621 46.6212 157.703 45.5705 158.739 45.5705C159.255 45.5705 159.942 45.7196 159.942 46.9968C159.942 48.2024 159.333 48.4555 158.824 48.4555ZM160.784 44.2545C160.475 44.2545 160.238 44.3788 160.119 44.6043L160.072 44.691L159.998 44.6263C159.735 44.3971 159.266 44.1265 158.503 44.1265C156.986 44.1265 155.966 45.275 155.966 46.9854C155.966 48.6945 157.021 49.8877 158.534 49.8877C159.05 49.8877 159.458 49.7663 159.782 49.5193L159.907 49.4236V49.5835C159.907 50.3513 159.416 50.7742 158.524 50.7742C158.09 50.7742 157.697 50.6664 157.433 50.5708C157.089 50.4667 156.887 50.552 156.748 50.9008L156.619 51.2233L156.437 51.6921L156.55 51.753C157.12 52.0582 157.863 52.2404 158.534 52.2404C159.916 52.2404 161.53 51.5272 161.53 49.5191L161.534 44.2541L160.784 44.2545ZM125.73 48.6416H124.41V47.0478C124.41 46.7065 124.54 46.5306 124.829 46.4897H125.73C126.373 46.4897 126.788 46.8988 126.788 47.5599C126.788 48.2396 126.383 48.6416 125.73 48.6416ZM124.41 44.3451V43.9261C124.41 43.5599 124.563 43.3853 124.901 43.363H125.577C126.157 43.363 126.503 43.7127 126.503 44.2982C126.503 44.7449 126.266 45.2655 125.598 45.2655H124.41V44.3451ZM127.417 45.9352L127.178 45.7987L127.386 45.6202C127.629 45.4092 128.035 44.9381 128.035 44.1195C128.035 42.8717 127.073 42.0654 125.587 42.0654H123.697C123.484 42.0737 123.281 42.1642 123.132 42.3178C122.984 42.4714 122.9 42.6765 122.898 42.8903V49.9811H125.621C127.274 49.9811 128.341 49.0732 128.341 47.6679C128.341 46.9113 127.996 46.2639 127.417 45.9352ZM162.174 49.1203C162.174 48.5919 162.596 48.1652 163.117 48.1652C163.638 48.1652 164.062 48.5918 164.062 49.1203C164.062 49.6474 163.638 50.0753 163.117 50.0753C162.992 50.0745 162.869 50.0492 162.755 50.0008C162.64 49.9524 162.535 49.8818 162.448 49.7931C162.36 49.7044 162.291 49.5994 162.244 49.4839C162.197 49.3685 162.174 49.2449 162.174 49.1203ZM172.922 48.7073C172.108 48.7073 171.541 48.0562 171.541 47.1247C171.541 46.1945 172.108 45.5434 172.922 45.5434C173.738 45.5434 174.311 46.1945 174.311 47.1247C174.311 48.0711 173.752 48.7073 172.922 48.7073ZM172.922 44.153C171.199 44.153 169.95 45.4032 169.95 47.1247C169.95 48.8475 171.199 50.0977 172.922 50.0977C174.647 50.0977 175.903 48.8475 175.903 47.1247C175.903 45.4032 174.647 44.153 172.922 44.153ZM183.151 44.1575C182.478 44.1575 181.827 44.4764 181.409 45.0085L181.291 45.1598L181.2 44.9911C180.898 44.4379 180.381 44.1575 179.662 44.1575C178.907 44.1575 178.403 44.5818 178.168 44.8348L178.013 45.0022L177.955 44.7814C177.868 44.4641 177.588 44.2877 177.163 44.2877H176.48L176.476 50.0055H178.026V47.4828C178.026 47.262 178.054 47.0426 178.108 46.813C178.257 46.204 178.662 45.5479 179.346 45.6136C179.768 45.6558 179.972 45.9821 179.972 46.617V50.0068H181.533V47.4828C181.533 47.2062 181.556 46.999 181.619 46.7918C181.746 46.2089 182.17 45.6136 182.83 45.6136C183.306 45.6136 183.483 45.885 183.483 46.617V49.1708C183.483 49.7488 183.739 50.0068 184.311 50.0068H185.04L185.041 46.3565C185.041 44.8979 184.403 44.1575 183.151 44.1575ZM169.055 48.021C169.05 48.0257 168.384 48.7354 167.506 48.7354C166.706 48.7354 165.898 48.2419 165.898 47.1368C165.898 46.1817 166.525 45.5156 167.421 45.5156C167.713 45.5156 168.043 45.6212 168.095 45.7974L168.104 45.8302C168.137 45.9517 168.209 46.0589 168.309 46.1352C168.409 46.2115 168.532 46.2526 168.657 46.2521L169.506 46.2534V45.5054C169.506 44.5182 168.261 44.1597 167.422 44.1597C165.631 44.1597 164.331 45.4174 164.331 47.1501C164.331 48.8828 165.617 50.1392 167.39 50.1392C168.928 50.1392 169.765 49.1198 169.772 49.1098L169.819 49.054L169.147 47.9277L169.06 48.0234" fill="white" />
<path id="reviews-opentable_sprite_Vector_3" fill-rule="evenodd" clip-rule="evenodd" d="M0.625 23.1525C0.625 20.1758 3.02122 17.7622 5.97565 17.7622C8.9313 17.7622 11.3277 20.1758 11.3277 23.1525C11.3277 26.1305 8.9313 28.5442 5.97565 28.5442C3.02122 28.5442 0.625 26.1317 0.625 23.1525ZM38.2126 28.5442C35.257 28.5442 32.8619 26.1305 32.8619 23.1525C32.8619 20.1758 35.257 17.7622 38.2126 17.7622C41.167 17.7622 43.5645 20.1758 43.5645 23.1525C43.5645 26.1305 41.167 28.5442 38.2126 28.5442ZM38.2126 1.58984C26.3925 1.58984 16.8086 11.2443 16.8086 23.1525C16.8086 35.0632 26.3912 44.7166 38.2126 44.7166C50.0353 44.7166 59.6179 35.0632 59.6179 23.1525C59.6179 11.2456 50.0353 1.58984 38.2126 1.58984Z" fill="#DA3743" />
<path id="reviews-opentable_sprite_Vector_4" fill-rule="evenodd" clip-rule="evenodd" d="M191.188 21.4841C191.526 21.4841 191.726 21.3312 191.726 21.0546C191.726 20.8029 191.59 20.6379 191.213 20.6379H190.862V21.4838L191.188 21.4841ZM190.348 20.2103H191.299C191.825 20.2103 192.277 20.425 192.277 21.0289C192.278 21.1777 192.234 21.3233 192.152 21.4471C192.069 21.5709 191.952 21.6672 191.814 21.7235L192.39 22.7715H191.814L191.374 21.8884H190.862V22.7715H190.348L190.348 20.2103ZM193.114 21.5213C193.114 20.3368 192.302 19.4909 191.251 19.4909C190.198 19.4909 189.397 20.3368 189.397 21.5213C189.397 22.7207 190.198 23.5392 191.251 23.5392C192.302 23.5392 193.114 22.7207 193.114 21.5213ZM188.896 21.5213C188.896 20.0454 189.96 19.0369 191.251 19.0369C192.552 19.0369 193.616 20.0454 193.616 21.5213C193.616 22.9973 192.552 24.0068 191.251 24.0068C189.96 24.0068 188.896 22.9973 188.896 21.5213ZM173.187 31.6087C173.342 31.6071 173.49 31.5449 173.599 31.4355C173.709 31.3261 173.771 31.1781 173.773 31.0233V28.859C173.772 28.7047 173.71 28.5569 173.601 28.4474C173.493 28.3379 173.345 28.2754 173.191 28.2734H173.098C172.835 28.2734 172.573 28.0105 172.573 27.7451V14.9204C172.573 14.6279 172.281 14.3348 171.991 14.3348H169.852C169.562 14.3348 169.271 14.6275 169.271 14.9204V29.1281L169.281 29.4975C169.281 30.5555 170.331 31.6122 171.381 31.6122L173.187 31.6087ZM79.0167 17.7222C81.9277 17.7222 84.3848 20.2064 84.3848 23.1522C84.3858 24.5777 83.821 25.9454 82.8146 26.9549C81.8081 27.9644 80.4422 28.5331 79.0167 28.5364C76.071 28.5364 73.676 26.124 73.676 23.1522C73.676 20.1581 76.071 17.7222 79.0167 17.7222ZM79.0167 14.3027C74.2006 14.3027 70.2812 18.2716 70.2812 23.1522C70.2812 28.0886 74.1162 31.9572 79.0167 31.9572C83.9308 31.9572 87.7795 28.0887 87.7795 23.151C87.7795 18.2729 83.8477 14.3027 79.0167 14.3027ZM148.725 28.1023C148.567 28.5552 147.616 29.4059 146.533 29.4059C145.397 29.4059 144.763 28.7139 144.763 27.6757C144.763 26.5842 145.528 25.9194 146.929 25.9194C147.906 25.9194 148.725 26.2916 148.725 26.2916V28.1023ZM147.298 19.0271C145.317 19.0271 143.389 19.5318 143.125 19.6385C142.86 19.7177 142.622 19.931 142.727 20.3838L142.993 21.7681C143.045 22.1403 143.283 22.4328 143.679 22.3001C144.393 22.0868 146.004 21.8473 147.114 21.8473C148.408 21.8473 148.857 22.5928 148.804 24.1631C148.804 24.1631 147.695 23.817 146.453 23.817C143.362 23.817 141.591 25.4939 141.591 27.6756C141.591 30.3112 143.283 31.8803 145.713 31.8803C146.422 31.8912 147.126 31.7603 147.784 31.4953C148.442 31.2303 149.04 30.8367 149.544 30.3374V30.9985C149.544 31.3186 149.809 31.5839 150.126 31.5839H150.341C150.365 31.5878 150.39 31.5894 150.415 31.5886H151.314C151.469 31.5866 151.616 31.5242 151.725 31.4148C151.834 31.3053 151.895 31.1574 151.896 31.003V24.3761C151.896 21.0223 151.102 19.0271 147.298 19.0271ZM125.121 19.0271C122.782 19.0271 121.647 20.2908 121.193 20.8006V19.8778C121.192 19.7235 121.131 19.5757 121.022 19.4663C120.913 19.3568 120.766 19.2944 120.612 19.2924H119.23C119.076 19.2941 118.928 19.3564 118.819 19.466C118.71 19.5755 118.649 19.7234 118.648 19.8778V31.0035C118.654 31.1563 118.717 31.3015 118.825 31.41C118.932 31.5186 119.077 31.5824 119.23 31.5889H121.185C121.766 31.5889 121.951 31.4548 121.951 31.0035V23.9771C122.241 23.125 123.008 22.0608 124.593 22.0608C126.072 22.0608 126.705 23.0456 126.705 24.6419V31.0035C126.705 31.3222 126.971 31.5889 127.288 31.5889H129.427C129.58 31.5824 129.724 31.5186 129.832 31.41C129.94 31.3015 130.003 31.1563 130.008 31.0035V24.6419C130.008 21.6614 129.004 19.0271 125.121 19.0271ZM96.0338 28.8478C94.5007 28.8478 93.4973 28.1557 93.4973 28.1557V23.7625C93.7617 23.0704 94.6074 22.0595 96.1925 22.0595C98.0939 22.0595 99.0713 23.7365 99.0713 25.4655C99.0713 27.1957 98.0431 28.8478 96.0338 28.8478ZM96.6415 19.0271C94.1311 19.0271 92.7395 20.751 92.6564 20.8589V19.8791C92.6558 19.7246 92.5944 19.5764 92.4856 19.4667C92.3768 19.357 92.2293 19.2944 92.0748 19.2924H90.7761C90.622 19.2947 90.4749 19.3572 90.3664 19.4667C90.2579 19.5761 90.1966 19.7237 90.1956 19.8778V36.0055C90.2008 36.1584 90.2635 36.3038 90.3711 36.4126C90.4787 36.5213 90.6233 36.5855 90.7761 36.5922H92.9169C93.2071 36.5922 93.4973 36.2983 93.4973 36.0055V31.3756C94.0518 31.5889 95.2151 31.8816 96.4294 31.8816C100.076 31.8816 102.48 29.0598 102.48 25.4666C102.48 21.7407 99.9693 19.0271 96.6415 19.0271ZM183.761 23.8964C183.709 22.6982 182.757 21.7668 181.41 21.7668C179.931 21.7668 178.979 22.6722 178.822 23.8964H183.761ZM181.491 19.0258C184.66 19.0258 187.09 21.3948 187.09 24.7213C187.09 24.9074 187.062 25.3327 187.038 25.52C187.023 25.667 186.956 25.804 186.85 25.9062C186.743 26.0085 186.604 26.0695 186.456 26.0782H178.637C178.665 27.5951 179.905 28.9259 181.676 28.9259C182.89 28.9259 183.735 28.4731 184.29 28.0205C184.581 27.781 184.898 27.7552 185.083 28.0205L186.113 29.4046C186.323 29.6442 186.351 29.938 186.06 30.2035C184.8 31.2963 183.184 31.8924 181.516 31.8803C177.871 31.8803 175.334 28.9533 175.334 25.4394C175.334 21.9802 177.872 19.0258 181.491 19.0258ZM160.815 28.8478C159.23 28.8478 158.384 27.8357 158.12 27.1436V22.7529C158.12 22.7529 159.125 22.0608 160.656 22.0608C162.664 22.0608 163.695 23.7105 163.695 25.4407C163.695 27.1709 162.717 28.8478 160.815 28.8478ZM161.105 19.0271C159.89 19.0271 158.674 19.3196 158.12 19.5591V14.8745C158.114 14.7216 158.051 14.5764 157.944 14.4679C157.836 14.3594 157.691 14.2955 157.538 14.2891H155.399C155.108 14.2891 154.818 14.5816 154.818 14.8745V31.0035C154.824 31.1561 154.886 31.3011 154.994 31.4096C155.101 31.5181 155.246 31.5821 155.399 31.5889H156.324C156.343 31.5889 156.357 31.5888 156.376 31.5841H156.624C156.779 31.5828 156.927 31.5207 157.036 31.4112C157.145 31.3016 157.207 31.1535 157.208 30.9987V30.0896L157.222 30.0427C157.222 30.0427 158.624 31.8783 161.29 31.8783C164.621 31.8783 167.024 28.9513 167.024 25.4387C167.024 21.8455 164.724 19.0271 161.105 19.0271ZM142.414 14.2891H129.988C129.922 14.2894 129.857 14.3027 129.796 14.3283C129.735 14.3539 129.68 14.3913 129.633 14.4383C129.587 14.4853 129.55 14.541 129.525 14.6022C129.5 14.6634 129.487 14.7289 129.487 14.7951V16.978C129.487 17.2433 129.698 17.4829 129.988 17.4829H134.471V31.0829C134.475 31.2153 134.529 31.3412 134.622 31.4352C134.715 31.5292 134.841 31.5842 134.973 31.5889H137.429C137.562 31.5845 137.687 31.5297 137.781 31.4356C137.875 31.3416 137.929 31.2155 137.933 31.0829V17.4829H142.414C142.48 17.4827 142.545 17.4694 142.607 17.4438C142.668 17.4183 142.723 17.381 142.77 17.3339C142.817 17.2869 142.853 17.2313 142.879 17.17C142.904 17.1087 142.916 17.043 142.916 16.9767V14.7951C142.916 14.7288 142.904 14.6632 142.879 14.6019C142.853 14.5406 142.817 14.4849 142.77 14.4378C142.723 14.3908 142.668 14.3535 142.607 14.328C142.545 14.3024 142.48 14.2892 142.414 14.2891ZM112.835 23.8964C112.781 22.6982 111.83 21.7668 110.483 21.7668C109.005 21.7668 108.052 22.6722 107.895 23.8964H112.835ZM110.563 19.0258C113.733 19.0258 116.163 21.3948 116.163 24.7213C116.163 24.9074 116.139 25.3327 116.111 25.52C116.096 25.6669 116.029 25.8037 115.922 25.906C115.816 26.0082 115.676 26.0693 115.529 26.0782H107.71C107.738 27.5951 108.978 28.9259 110.749 28.9259C111.964 28.9259 112.808 28.4731 113.363 28.0205C113.654 27.781 113.971 27.7552 114.156 28.0205L115.185 29.4046C115.397 29.6442 115.424 29.938 115.133 30.2035C113.873 31.2963 112.257 31.8924 110.589 31.8803C106.944 31.8803 104.408 28.9533 104.408 25.4394C104.408 21.9802 106.943 19.0258 110.563 19.0258Z" fill="white" />
</g>
<defs>

</defs>
</symbol><clipPath id="reviews-opentable_sprite_clip0_5641_20350">
<rect width="194.24" height="52" fill="white" transform="translate(0 0.96875)" />
</clipPath><symbol viewBox="0 0 247 53" fill="none" id="reviews-tripadvisor_sprite">
<g id="reviews-tripadvisor_sprite_TripAdvisor_Logo 1" clip-path="url(#reviews-tripadvisor_sprite_clip0_5641_20332)">
<g id="reviews-tripadvisor_sprite_Group">
<path id="reviews-tripadvisor_sprite_Vector" d="M243.077 35.718C242.319 35.718 241.703 36.3339 241.703 37.0921C241.703 37.8504 242.319 38.4662 243.077 38.4662C243.835 38.4662 244.451 37.8504 244.451 37.0921C244.451 36.3339 243.835 35.718 243.077 35.718ZM243.077 38.2483C242.438 38.2483 241.921 37.7282 241.921 37.0921C241.921 36.453 242.441 35.936 243.077 35.936C243.716 35.936 244.236 36.456 244.236 37.0921C244.236 37.7283 243.716 38.2483 243.077 38.2483ZM243.525 36.8568C243.525 36.607 243.347 36.4588 243.086 36.4588H242.647V37.7109H242.862V37.2577H243.097L243.324 37.7109H243.556L243.306 37.2113C243.44 37.1502 243.525 37.0281 243.525 36.8568ZM243.077 37.0631H242.865V36.6477H243.077C243.222 36.6477 243.31 36.7203 243.31 36.854C243.309 36.9905 243.219 37.0631 243.077 37.0631ZM77.5107 21.8116V18.4883H72.4153V38.2599H77.5107V26.4046C77.5107 24.2577 78.8877 23.2031 81.0345 23.2031H83.8233V18.4883H81.4412C79.5762 18.4883 77.9552 19.4614 77.5107 21.8116ZM88.5963 10.668C86.8533 10.668 85.5169 12.045 85.5169 13.788C85.5169 15.4903 86.8533 16.8673 88.5963 16.8673C90.3393 16.8673 91.6756 15.4903 91.6756 13.788C91.6756 12.0449 90.3393 10.668 88.5963 10.668ZM86.0544 38.26H91.1382V18.4883H86.0544V38.26ZM115.354 28.3741C115.354 34.0185 110.779 38.5941 105.135 38.5941C102.857 38.5941 100.792 37.8475 99.1356 36.5866V44.0643H94.0518V18.4883H99.1356V20.1615C100.792 18.9008 102.857 18.1542 105.135 18.1542C110.779 18.1542 115.354 22.7296 115.354 28.3741ZM110.239 28.3741C110.239 25.3093 107.752 22.8226 104.687 22.8226C101.622 22.8226 99.1357 25.3093 99.1357 28.3741C99.1357 31.4389 101.622 33.9256 104.687 33.9256C107.752 33.9256 110.239 31.4419 110.239 28.3741ZM203.714 26.6398L200.748 25.8264C198.796 25.318 198.038 24.7196 198.038 23.6883C198.038 22.6831 199.107 21.9801 200.635 21.9801C202.09 21.9801 203.232 22.933 203.232 24.1531V24.2663H207.918V24.1531C207.918 20.5653 204.992 18.1541 200.635 18.1541C196.321 18.1541 193.186 20.5624 193.186 23.8828C193.186 26.4654 194.897 28.4118 197.884 29.2194L200.725 29.995C202.883 30.5934 203.685 31.2559 203.685 32.444C203.685 33.6961 202.526 34.5385 200.8 34.5385C199.002 34.5385 197.791 33.3997 197.791 31.709V31.5957H192.817V31.709C192.817 35.7645 196.082 38.5997 200.76 38.5997C205.265 38.5997 208.536 35.8313 208.536 32.0199C208.536 30.149 207.7 27.7031 203.714 26.6398ZM133.389 18.4883H138.473V38.2599H133.389V36.5866C131.733 37.8474 129.668 38.594 127.39 38.594C121.746 38.594 117.17 34.0185 117.17 28.374C117.17 22.7295 121.746 18.1541 127.39 18.1541C129.668 18.1541 131.733 18.9007 133.389 20.1615V18.4883ZM133.389 28.3741C133.389 25.3064 130.902 22.8226 127.837 22.8226C124.773 22.8226 122.286 25.3093 122.286 28.3741C122.286 31.4389 124.773 33.9256 127.837 33.9256C130.905 33.9256 133.389 31.4419 133.389 28.3741ZM156.83 11.4523H161.914V38.2628H156.83V36.5895C155.174 37.8503 153.108 38.5969 150.831 38.5969C145.186 38.5969 140.611 34.0215 140.611 28.3769C140.611 22.7324 145.186 18.157 150.831 18.157C153.108 18.157 155.174 18.9036 156.83 20.1644V11.4523ZM156.83 28.3741C156.83 25.3093 154.343 22.8226 151.278 22.8226C148.213 22.8226 145.727 25.3093 145.727 28.3741C145.727 31.4389 148.21 33.9256 151.278 33.9256C154.343 33.9256 156.83 31.4419 156.83 28.3741ZM185.517 38.26H190.601V18.4883H185.517V38.26ZM188.059 10.668C186.316 10.668 184.979 12.045 184.979 13.788C184.979 15.4903 186.316 16.8673 188.059 16.8673C189.802 16.8673 191.138 15.4903 191.138 13.788C191.138 12.0449 189.802 10.668 188.059 10.668ZM230.51 28.3741C230.51 34.0185 225.935 38.5941 220.29 38.5941C214.646 38.5941 210.07 34.0186 210.07 28.3741C210.07 22.7296 214.645 18.1542 220.29 18.1542C225.935 18.1542 230.51 22.7296 230.51 28.3741ZM225.842 28.3741C225.842 25.3093 223.355 22.8226 220.29 22.8226C217.225 22.8226 214.739 25.3093 214.739 28.3741C214.739 31.4389 217.222 33.9256 220.29 33.9256C223.355 33.9256 225.842 31.4419 225.842 28.3741ZM74.9077 11.4523H55.4062V15.9871H62.6253V38.2599H67.6917V15.9871H74.9107V11.4523H74.9077ZM173.531 32.8449L169.008 18.4883H163.668L170.451 38.26H176.569L183.393 18.4883H178.054L173.531 32.8449ZM237.958 21.8116V18.4883H232.863V38.2599H237.958V26.4046C237.958 24.2577 239.335 23.2031 241.482 23.2031H244.271V18.4883H241.889C240.024 18.4883 238.406 19.4614 237.958 21.8116Z" fill="white" />
<path id="reviews-tripadvisor_sprite_Vector_2" d="M26 52.9688C40.3594 52.9688 52 41.3282 52 26.9688C52 12.6093 40.3594 0.96875 26 0.96875C11.6406 0.96875 0 12.6093 0 26.9688C0 41.3282 11.6406 52.9688 26 52.9688Z" fill="#34E0A1" />
<path id="reviews-tripadvisor_sprite_Vector_3" d="M42.0543 21.8971L45.1917 18.4837H38.2342C34.7511 16.1044 30.5446 14.7188 25.9953 14.7188C21.4518 14.7188 17.257 16.1074 13.7796 18.4837H6.80469L9.94212 21.8971C8.01902 23.6517 6.81343 26.1792 6.81343 28.9854C6.81343 34.2813 11.1071 38.5749 16.403 38.5749C18.9187 38.5749 21.2108 37.6046 22.9219 36.0185L25.9954 39.3651L29.0689 36.0214C30.78 37.6076 33.0691 38.5749 35.5849 38.5749C40.8807 38.5749 45.1802 34.2813 45.1802 28.9854C45.183 26.1762 43.9775 23.6489 42.0543 21.8971ZM16.4058 35.4752C12.821 35.4752 9.91603 32.5703 9.91603 28.9854C9.91603 25.4006 12.8211 22.4955 16.4058 22.4955C19.9906 22.4955 22.8956 25.4006 22.8956 28.9854C22.8956 32.5703 19.9906 35.4752 16.4058 35.4752ZM25.9982 28.7966C25.9982 24.5261 22.8928 20.86 18.7938 19.2942C21.0103 18.3674 23.4418 17.8533 25.9953 17.8533C28.5488 17.8533 30.9832 18.3674 33.1998 19.2942C29.1037 20.863 25.9982 24.5262 25.9982 28.7966ZM35.5878 35.4752C32.0029 35.4752 29.0979 32.5703 29.0979 28.9854C29.0979 25.4006 32.0029 22.4955 35.5878 22.4955C39.1726 22.4955 42.0776 25.4006 42.0776 28.9854C42.0776 32.5703 39.1725 35.4752 35.5878 35.4752ZM35.5878 25.5807C33.7082 25.5807 32.1859 27.1029 32.1859 28.9825C32.1859 30.862 33.7082 32.3843 35.5878 32.3843C37.4673 32.3843 38.9895 30.862 38.9895 28.9825C38.9895 27.1058 37.4673 25.5807 35.5878 25.5807ZM19.8076 28.9854C19.8076 30.8649 18.2853 32.3872 16.4058 32.3872C14.5263 32.3872 13.0041 30.8649 13.0041 28.9854C13.0041 27.1058 14.5263 25.5836 16.4058 25.5836C18.2853 25.5807 19.8076 27.1058 19.8076 28.9854Z" fill="black" />
</g>
</g>
<defs>

</defs>
</symbol><clipPath id="reviews-tripadvisor_sprite_clip0_5641_20332">
<rect width="247" height="52" fill="white" transform="translate(0 0.96875)" />
</clipPath><symbol viewBox="0 0 24 25" fill="none" id="tour-play-btn_sprite">
<g id="tour-play-btn_sprite_Play">
<path id="tour-play-btn_sprite_Vector" d="M21.3844 12.3304L7.89375 4.08042C7.78018 4.01037 7.64998 3.97188 7.51658 3.96893C7.38318 3.96598 7.25141 3.99868 7.13486 4.06364C7.0183 4.1286 6.92119 4.22349 6.85354 4.3385C6.78589 4.45351 6.75015 4.58449 6.75 4.71792V21.2179C6.75015 21.3514 6.78589 21.4823 6.85354 21.5974C6.92119 21.7124 7.0183 21.8072 7.13486 21.8722C7.25141 21.9372 7.38318 21.9699 7.51658 21.9669C7.64998 21.964 7.78018 21.9255 7.89375 21.8554L21.3844 13.6054C21.4952 13.5399 21.5869 13.4467 21.6507 13.3349C21.7145 13.2231 21.748 13.0966 21.748 12.9679C21.748 12.8392 21.7145 12.7128 21.6507 12.601C21.5869 12.4892 21.4952 12.3959 21.3844 12.3304V12.3304Z" stroke="white" stroke-linecap="round" stroke-linejoin="round" />
</g>
</symbol><symbol viewBox="0 0 24 24" fill="none" id="upload_sprite">
<g clip-path="url(#upload_sprite_clip0_2709_331)">
<path d="M7.28906 5.79883L11.8727 1.99961L16.4563 5.79883" stroke="white" stroke-width="1.5" stroke-linecap="round" stroke-linejoin="round" />
<path d="M11.873 2.3818L11.873 18" stroke="white" stroke-width="1.5" stroke-linecap="round" />
<path d="M8.0177 9.625L6.97786 9.7978C5.43262 10.0546 4.65999 10.183 4.05394 10.5205C3.20691 10.9921 2.56002 11.7554 2.23357 12.6683C2 13.3215 2 14.1047 2 15.6711V15.6711C2 17.4916 2 18.4018 2.29077 19.1222C2.69726 20.1293 3.49575 20.9277 4.5028 21.3342C5.22316 21.625 6.1334 21.625 7.95387 21.625H16.0461C17.8666 21.625 18.7768 21.625 19.4972 21.3342C20.5043 20.9277 21.3027 20.1293 21.7092 19.1222C22 18.4018 22 17.4916 22 15.6711V15.6711C22 14.1047 22 13.3215 21.7664 12.6683C21.44 11.7554 20.7931 10.9921 19.9461 10.5205C19.34 10.183 18.5674 10.0546 17.0221 9.7978L15.9823 9.625" stroke="white" stroke-width="1.5" stroke-linecap="round" />
</g>
<defs>

</defs>
</symbol><clipPath id="upload_sprite_clip0_2709_331">
<rect width="24" height="24" fill="white" />
</clipPath><symbol viewBox="0 0 24 24" fill="none" id="vegan_sprite">
<g id="vegan_sprite_free-icon-carrot-766076">
<rect width="24" height="24" rx="12" fill="#FE9D12" fill-opacity="0.1" />
<g id="vegan_sprite_Group 1026">
<g id="vegan_sprite_Group">
<g id="vegan_sprite_Group_2">
<path id="vegan_sprite_Vector" d="M16.1349 14.7303C16.031 14.6263 15.8624 14.6263 15.7584 14.7303L15.036 15.4528C14.932 15.5568 14.932 15.7253 15.036 15.8293C15.14 15.9333 15.3085 15.9333 15.4125 15.8293L16.1349 15.1068C16.2389 15.0029 16.2389 14.8343 16.1349 14.7303Z" fill="#FE9D12" />
</g>
</g>
<g id="vegan_sprite_Group_3">
<g id="vegan_sprite_Group_4">
<path id="vegan_sprite_Vector_2" d="M12.1408 10.203C12.0368 10.099 11.8683 10.099 11.7643 10.203L11.762 10.2053L11.1337 10.8337C11.0297 10.9376 11.0297 11.1062 11.1337 11.2102C11.2376 11.3141 11.4062 11.3141 11.5102 11.2102L12.1408 10.5795C12.2448 10.4755 12.2448 10.3069 12.1408 10.203Z" fill="#FE9D12" />
</g>
</g>
<g id="vegan_sprite_Group_5">
<g id="vegan_sprite_Group_6">
<path id="vegan_sprite_Vector_3" d="M16.7372 13.5532C15.8958 12.2905 14.9513 11.0996 13.9133 9.99274C13.4151 9.49191 12.7371 9.21141 12.0307 9.21382C11.6757 9.21506 11.3245 9.28707 10.9977 9.42561L10.9577 9.44444L10.8753 9.47738L10.5529 9.16676C11.3387 8.61005 11.5245 7.52171 10.9678 6.73588C10.4417 5.99332 9.43305 5.78015 8.65151 6.24641C7.73702 5.94452 6.75093 6.44114 6.44905 7.35563C6.36683 7.60463 6.34186 7.86899 6.37595 8.12899C5.79329 8.89579 5.94257 9.98971 6.70937 10.5724C7.47617 11.155 8.57009 11.0057 9.15275 10.2389C9.16893 10.2176 9.18463 10.196 9.19981 10.1739L9.67046 10.6446C9.13277 11.6781 9.32286 12.9404 10.1411 13.7697L10.2823 13.9061C11.2095 14.7721 14.9887 17.9984 16.9513 17.9984C17.2723 18.0148 17.5861 17.8992 17.8197 17.6784C18.488 17.0124 18.1326 15.6616 16.7372 13.5532ZM9.29629 9.51504C9.19275 9.41091 9.02438 9.41041 8.92025 9.51395C8.88957 9.54445 8.8668 9.58198 8.85389 9.62328C8.65048 10.2596 7.96978 10.6105 7.33347 10.4071C7.14878 10.3481 6.98099 10.2455 6.84424 10.108C6.36986 9.63402 6.36959 8.86519 6.84362 8.39081C6.84383 8.39061 6.84403 8.3904 6.84424 8.3902C6.90563 8.32842 6.93287 8.24053 6.91719 8.15487C6.83391 7.75339 6.95969 7.33707 7.25135 7.04886C7.60306 6.70297 8.1276 6.60101 8.58327 6.79001C8.67031 6.82751 8.7707 6.81583 8.84683 6.75942C9.33103 6.40964 9.99635 6.45723 10.4258 6.87237C10.8991 7.34384 10.9005 8.10969 10.429 8.58292C10.3104 8.702 10.1683 8.79504 10.0117 8.85613C9.87448 8.90858 9.8058 9.06231 9.85824 9.19947C9.8718 9.23497 9.89284 9.26715 9.9199 9.29383L10.3905 9.76448C10.2331 9.88817 10.0888 10.0277 9.9599 10.181L9.29629 9.51504ZM17.4455 17.2995C17.3115 17.4187 17.1348 17.4782 16.956 17.4642C16.6882 17.4546 16.4236 17.4022 16.1724 17.3089L16.4077 17.0736C16.5117 16.9696 16.5117 16.801 16.4077 16.6971C16.3037 16.5931 16.1352 16.5931 16.0312 16.6971L15.6382 17.09C14.8861 16.724 14.1673 16.2933 13.4897 15.8028L13.9604 15.3322C14.0644 15.2282 14.0644 15.0597 13.9604 14.9557C13.8564 14.8517 13.6878 14.8517 13.5839 14.9557L13.0614 15.4781C12.1672 14.8192 11.3601 14.1438 10.8682 13.6967L11.6589 12.906C11.7629 12.802 11.7629 12.6335 11.6589 12.5295C11.5549 12.4255 11.3864 12.4255 11.2824 12.5295L10.4823 13.3296C9.82559 12.6217 9.72255 11.5623 10.2305 10.7411C10.4691 10.3778 10.8074 10.0911 11.2048 9.91508C11.4665 9.80604 11.7472 9.75003 12.0307 9.75036C12.5959 9.74897 13.1381 9.9735 13.5368 10.374C13.7392 10.5763 14.0922 10.9693 14.5087 11.4682L13.9345 12.0306C13.8305 12.1346 13.8305 12.3032 13.9345 12.4071C14.0385 12.5111 14.207 12.5111 14.311 12.4071L14.8405 11.8777C15.3182 12.4613 15.8359 13.1672 16.2877 13.8473C17.4643 15.6075 17.8761 16.8665 17.4455 17.2995Z" fill="#FE9D12" />
</g>
</g>
</g>
</g>
</symbol></defs></svg>