<svg width="32" height="32" viewBox="0 0 32 32" fill="none" xmlns="http://www.w3.org/2000/svg">
<path d="M20.0013 12.0001H20.0146M12.0013 12.0001H12.0146M29.3346 16.0001C29.3346 23.3639 23.3651 29.3334 16.0013 29.3334C8.63751 29.3334 2.66797 23.3639 2.66797 16.0001C2.66797 8.63628 8.63751 2.66675 16.0013 2.66675C23.3651 2.66675 29.3346 8.63628 29.3346 16.0001ZM20.668 12.0001C20.668 12.3683 20.3695 12.6667 20.0013 12.6667C19.6331 12.6667 19.3346 12.3683 19.3346 12.0001C19.3346 11.6319 19.6331 11.3334 20.0013 11.3334C20.3695 11.3334 20.668 11.6319 20.668 12.0001ZM12.668 12.0001C12.668 12.3683 12.3695 12.6667 12.0013 12.6667C11.6331 12.6667 11.3346 12.3683 11.3346 12.0001C11.3346 11.6319 11.6331 11.3334 12.0013 11.3334C12.3695 11.3334 12.668 11.6319 12.668 12.0001ZM16.0013 23.3334C19.3353 23.3334 22.0013 20.8894 22.0013 18.6667H10.0013C10.0013 20.8894 12.6673 23.3334 16.0013 23.3334Z" stroke="white" stroke-width="2" stroke-linecap="round" stroke-linejoin="round"/>
</svg>
