<svg width="16" height="16" viewBox="0 0 16 16" fill="none" xmlns="http://www.w3.org/2000/svg">
<g clip-path="url(#clip0_7199_7835)">
<path d="M14 0.667969H2C1.46957 0.667969 0.960859 0.878682 0.585786 1.25376C0.210714 1.62883 0 2.13754 0 2.66797L0 15.3346H16V2.66797C16 2.13754 15.7893 1.62883 15.4142 1.25376C15.0391 0.878682 14.5304 0.667969 14 0.667969ZM2 2.0013H14C14.1768 2.0013 14.3464 2.07154 14.4714 2.19656C14.5964 2.32159 14.6667 2.49116 14.6667 2.66797V3.11264L9.41467 8.3653C9.03895 8.73951 8.53028 8.94961 8 8.94961C7.46972 8.94961 6.96105 8.73951 6.58533 8.3653L1.33333 3.11264V2.66797C1.33333 2.49116 1.40357 2.32159 1.5286 2.19656C1.65362 2.07154 1.82319 2.0013 2 2.0013ZM1.33333 14.0013V5.0013L5.64267 9.30797C6.26842 9.93214 7.11617 10.2827 8 10.2827C8.88383 10.2827 9.73158 9.93214 10.3573 9.30797L14.6667 5.0013V14.0013H1.33333Z" fill="white"/>
</g>
<defs>
<clipPath id="clip0_7199_7835">
<rect width="16" height="16" fill="white"/>
</clipPath>
</defs>
</svg>
