<svg width="24" height="24" viewBox="0 0 24 24" fill="none" xmlns="http://www.w3.org/2000/svg">
<g clip-path="url(#clip0_2581_3463)">
<path d="M4.62545 7.12264C6.02241 7.12264 7.34845 6.55407 8.31283 5.58481C9.27733 6.5542 10.6032 7.12264 12.0002 7.12264C13.3974 7.12264 14.7232 6.55432 15.6871 5.58519C16.6515 6.55432 17.9773 7.12264 19.3745 7.12264C21.2232 7.12264 22.9471 6.12711 23.8737 4.52473C24.1331 4.07613 23.9797 3.50219 23.5311 3.24286C23.0825 2.98378 22.5085 3.1369 22.2492 3.5855C21.6571 4.6098 20.5555 5.24617 19.3746 5.24617C18.1934 5.24617 17.0916 4.6098 16.4995 3.5855C16.3317 3.29552 16.0221 3.11676 15.6871 3.11688C15.352 3.11688 15.0425 3.29565 14.8748 3.58575C14.2831 4.61005 13.1818 5.24617 12.0005 5.24617C10.8197 5.24617 9.7178 4.60968 9.12484 3.58513C8.95708 3.29527 8.64759 3.11676 8.31283 3.11676H8.31258C7.97769 3.11676 7.6682 3.2954 7.50057 3.58538C6.90848 4.60968 5.80687 5.24605 4.62582 5.24605C3.44465 5.24605 2.34279 4.60968 1.7507 3.58538C1.49137 3.1369 0.917426 2.98328 0.468826 3.24273C0.0202254 3.50206 -0.133269 4.07601 0.126183 4.52461C1.05228 6.12711 2.77638 7.12264 4.62545 7.12264Z" fill="#847455"/>
<path d="M23.5311 10.1231C23.0825 9.86406 22.5085 10.0171 22.2492 10.4658C21.6571 11.4901 20.5555 12.1264 19.3746 12.1264C18.1934 12.1264 17.0916 11.4901 16.4995 10.4658C16.3317 10.1758 16.0221 9.99704 15.6871 9.99716C15.352 9.99716 15.0425 10.1759 14.8748 10.466C14.2831 11.4903 13.1818 12.1264 12.0005 12.1264C10.8197 12.1264 9.7178 11.49 9.12484 10.4654C8.95708 10.1756 8.64759 9.99704 8.31283 9.99704H8.31258C7.97769 9.99704 7.6682 10.1757 7.50057 10.4657C6.90848 11.49 5.80687 12.1263 4.62582 12.1263C3.44465 12.1263 2.34279 11.49 1.7507 10.4657C1.49137 10.0171 0.917426 9.86356 0.468826 10.123C0.0202254 10.3823 -0.133269 10.9563 0.126183 11.4049C1.05266 13.0074 2.77675 14.0029 4.62595 14.0029C6.02291 14.0029 7.34895 13.4343 8.31333 12.4651C9.27783 13.4345 10.6037 14.0029 12.0007 14.0029C13.3979 14.0029 14.7237 13.4346 15.6876 12.4655C16.652 13.4346 17.9778 14.0029 19.375 14.0029C21.2237 14.0029 22.9476 13.0075 23.8742 11.4049C24.1331 10.9564 23.9797 10.3825 23.5311 10.1231Z" fill="#847455"/>
<path d="M23.5311 17.0034C23.0825 16.7442 22.5085 16.8974 22.2492 17.3461C21.6571 18.3704 20.5555 19.0068 19.3746 19.0068C18.1934 19.0068 17.0916 18.3704 16.4995 17.3461C16.3317 17.0561 16.0221 16.8774 15.6871 16.8775C15.352 16.8775 15.0425 17.0562 14.8748 17.3463C14.2831 18.3706 13.1818 19.0068 12.0005 19.0068C10.8197 19.0068 9.7178 18.3703 9.12484 17.3457C8.95708 17.0559 8.64759 16.8774 8.31283 16.8774H8.31258C7.97769 16.8774 7.6682 17.056 7.50057 17.346C6.90848 18.3703 5.80687 19.0066 4.62582 19.0066C3.44465 19.0066 2.34279 18.3703 1.7507 17.346C1.49137 16.8974 0.917426 16.744 0.468826 17.0033C0.0202254 17.2627 -0.133269 17.8366 0.126183 18.2852C1.05266 19.8877 2.77675 20.8832 4.62595 20.8832C6.02291 20.8832 7.34895 20.3147 8.31333 19.3454C9.27783 20.3148 10.6037 20.8832 12.0007 20.8832C13.3979 20.8832 14.7237 20.3149 15.6876 19.3458C16.652 20.3149 17.9778 20.8832 19.375 20.8832C21.2237 20.8832 22.9476 19.8877 23.8742 18.2852C24.1331 17.8367 23.9797 17.2628 23.5311 17.0034Z" fill="#847455"/>
</g>
<defs>
<clipPath id="clip0_2581_3463">
<rect width="24" height="24" fill="white"/>
</clipPath>
</defs>
</svg>
