<svg width="24" height="24" viewBox="0 0 24 24" fill="none" xmlns="http://www.w3.org/2000/svg">
<mask id="mask0_2581_3906" style="mask-type:luminance" maskUnits="userSpaceOnUse" x="0" y="0" width="24" height="24">
<path d="M0 1.90735e-06H24V24H0V1.90735e-06Z" fill="white"/>
</mask>
<g mask="url(#mask0_2581_3906)">
<path fill-rule="evenodd" clip-rule="evenodd" d="M3.12625 8.57199C3.50728 8.64689 3.87688 8.39871 3.95178 8.01767C4.69251 4.249 8.0149 1.40624 12.0001 1.40624C15.9853 1.40624 19.3077 4.249 20.0485 8.01767C20.1234 8.39871 20.493 8.64689 20.874 8.57199C21.255 8.4971 21.5032 8.1275 21.4283 7.74646C20.5605 3.33114 16.6704 -8.58307e-06 12.0001 -8.58307e-06C7.32983 -8.58307e-06 3.43976 3.33114 2.57193 7.74646C2.49703 8.1275 2.74521 8.4971 3.12625 8.57199Z" fill="#9B8164"/>
<path fill-rule="evenodd" clip-rule="evenodd" d="M3.79688 23.2969C3.79688 23.6852 4.11167 24 4.5 24C5.66495 24 6.60938 23.0556 6.60938 21.8906V20.4844C6.60938 20.096 6.29458 19.7812 5.90625 19.7812C5.51792 19.7812 5.20312 20.096 5.20312 20.4844V21.8906C5.20312 22.2789 4.8883 22.5938 4.5 22.5938C4.11167 22.5938 3.79688 22.9085 3.79688 23.2969Z" fill="#9B8164"/>
<path fill-rule="evenodd" clip-rule="evenodd" d="M17.3906 21.8906C17.3906 23.0556 18.335 24 19.5 24C19.8883 24 20.2031 23.6852 20.2031 23.2969C20.2031 22.9085 19.8883 22.5938 19.5 22.5938C19.1117 22.5938 18.7969 22.2789 18.7969 21.8906V20.4844C18.7969 20.096 18.4821 19.7812 18.0937 19.7812C17.7054 19.7812 17.3906 20.096 17.3906 20.4844V21.8906Z" fill="#9B8164"/>
<path fill-rule="evenodd" clip-rule="evenodd" d="M4.73438 17.6719C4.73438 18.0602 5.04917 18.375 5.4375 18.375H18.5625C18.9508 18.375 19.2656 18.0602 19.2656 17.6719V14.8594C19.2656 14.471 18.9508 14.1562 18.5625 14.1562H5.4375C5.04917 14.1562 4.73438 14.471 4.73438 14.8594V17.6719ZM6.14062 16.9688V15.5625H17.8594V16.9688H6.14062Z" fill="#9B8164"/>
<path d="M9.65625 6.79688C9.65625 6.40856 9.97106 6.09375 10.3594 6.09375C10.7477 6.09375 11.0625 6.40856 11.0625 6.79688C11.0625 7.18519 10.7477 7.5 10.3594 7.5C9.97106 7.5 9.65625 7.18519 9.65625 6.79688Z" fill="#9B8164"/>
<path d="M9.65625 10.0781C9.65625 9.68981 9.97106 9.375 10.3594 9.375C10.7477 9.375 11.0625 9.68981 11.0625 10.0781C11.0625 10.4664 10.7477 10.7812 10.3594 10.7812C9.97106 10.7812 9.65625 10.4664 9.65625 10.0781Z" fill="#9B8164"/>
<path d="M12.9375 6.79688C12.9375 6.40856 13.2523 6.09375 13.6406 6.09375C14.0289 6.09375 14.3438 6.40856 14.3438 6.79688C14.3438 7.18519 14.0289 7.5 13.6406 7.5C13.2523 7.5 12.9375 7.18519 12.9375 6.79688Z" fill="#9B8164"/>
<path d="M12.9375 10.0781C12.9375 9.68981 13.2523 9.375 13.6406 9.375C14.0289 9.375 14.3438 9.68981 14.3438 10.0781C14.3438 10.4664 14.0289 10.7812 13.6406 10.7812C13.2523 10.7812 12.9375 10.4664 12.9375 10.0781Z" fill="#9B8164"/>
<path fill-rule="evenodd" clip-rule="evenodd" d="M5.4375 19.7813C4.27253 19.7813 3.32812 18.8368 3.32812 17.6719V12.5156C3.32812 12.1812 3.09262 11.8931 2.76491 11.8266C2.01617 11.6745 1.45312 11.0118 1.45312 10.2191C1.45312 9.25959 2.27598 8.49276 3.25725 8.58634L3.324 7.88639L3.25725 8.58634C4.07585 8.6644 4.73438 9.41749 4.73438 10.3198V17.6719C4.73438 18.0602 5.04917 18.375 5.4375 18.375H18.5625C18.9508 18.375 19.2656 18.0602 19.2656 17.6719V10.3198C19.2656 9.41749 19.9242 8.6644 20.7427 8.58634L20.676 7.88639L20.7428 8.58634C21.724 8.49276 22.5469 9.25959 22.5469 10.2191C22.5469 11.0118 21.9838 11.6745 21.2351 11.8266C20.9074 11.8931 20.6719 12.1812 20.6719 12.5156V17.6719C20.6719 18.8368 19.7275 19.7813 18.5625 19.7813H5.4375ZM1.92188 17.6719C1.92188 19.6135 3.49588 21.1875 5.4375 21.1875H18.5625C20.5041 21.1875 22.0781 19.6135 22.0781 17.6719V13.0319C23.179 12.5728 23.9531 11.4872 23.9531 10.2191C23.9531 8.43788 22.4238 7.01339 20.6093 7.18644C18.9907 7.34078 17.8594 8.77395 17.8594 10.3198V16.9688H6.14062V10.3198C6.14062 8.77395 5.00928 7.34078 3.39075 7.18644C1.5762 7.01339 0.046875 8.43788 0.046875 10.2191C0.046875 11.4872 0.820966 12.5728 1.92188 13.0319V17.6719Z" fill="#9B8164"/>
</g>
</svg>
