<svg width="33" height="32" viewBox="0 0 33 32" fill="none" xmlns="http://www.w3.org/2000/svg">
<path d="M10.9987 4H8.5987C7.10522 4 6.35849 4 5.78806 4.29065C5.28629 4.54631 4.87834 4.95426 4.62268 5.45603C4.33203 6.02646 4.33203 6.77319 4.33203 8.26667V10.6667M10.9987 28H8.5987C7.10522 28 6.35849 28 5.78806 27.7094C5.28629 27.4537 4.87834 27.0457 4.62268 26.544C4.33203 25.9735 4.33203 25.2268 4.33203 23.7333V21.3333M28.332 10.6667V8.26667C28.332 6.77319 28.332 6.02646 28.0414 5.45603C27.7857 4.95426 27.3778 4.54631 26.876 4.29065C26.3056 4 25.5588 4 24.0654 4H21.6654M28.332 21.3333V23.7333C28.332 25.2268 28.332 25.9735 28.0414 26.544C27.7857 27.0457 27.3778 27.4537 26.876 27.7094C26.3056 28 25.5588 28 24.0654 28H21.6654M21.6654 16C21.6654 18.9455 19.2776 21.3333 16.332 21.3333C13.3865 21.3333 10.9987 18.9455 10.9987 16C10.9987 13.0545 13.3865 10.6667 16.332 10.6667C19.2776 10.6667 21.6654 13.0545 21.6654 16Z" stroke="white" stroke-width="2" stroke-linecap="round" stroke-linejoin="round"/>
</svg>
