<svg width="33" height="32" viewBox="0 0 33 32" fill="none" xmlns="http://www.w3.org/2000/svg">
<path d="M20.6693 7.56492C23.8225 9.06288 26.0026 12.2769 26.0026 16.0001M11.8592 24C9.14871 22.3668 7.33594 19.3951 7.33594 16M30.0026 16.0001C30.0026 23.3639 24.0331 29.3334 16.6693 29.3334C9.30547 29.3334 3.33594 23.3639 3.33594 16.0001C3.33594 8.63628 9.30547 2.66675 16.6693 2.66675C24.0331 2.66675 30.0026 8.63628 30.0026 16.0001ZM20.6693 16.0001C20.6693 18.2092 18.8784 20.0001 16.6693 20.0001C14.4601 20.0001 12.6693 18.2092 12.6693 16.0001C12.6693 13.7909 14.4601 12.0001 16.6693 12.0001C18.8784 12.0001 20.6693 13.7909 20.6693 16.0001Z" stroke="white" stroke-width="2" stroke-linecap="round" stroke-linejoin="round"/>
</svg>
