<svg width="33" height="32" viewBox="0 0 33 32" fill="none" xmlns="http://www.w3.org/2000/svg">
<path d="M15.6667 6.66675H16.2459C20.3089 6.66675 22.3404 6.66675 23.1115 7.39647C23.7781 8.02724 24.0735 8.95646 23.8936 9.85636C23.6854 10.8974 22.0268 12.0706 18.7097 14.4168L13.2903 18.25C9.97321 20.5963 8.31465 21.7694 8.10645 22.8105C7.92648 23.7104 8.22189 24.6396 8.88848 25.2704C9.65965 26.0001 11.6911 26.0001 15.7541 26.0001H17M11 6.66675C11 8.87589 9.20914 10.6667 7 10.6667C4.79086 10.6667 3 8.87589 3 6.66675C3 4.45761 4.79086 2.66675 7 2.66675C9.20914 2.66675 11 4.45761 11 6.66675ZM29.6667 25.3334C29.6667 27.5426 27.8758 29.3334 25.6667 29.3334C23.4575 29.3334 21.6667 27.5426 21.6667 25.3334C21.6667 23.1243 23.4575 21.3334 25.6667 21.3334C27.8758 21.3334 29.6667 23.1243 29.6667 25.3334Z" stroke="white" stroke-width="2" stroke-linecap="round" stroke-linejoin="round"/>
</svg>
